<svg xmlns="http://www.w3.org/2000/svg" xmlns:xlink="http://www.w3.org/1999/xlink" width="200" zoomAndPan="magnify" viewBox="0 0 150 30.000001" height="40" preserveAspectRatio="xMidYMid meet" version="1.0"><defs><g/><clipPath id="4d8ec73a71"><path d="M 2.417969 0 L 147.578125 0 L 147.578125 29.03125 L 2.417969 29.03125 Z M 2.417969 0 " clip-rule="nonzero"/></clipPath><clipPath id="0902fce0e3"><path d="M 54 8 L 55.539062 8 L 55.539062 10 L 54 10 Z M 54 8 " clip-rule="nonzero"/></clipPath><clipPath id="83bd7c0bad"><path d="M 53 6 L 55.539062 6 L 55.539062 10 L 53 10 Z M 53 6 " clip-rule="nonzero"/></clipPath><clipPath id="43f0d4e537"><path d="M 54 8 L 55.539062 8 L 55.539062 10 L 54 10 Z M 54 8 " clip-rule="nonzero"/></clipPath><clipPath id="982faf54db"><path d="M 15.621094 12 L 17 12 L 17 17 L 15.621094 17 Z M 15.621094 12 " clip-rule="nonzero"/></clipPath><clipPath id="63fe5379ea"><path d="M 53 6 L 55.539062 6 L 55.539062 10 L 53 10 Z M 53 6 " clip-rule="nonzero"/></clipPath><clipPath id="4f3163f787"><path d="M 15.621094 10 L 18 10 L 18 16 L 15.621094 16 Z M 15.621094 10 " clip-rule="nonzero"/></clipPath><clipPath id="e862f4c216"><path d="M 15.621094 15 L 16 15 L 16 20 L 15.621094 20 Z M 15.621094 15 " clip-rule="nonzero"/></clipPath><clipPath id="196888274e"><path d="M 54 8 L 55.539062 8 L 55.539062 10 L 54 10 Z M 54 8 " clip-rule="nonzero"/></clipPath><clipPath id="bd32992c12"><path d="M 15.621094 14 L 17 14 L 17 19 L 15.621094 19 Z M 15.621094 14 " clip-rule="nonzero"/></clipPath><clipPath id="1d4fd5a667"><path d="M 15.621094 18 L 17 18 L 17 23 L 15.621094 23 Z M 15.621094 18 " clip-rule="nonzero"/></clipPath><clipPath id="d3a910c213"><path d="M 53 7 L 55.539062 7 L 55.539062 10 L 53 10 Z M 53 7 " clip-rule="nonzero"/></clipPath><clipPath id="9c9a90d29a"><path d="M 54 9 L 55.539062 9 L 55.539062 10 L 54 10 Z M 54 9 " clip-rule="nonzero"/></clipPath><clipPath id="60fe40aa85"><path d="M 54 8 L 55.539062 8 L 55.539062 10 L 54 10 Z M 54 8 " clip-rule="nonzero"/></clipPath><clipPath id="cd9862ed3b"><path d="M 54 9 L 55.539062 9 L 55.539062 10 L 54 10 Z M 54 9 " clip-rule="nonzero"/></clipPath><clipPath id="1755d5e83e"><path d="M 54 9 L 55.539062 9 L 55.539062 11 L 54 11 Z M 54 9 " clip-rule="nonzero"/></clipPath><clipPath id="5393cd27e0"><path d="M 55 9 L 55.539062 9 L 55.539062 11 L 55 11 Z M 55 9 " clip-rule="nonzero"/></clipPath><clipPath id="d07326a829"><path d="M 54 10 L 55.539062 10 L 55.539062 13 L 54 13 Z M 54 10 " clip-rule="nonzero"/></clipPath><clipPath id="6cfb1ed199"><path d="M 19 26 L 23 26 L 23 29.03125 L 19 29.03125 Z M 19 26 " clip-rule="nonzero"/></clipPath><clipPath id="a8700708ed"><path d="M 55 9 L 55.539062 9 L 55.539062 12 L 55 12 Z M 55 9 " clip-rule="nonzero"/></clipPath><clipPath id="f6e0401ddf"><path d="M 55 9 L 55.539062 9 L 55.539062 11 L 55 11 Z M 55 9 " clip-rule="nonzero"/></clipPath></defs><g clip-path="url(#4d8ec73a71)"><path fill="#ffffff" d="M 2.417969 0 L 147.582031 0 L 147.582031 29.03125 L 2.417969 29.03125 Z M 2.417969 0 " fill-opacity="1" fill-rule="nonzero"/><path fill="#ffffff" d="M 2.417969 0 L 147.582031 0 L 147.582031 29.03125 L 2.417969 29.03125 Z M 2.417969 0 " fill-opacity="1" fill-rule="nonzero"/></g><path fill="#6168ff" d="M 23.09375 1.511719 C 23.117188 1.425781 23.152344 1.367188 23.199219 1.328125 L 23.214844 1.316406 C 24.933594 0.0351562 24.964844 0.0117188 25.929688 -0.542969 L 26.882812 -1.054688 C 26.816406 -1.023438 26.769531 -0.953125 26.734375 -0.84375 C 26.144531 -0.46875 25.359375 0.0429688 24.792969 0.457031 C 24.277344 0.757812 23.585938 1.167969 23.09375 1.511719 " fill-opacity="1" fill-rule="nonzero"/><g clip-path="url(#0902fce0e3)"><path fill="#6168ff" d="M 54.734375 8.597656 L 54.753906 8.609375 L 55.152344 9.570312 L 54.734375 8.597656 " fill-opacity="1" fill-rule="nonzero"/></g><g clip-path="url(#83bd7c0bad)"><path fill="#6168ff" d="M 53.441406 6.34375 C 53.449219 6.324219 53.460938 6.3125 53.472656 6.304688 C 53.8125 6.878906 54.257812 7.644531 54.558594 8.234375 L 55.152344 9.570312 L 54.535156 8.265625 C 54.21875 7.683594 53.789062 6.910156 53.441406 6.34375 " fill-opacity="1" fill-rule="nonzero"/></g><path fill="#6168ff" d="M 50.269531 2.558594 C 50.285156 2.511719 50.308594 2.480469 50.339844 2.46875 C 50.796875 2.925781 51.40625 3.539062 51.839844 4.023438 C 52.226562 4.535156 52.742188 5.21875 53.105469 5.746094 C 53.089844 5.753906 53.078125 5.769531 53.070312 5.792969 C 52.683594 5.296875 52.15625 4.632812 51.734375 4.160156 C 51.304688 3.671875 50.722656 3.027344 50.269531 2.558594 " fill-opacity="1" fill-rule="nonzero"/><path fill="#6168ff" d="M 46.363281 -0.324219 C 46.382812 -0.394531 46.417969 -0.441406 46.460938 -0.457031 C 47.015625 -0.125 47.753906 0.324219 48.285156 0.6875 C 48.765625 1.082031 49.402344 1.609375 49.863281 2.027344 C 49.832031 2.039062 49.804688 2.070312 49.789062 2.121094 C 49.296875 1.75 48.632812 1.261719 48.113281 0.921875 C 47.59375 0.539062 46.898438 0.0351562 46.363281 -0.324219 " fill-opacity="1" fill-rule="nonzero"/><path fill="#6168ff" d="M 19.714844 5 C 19.730469 4.949219 19.75 4.90625 19.773438 4.875 C 20.101562 4.476562 20.527344 3.929688 20.875 3.542969 C 21.40625 2.996094 22.125 2.269531 22.691406 1.753906 C 22.652344 1.792969 22.617188 1.847656 22.59375 1.929688 C 22.113281 2.417969 21.480469 3.074219 21.03125 3.589844 C 20.625 4.003906 20.089844 4.558594 19.714844 5 " fill-opacity="1" fill-rule="nonzero"/><g clip-path="url(#43f0d4e537)"><path fill="#6168ff" d="M 54.71875 8.664062 C 54.714844 8.648438 54.714844 8.636719 54.714844 8.628906 L 55.152344 9.570312 L 54.71875 8.664062 " fill-opacity="1" fill-rule="nonzero"/></g><path fill="#6168ff" d="M 51.996094 4.699219 C 51.988281 4.617188 51.984375 4.546875 51.984375 4.492188 C 52.386719 4.976562 52.917969 5.628906 53.289062 6.136719 C 53.632812 6.699219 54.089844 7.453125 54.410156 8.03125 C 54.40625 8.046875 54.410156 8.066406 54.410156 8.089844 C 54.089844 7.578125 53.65625 6.894531 53.300781 6.40625 C 52.917969 5.886719 52.246094 5.292969 51.996094 4.699219 " fill-opacity="1" fill-rule="nonzero"/><path fill="#6168ff" d="M 48.4375 1.570312 C 48.417969 1.425781 48.414062 1.308594 48.417969 1.210938 C 48.921875 1.5625 49.585938 2.035156 50.066406 2.417969 C 50.519531 2.886719 51.121094 3.515625 51.554688 4.003906 C 51.554688 4.066406 51.558594 4.140625 51.566406 4.234375 C 51.136719 3.855469 50.554688 3.355469 50.097656 3.011719 C 49.605469 2.574219 48.75 2.152344 48.4375 1.570312 " fill-opacity="1" fill-rule="nonzero"/><path fill="#6168ff" d="M 44.234375 -0.640625 C 44.214844 -0.835938 44.207031 -1 44.210938 -1.132812 C 44.789062 -0.921875 45.554688 -0.636719 46.117188 -0.390625 C 46.65625 -0.0273438 47.371094 0.457031 47.890625 0.84375 C 47.886719 0.945312 47.894531 1.070312 47.910156 1.222656 C 47.394531 0.988281 46.699219 0.679688 46.164062 0.484375 C 45.589844 0.140625 44.824219 -0.320312 44.234375 -0.640625 " fill-opacity="1" fill-rule="nonzero"/><path fill="#6168ff" d="M 25.152344 1.070312 C 25.121094 0.792969 25.109375 0.5625 25.117188 0.378906 C 25.695312 -0.0273438 26.46875 -0.558594 27.070312 -0.921875 C 27.679688 -1.121094 28.492188 -1.378906 29.113281 -1.535156 C 29.105469 -1.347656 29.117188 -1.113281 29.148438 -0.832031 C 28.539062 -0.449219 27.726562 0.0664062 27.144531 0.484375 C 26.542969 0.648438 25.742188 0.867188 25.152344 1.070312 " fill-opacity="1" fill-rule="nonzero"/><path fill="#6168ff" d="M 21.316406 4.085938 C 21.289062 3.824219 21.277344 3.609375 21.285156 3.4375 C 21.746094 2.929688 22.371094 2.253906 22.863281 1.773438 C 23.363281 1.449219 24.035156 1.019531 24.558594 0.734375 C 24.550781 0.917969 24.5625 1.148438 24.59375 1.425781 C 24.085938 1.921875 23.410156 2.59375 22.933594 3.117188 C 22.441406 3.394531 21.785156 3.769531 21.316406 4.085938 " fill-opacity="1" fill-rule="nonzero"/><path fill="#6168ff" d="M 18.398438 7.789062 C 18.375 7.5625 18.363281 7.375 18.371094 7.226562 C 18.710938 6.640625 19.167969 5.859375 19.539062 5.292969 C 19.917969 4.867188 20.429688 4.300781 20.84375 3.902344 C 20.835938 4.074219 20.847656 4.285156 20.875 4.539062 C 20.484375 5.121094 19.964844 5.898438 19.601562 6.5 C 19.230469 6.875 18.738281 7.382812 18.398438 7.789062 " fill-opacity="1" fill-rule="nonzero"/><path fill="#6168ff" d="M 16.480469 11.992188 C 16.460938 11.8125 16.453125 11.664062 16.460938 11.542969 C 16.664062 10.910156 16.941406 10.066406 17.179688 9.441406 C 17.429688 8.933594 17.769531 8.261719 18.058594 7.773438 C 18.050781 7.917969 18.0625 8.101562 18.085938 8.320312 C 17.820312 8.953125 17.46875 9.800781 17.230469 10.445312 C 16.992188 10.902344 16.679688 11.515625 16.480469 11.992188 " fill-opacity="1" fill-rule="nonzero"/><g clip-path="url(#982faf54db)"><path fill="#6168ff" d="M 15.644531 16.507812 C 15.632812 16.386719 15.625 16.28125 15.628906 16.199219 L 15.640625 15.984375 L 15.730469 15.007812 L 15.90625 13.773438 C 16.011719 13.285156 16.152344 12.628906 16.285156 12.148438 C 16.28125 12.261719 16.289062 12.40625 16.308594 12.578125 C 16.175781 13.230469 16.003906 14.105469 15.902344 14.765625 C 15.8125 15.285156 15.699219 15.980469 15.644531 16.507812 " fill-opacity="1" fill-rule="nonzero"/></g><g clip-path="url(#63fe5379ea)"><path fill="#6168ff" d="M 53.503906 6.867188 C 53.5 6.855469 53.496094 6.84375 53.496094 6.832031 C 53.480469 6.765625 53.46875 6.707031 53.457031 6.652344 C 53.796875 7.152344 54.238281 7.816406 54.539062 8.335938 L 55.152344 9.570312 L 54.574219 8.507812 C 54.261719 8.007812 53.742188 7.402344 53.503906 6.867188 " fill-opacity="1" fill-rule="nonzero"/></g><path fill="#6168ff" d="M 50.40625 3.753906 C 50.402344 3.726562 50.394531 3.703125 50.390625 3.675781 C 50.355469 3.523438 50.328125 3.386719 50.304688 3.265625 C 50.75 3.617188 51.335938 4.09375 51.75 4.480469 C 52.160156 4.976562 52.703125 5.644531 53.089844 6.15625 C 53.101562 6.21875 53.117188 6.289062 53.132812 6.367188 C 53.136719 6.382812 53.140625 6.394531 53.140625 6.40625 C 52.78125 6.039062 52.296875 5.554688 51.90625 5.21875 C 51.460938 4.773438 50.722656 4.296875 50.40625 3.753906 " fill-opacity="1" fill-rule="nonzero"/><path fill="#6168ff" d="M 46.566406 1.464844 C 46.554688 1.425781 46.546875 1.390625 46.539062 1.351562 C 46.488281 1.125 46.445312 0.917969 46.414062 0.734375 C 46.9375 0.941406 47.632812 1.21875 48.140625 1.464844 C 48.652344 1.882812 49.332031 2.441406 49.828125 2.878906 C 49.851562 3.011719 49.878906 3.15625 49.917969 3.320312 C 49.921875 3.347656 49.929688 3.371094 49.9375 3.398438 C 49.480469 3.179688 48.871094 2.890625 48.398438 2.714844 C 47.851562 2.335938 46.945312 2.011719 46.566406 1.464844 " fill-opacity="1" fill-rule="nonzero"/><path fill="#6168ff" d="M 42.175781 0.0664062 C 42.164062 0.015625 42.152344 -0.03125 42.140625 -0.078125 C 42.074219 -0.367188 42.023438 -0.628906 41.980469 -0.867188 C 42.558594 -0.8125 43.332031 -0.734375 43.902344 -0.636719 C 44.492188 -0.3125 45.277344 0.121094 45.851562 0.46875 C 45.886719 0.660156 45.929688 0.875 45.984375 1.109375 C 45.992188 1.148438 46 1.1875 46.007812 1.226562 C 45.484375 1.15625 44.78125 1.074219 44.253906 1.050781 C 43.632812 0.746094 42.804688 0.347656 42.175781 0.0664062 " fill-opacity="1" fill-rule="nonzero"/><path fill="#6168ff" d="M 37.429688 -0.386719 C 37.417969 -0.445312 37.402344 -0.5 37.390625 -0.554688 C 37.316406 -0.890625 37.253906 -1.195312 37.207031 -1.46875 C 37.8125 -1.570312 38.625 -1.699219 39.238281 -1.753906 C 39.878906 -1.539062 40.734375 -1.246094 41.363281 -1.003906 C 41.40625 -0.765625 41.460938 -0.496094 41.527344 -0.199219 C 41.539062 -0.148438 41.546875 -0.101562 41.558594 -0.0507812 C 40.988281 0.03125 40.226562 0.152344 39.660156 0.277344 C 38.996094 0.0703125 38.105469 -0.203125 37.429688 -0.386719 " fill-opacity="1" fill-rule="nonzero"/><path fill="#6168ff" d="M 32.53125 0.167969 C 32.515625 0.105469 32.5 0.046875 32.488281 -0.0117188 C 32.40625 -0.378906 32.339844 -0.710938 32.285156 -1.003906 C 32.902344 -1.261719 33.722656 -1.59375 34.351562 -1.808594 C 35.015625 -1.71875 35.898438 -1.59375 36.558594 -1.46875 C 36.605469 -1.195312 36.667969 -0.882812 36.746094 -0.542969 C 36.757812 -0.488281 36.769531 -0.429688 36.785156 -0.375 C 36.191406 -0.136719 35.398438 0.183594 34.820312 0.457031 C 34.136719 0.359375 33.21875 0.234375 32.53125 0.167969 " fill-opacity="1" fill-rule="nonzero"/><path fill="#6168ff" d="M 27.679688 1.785156 C 27.664062 1.722656 27.652344 1.660156 27.636719 1.601562 C 27.554688 1.230469 27.484375 0.894531 27.433594 0.589844 C 28.023438 0.183594 28.820312 -0.359375 29.4375 -0.730469 C 30.09375 -0.785156 30.972656 -0.847656 31.632812 -0.859375 C 31.6875 -0.5625 31.753906 -0.230469 31.835938 0.136719 C 31.851562 0.199219 31.863281 0.257812 31.878906 0.320312 C 31.285156 0.703125 30.5 1.222656 29.929688 1.640625 C 29.253906 1.671875 28.351562 1.71875 27.679688 1.785156 " fill-opacity="1" fill-rule="nonzero"/><path fill="#6168ff" d="M 23.414062 4.3125 C 23.398438 4.253906 23.386719 4.195312 23.371094 4.136719 C 23.292969 3.78125 23.226562 3.457031 23.175781 3.167969 C 23.664062 2.648438 24.324219 1.960938 24.84375 1.46875 C 25.433594 1.277344 26.21875 1.03125 26.820312 0.882812 C 26.871094 1.183594 26.941406 1.519531 27.027344 1.890625 C 27.039062 1.953125 27.054688 2.011719 27.066406 2.074219 C 26.535156 2.585938 25.832031 3.265625 25.328125 3.800781 C 24.75 3.941406 23.980469 4.136719 23.414062 4.3125 " fill-opacity="1" fill-rule="nonzero"/><path fill="#6168ff" d="M 20.003906 7.523438 C 19.992188 7.46875 19.980469 7.417969 19.96875 7.367188 C 19.894531 7.042969 19.835938 6.753906 19.789062 6.492188 C 20.164062 5.898438 20.671875 5.105469 21.074219 4.527344 C 21.546875 4.226562 22.179688 3.832031 22.671875 3.570312 C 22.722656 3.859375 22.789062 4.175781 22.867188 4.53125 C 22.882812 4.585938 22.894531 4.644531 22.910156 4.703125 C 22.484375 5.292969 21.921875 6.082031 21.523438 6.6875 C 21.0625 6.925781 20.445312 7.25 20.003906 7.523438 " fill-opacity="1" fill-rule="nonzero"/><path fill="#6168ff" d="M 17.539062 11.238281 C 17.527344 11.195312 17.515625 11.152344 17.507812 11.109375 C 17.445312 10.839844 17.398438 10.597656 17.359375 10.378906 C 17.609375 9.738281 17.949219 8.882812 18.230469 8.253906 C 18.574219 7.859375 19.035156 7.34375 19.410156 6.980469 C 19.457031 7.234375 19.511719 7.519531 19.585938 7.835938 C 19.597656 7.886719 19.609375 7.9375 19.621094 7.992188 C 19.3125 8.625 18.902344 9.472656 18.617188 10.121094 C 18.285156 10.445312 17.839844 10.882812 17.539062 11.238281 " fill-opacity="1" fill-rule="nonzero"/><g clip-path="url(#4f3163f787)"><path fill="#6168ff" d="M 16.101562 15.285156 C 16.09375 15.253906 16.085938 15.21875 16.078125 15.1875 C 16.03125 14.988281 15.996094 14.804688 15.96875 14.644531 C 16.082031 13.984375 16.242188 13.109375 16.390625 12.457031 C 16.59375 11.992188 16.871094 11.375 17.113281 10.929688 C 17.152344 11.136719 17.199219 11.375 17.257812 11.632812 C 17.265625 11.675781 17.277344 11.71875 17.285156 11.761719 C 17.101562 12.410156 16.855469 13.277344 16.695312 13.929688 C 16.503906 14.332031 16.253906 14.867188 16.101562 15.285156 " fill-opacity="1" fill-rule="nonzero"/></g><g clip-path="url(#e862f4c216)"><path fill="#6168ff" d="M 15.773438 19.488281 C 15.769531 19.46875 15.765625 19.449219 15.761719 19.429688 C 15.734375 19.308594 15.710938 19.199219 15.695312 19.101562 C 15.664062 18.457031 15.632812 17.597656 15.636719 16.953125 C 15.691406 16.433594 15.769531 15.742188 15.863281 15.226562 C 15.890625 15.382812 15.925781 15.554688 15.96875 15.746094 C 15.976562 15.777344 15.984375 15.808594 15.992188 15.839844 C 15.9375 16.472656 15.871094 17.3125 15.84375 17.949219 C 15.808594 18.410156 15.769531 19.027344 15.773438 19.488281 " fill-opacity="1" fill-rule="nonzero"/></g><g clip-path="url(#196888274e)"><path fill="#6168ff" d="M 54.769531 8.894531 C 54.761719 8.867188 54.753906 8.839844 54.75 8.816406 L 55.152344 9.570312 L 54.769531 8.894531 " fill-opacity="1" fill-rule="nonzero"/></g><path fill="#6168ff" d="M 52.304688 6.019531 C 52.257812 5.855469 52.214844 5.703125 52.175781 5.558594 C 52.546875 5.902344 53.035156 6.367188 53.371094 6.742188 C 53.707031 7.214844 54.152344 7.851562 54.464844 8.339844 C 54.472656 8.382812 54.488281 8.425781 54.5 8.472656 C 54.222656 8.125 53.851562 7.660156 53.539062 7.34375 C 53.175781 6.941406 52.578125 6.488281 52.304688 6.019531 " fill-opacity="1" fill-rule="nonzero"/><path fill="#6168ff" d="M 48.972656 3.875 C 48.890625 3.59375 48.816406 3.324219 48.75 3.070312 C 49.207031 3.257812 49.8125 3.519531 50.25 3.75 C 50.710938 4.175781 51.320312 4.742188 51.765625 5.183594 C 51.808594 5.339844 51.855469 5.511719 51.90625 5.691406 C 51.527344 5.488281 51.019531 5.226562 50.621094 5.070312 C 50.128906 4.707031 49.328125 4.371094 48.972656 3.875 " fill-opacity="1" fill-rule="nonzero"/><path fill="#6168ff" d="M 44.96875 2.503906 C 44.855469 2.117188 44.753906 1.75 44.664062 1.40625 C 45.183594 1.441406 45.875 1.496094 46.390625 1.578125 C 46.949219 1.941406 47.691406 2.421875 48.238281 2.800781 C 48.308594 3.066406 48.390625 3.351562 48.476562 3.648438 C 48.015625 3.597656 47.398438 3.535156 46.9375 3.53125 C 46.347656 3.21875 45.566406 2.804688 44.96875 2.503906 " fill-opacity="1" fill-rule="nonzero"/><path fill="#6168ff" d="M 40.488281 1.949219 C 40.347656 1.480469 40.222656 1.035156 40.113281 0.617188 C 40.671875 0.503906 41.421875 0.355469 41.988281 0.285156 C 42.617188 0.566406 43.460938 0.949219 44.082031 1.25 C 44.175781 1.605469 44.28125 1.984375 44.398438 2.382812 C 43.878906 2.480469 43.1875 2.621094 42.679688 2.761719 C 42.023438 2.511719 41.148438 2.183594 40.488281 1.949219 " fill-opacity="1" fill-rule="nonzero"/><path fill="#6168ff" d="M 30.84375 3.449219 C 30.679688 2.894531 30.535156 2.371094 30.402344 1.878906 C 30.980469 1.472656 31.75 0.9375 32.34375 0.5625 C 33.035156 0.636719 33.957031 0.742188 34.648438 0.847656 C 34.773438 1.320312 34.914062 1.824219 35.070312 2.359375 C 34.503906 2.738281 33.753906 3.25 33.207031 3.65625 C 32.5 3.585938 31.554688 3.492188 30.84375 3.449219 " fill-opacity="1" fill-rule="nonzero"/><path fill="#6168ff" d="M 26.191406 5.523438 C 26.03125 4.972656 25.882812 4.453125 25.753906 3.96875 C 26.273438 3.441406 26.964844 2.742188 27.507812 2.242188 C 28.183594 2.1875 29.082031 2.121094 29.761719 2.101562 C 29.890625 2.597656 30.039062 3.121094 30.199219 3.675781 C 29.648438 4.183594 28.917969 4.859375 28.386719 5.386719 C 27.726562 5.417969 26.847656 5.460938 26.191406 5.523438 " fill-opacity="1" fill-rule="nonzero"/><path fill="#6168ff" d="M 22.28125 8.222656 C 22.132812 7.714844 22 7.230469 21.878906 6.777344 C 22.289062 6.175781 22.84375 5.378906 23.28125 4.796875 C 23.851562 4.636719 24.613281 4.429688 25.195312 4.300781 C 25.320312 4.789062 25.464844 5.304688 25.625 5.847656 C 25.167969 6.429688 24.558594 7.203125 24.121094 7.800781 C 23.566406 7.914062 22.828125 8.074219 22.28125 8.222656 " fill-opacity="1" fill-rule="nonzero"/><path fill="#6168ff" d="M 19.238281 11.386719 C 19.109375 10.945312 18.992188 10.523438 18.886719 10.128906 C 19.1875 9.488281 19.589844 8.636719 19.914062 8.007812 C 20.363281 7.75 20.960938 7.414062 21.429688 7.195312 C 21.546875 7.640625 21.679688 8.117188 21.828125 8.621094 C 21.472656 9.238281 21.003906 10.066406 20.667969 10.699219 C 20.234375 10.894531 19.65625 11.15625 19.238281 11.386719 " fill-opacity="1" fill-rule="nonzero"/><path fill="#6168ff" d="M 17.152344 14.855469 C 17.046875 14.503906 16.953125 14.171875 16.871094 13.855469 C 17.046875 13.203125 17.289062 12.339844 17.492188 11.695312 C 17.800781 11.355469 18.222656 10.910156 18.5625 10.605469 C 18.664062 10.992188 18.777344 11.402344 18.90625 11.832031 C 18.664062 12.460938 18.339844 13.296875 18.117188 13.929688 C 17.816406 14.199219 17.417969 14.558594 17.152344 14.855469 " fill-opacity="1" fill-rule="nonzero"/><g clip-path="url(#bd32992c12)"><path fill="#6168ff" d="M 16.105469 18.476562 C 16.03125 18.234375 15.96875 18.003906 15.910156 17.789062 C 15.957031 17.160156 16.023438 16.320312 16.097656 15.691406 C 16.257812 15.289062 16.476562 14.753906 16.679688 14.371094 C 16.761719 14.671875 16.851562 14.992188 16.949219 15.332031 C 16.824219 15.9375 16.664062 16.742188 16.558594 17.347656 C 16.40625 17.679688 16.210938 18.128906 16.105469 18.476562 " fill-opacity="1" fill-rule="nonzero"/></g><g clip-path="url(#1d4fd5a667)"><path fill="#6168ff" d="M 16.191406 22.09375 C 16.15625 21.976562 16.125 21.867188 16.097656 21.765625 C 16.003906 21.183594 15.878906 20.40625 15.816406 19.824219 C 15.816406 19.371094 15.824219 18.769531 15.867188 18.320312 C 15.921875 18.519531 15.980469 18.734375 16.050781 18.960938 C 16.050781 19.515625 16.058594 20.25 16.089844 20.800781 C 16.105469 21.191406 16.136719 21.710938 16.191406 22.09375 " fill-opacity="1" fill-rule="nonzero"/></g><path fill="#6168ff" d="M 16.34375 22.785156 L 16.253906 22.453125 L 16.214844 22.285156 C 16.238281 22.375 16.261719 22.464844 16.292969 22.566406 L 16.453125 23.164062 C 16.421875 23.050781 16.375 22.898438 16.34375 22.785156 " fill-opacity="1" fill-rule="nonzero"/><g clip-path="url(#d3a910c213)"><path fill="#6168ff" d="M 53.800781 7.882812 C 53.761719 7.769531 53.726562 7.660156 53.695312 7.554688 C 53.984375 7.878906 54.367188 8.320312 54.621094 8.671875 L 55.152344 9.570312 L 54.707031 8.933594 C 54.441406 8.613281 54.011719 8.242188 53.800781 7.882812 " fill-opacity="1" fill-rule="nonzero"/></g><path fill="#6168ff" d="M 51.09375 6.089844 C 51.003906 5.828125 50.925781 5.574219 50.847656 5.332031 C 51.234375 5.5 51.742188 5.730469 52.105469 5.9375 C 52.488281 6.320312 53 6.824219 53.367188 7.21875 C 53.40625 7.34375 53.449219 7.472656 53.492188 7.609375 C 53.195312 7.4375 52.796875 7.214844 52.476562 7.089844 C 52.0625 6.785156 51.398438 6.5 51.09375 6.089844 " fill-opacity="1" fill-rule="nonzero"/><path fill="#6168ff" d="M 47.589844 4.964844 C 47.460938 4.574219 47.339844 4.195312 47.226562 3.832031 C 47.679688 3.847656 48.289062 3.871094 48.738281 3.933594 C 49.242188 4.277344 49.914062 4.738281 50.40625 5.09375 C 50.488281 5.351562 50.574219 5.621094 50.667969 5.902344 C 50.28125 5.878906 49.757812 5.859375 49.367188 5.882812 C 48.835938 5.605469 47.984375 5.417969 47.589844 4.964844 " fill-opacity="1" fill-rule="nonzero"/><path fill="#6168ff" d="M 43.480469 4.527344 C 43.316406 4.027344 43.160156 3.546875 43.015625 3.082031 C 43.519531 2.953125 44.199219 2.785156 44.710938 2.695312 C 45.308594 2.988281 46.105469 3.382812 46.695312 3.6875 C 46.8125 4.066406 46.941406 4.460938 47.078125 4.867188 C 46.617188 4.992188 46.007812 5.164062 45.558594 5.324219 C 44.9375 5.082031 44.105469 4.761719 43.480469 4.527344 " fill-opacity="1" fill-rule="nonzero"/><path fill="#6168ff" d="M 38.949219 4.792969 C 38.753906 4.214844 38.574219 3.65625 38.40625 3.117188 C 38.945312 2.847656 39.660156 2.492188 40.214844 2.257812 C 40.878906 2.488281 41.765625 2.796875 42.421875 3.042969 C 42.570312 3.515625 42.730469 4.011719 42.902344 4.523438 C 42.394531 4.78125 41.722656 5.136719 41.234375 5.425781 C 40.550781 5.234375 39.636719 4.976562 38.949219 4.792969 " fill-opacity="1" fill-rule="nonzero"/><path fill="#6168ff" d="M 34.175781 5.785156 C 33.96875 5.15625 33.769531 4.550781 33.589844 3.964844 C 34.136719 3.566406 34.871094 3.039062 35.4375 2.664062 C 36.140625 2.8125 37.078125 3.015625 37.777344 3.183594 C 37.945312 3.726562 38.128906 4.296875 38.324219 4.882812 C 37.792969 5.269531 37.089844 5.789062 36.578125 6.199219 C 35.859375 6.066406 34.898438 5.898438 34.175781 5.785156 " fill-opacity="1" fill-rule="nonzero"/><path fill="#6168ff" d="M 29.359375 7.511719 C 29.144531 6.871094 28.945312 6.253906 28.761719 5.660156 C 29.296875 5.140625 30.015625 4.449219 30.574219 3.953125 C 31.285156 4 32.234375 4.066406 32.945312 4.140625 C 33.125 4.726562 33.324219 5.339844 33.535156 5.972656 C 32.996094 6.46875 32.285156 7.136719 31.765625 7.648438 C 31.042969 7.601562 30.082031 7.539062 29.359375 7.511719 " fill-opacity="1" fill-rule="nonzero"/><path fill="#6168ff" d="M 21.453125 12.464844 C 21.269531 11.910156 21.09375 11.378906 20.9375 10.867188 C 21.28125 10.238281 21.746094 9.40625 22.113281 8.792969 C 22.65625 8.65625 23.382812 8.484375 23.933594 8.378906 C 24.109375 8.941406 24.300781 9.53125 24.5 10.136719 C 24.105469 10.742188 23.578125 11.546875 23.199219 12.164062 C 22.671875 12.242188 21.972656 12.355469 21.453125 12.464844 " fill-opacity="1" fill-rule="nonzero"/><path fill="#6168ff" d="M 18.746094 15.363281 C 18.59375 14.902344 18.449219 14.457031 18.316406 14.027344 C 18.550781 13.398438 18.871094 12.5625 19.125 11.941406 C 19.542969 11.726562 20.101562 11.449219 20.535156 11.269531 C 20.691406 11.773438 20.859375 12.296875 21.039062 12.839844 C 20.742188 13.441406 20.347656 14.246094 20.066406 14.855469 C 19.664062 14.996094 19.132812 15.1875 18.746094 15.363281 " fill-opacity="1" fill-rule="nonzero"/><path fill="#6168ff" d="M 17.003906 18.367188 C 16.886719 18.023438 16.78125 17.6875 16.679688 17.371094 C 16.796875 16.765625 16.960938 15.964844 17.097656 15.367188 C 17.367188 15.085938 17.738281 14.714844 18.039062 14.464844 C 18.167969 14.878906 18.308594 15.3125 18.457031 15.757812 C 18.265625 16.328125 18.015625 17.089844 17.839844 17.664062 C 17.578125 17.863281 17.234375 18.132812 17.003906 18.367188 " fill-opacity="1" fill-rule="nonzero"/><path fill="#6168ff" d="M 16.316406 21.339844 C 16.246094 21.132812 16.183594 20.933594 16.125 20.742188 C 16.113281 20.195312 16.101562 19.464844 16.113281 18.917969 C 16.226562 18.582031 16.386719 18.136719 16.542969 17.820312 C 16.636719 18.121094 16.738281 18.4375 16.847656 18.765625 C 16.773438 19.277344 16.671875 19.960938 16.617188 20.472656 C 16.511719 20.726562 16.378906 21.074219 16.316406 21.339844 " fill-opacity="1" fill-rule="nonzero"/><path fill="#6168ff" d="M 16.664062 23.832031 C 16.625 23.707031 16.570312 23.539062 16.53125 23.414062 L 16.496094 23.308594 L 16.269531 22.445312 C 16.214844 22.066406 16.148438 21.5625 16.136719 21.183594 C 16.1875 21.359375 16.246094 21.539062 16.308594 21.726562 C 16.355469 22.15625 16.421875 22.726562 16.496094 23.148438 C 16.546875 23.355469 16.597656 23.632812 16.664062 23.832031 " fill-opacity="1" fill-rule="nonzero"/><g clip-path="url(#9c9a90d29a)"><path fill="#6168ff" d="M 54.886719 9.238281 C 54.871094 9.203125 54.859375 9.167969 54.847656 9.132812 L 55.152344 9.570312 L 54.886719 9.238281 " fill-opacity="1" fill-rule="nonzero"/></g><path fill="#6168ff" d="M 52.953125 7.964844 C 52.875 7.757812 52.804688 7.554688 52.738281 7.359375 C 53.035156 7.496094 53.433594 7.683594 53.707031 7.863281 C 53.988281 8.15625 54.359375 8.550781 54.625 8.859375 C 54.644531 8.917969 54.664062 8.976562 54.6875 9.035156 C 54.484375 8.902344 54.210938 8.734375 53.988281 8.648438 C 53.675781 8.441406 53.183594 8.253906 52.953125 7.964844 " fill-opacity="1" fill-rule="nonzero"/><path fill="#6168ff" d="M 50.101562 7.265625 C 49.972656 6.90625 49.847656 6.554688 49.726562 6.210938 C 50.105469 6.199219 50.613281 6.183594 50.988281 6.214844 C 51.410156 6.5 51.972656 6.878906 52.386719 7.171875 C 52.460938 7.386719 52.539062 7.609375 52.621094 7.839844 C 52.3125 7.855469 51.902344 7.886719 51.601562 7.945312 C 51.152344 7.742188 50.550781 7.46875 50.101562 7.265625 " fill-opacity="1" fill-rule="nonzero"/><path fill="#6168ff" d="M 46.511719 7.136719 C 46.332031 6.644531 46.164062 6.164062 46 5.695312 C 46.441406 5.542969 47.03125 5.34375 47.484375 5.226562 C 48.019531 5.488281 48.738281 5.839844 49.269531 6.109375 C 49.394531 6.46875 49.527344 6.839844 49.664062 7.214844 C 49.277344 7.375 48.761719 7.59375 48.390625 7.785156 C 47.824219 7.589844 47.074219 7.328125 46.511719 7.136719 " fill-opacity="1" fill-rule="nonzero"/><path fill="#6168ff" d="M 37.808594 8.546875 C 37.566406 7.878906 37.335938 7.226562 37.113281 6.589844 C 37.628906 6.1875 38.3125 5.652344 38.84375 5.273438 C 39.53125 5.453125 40.453125 5.695312 41.140625 5.886719 C 41.339844 6.464844 41.550781 7.058594 41.769531 7.664062 C 41.285156 8.066406 40.640625 8.605469 40.167969 9.023438 C 39.460938 8.878906 38.515625 8.683594 37.808594 8.546875 " fill-opacity="1" fill-rule="nonzero"/><path fill="#6168ff" d="M 28.367188 12.070312 C 28.117188 11.375 27.875 10.695312 27.648438 10.035156 C 28.128906 9.453125 28.769531 8.679688 29.269531 8.113281 C 29.992188 8.148438 30.953125 8.195312 31.675781 8.25 C 31.910156 8.921875 32.152344 9.609375 32.40625 10.3125 C 31.898438 10.882812 31.21875 11.644531 30.726562 12.226562 C 30.019531 12.175781 29.074219 12.109375 28.367188 12.070312 " fill-opacity="1" fill-rule="nonzero"/><path fill="#6168ff" d="M 24.308594 14.316406 C 24.074219 13.667969 23.851562 13.039062 23.636719 12.421875 C 24.03125 11.8125 24.554688 11.003906 24.960938 10.40625 C 25.597656 10.375 26.441406 10.339844 27.074219 10.335938 C 27.300781 10.992188 27.539062 11.667969 27.789062 12.355469 C 27.355469 12.949219 26.777344 13.738281 26.355469 14.335938 C 25.742188 14.324219 24.921875 14.308594 24.308594 14.316406 " fill-opacity="1" fill-rule="nonzero"/><path fill="#6168ff" d="M 21 16.683594 C 20.796875 16.125 20.605469 15.574219 20.417969 15.039062 C 20.714844 14.433594 21.113281 13.632812 21.421875 13.035156 C 21.941406 12.941406 22.636719 12.824219 23.164062 12.757812 C 23.375 13.363281 23.59375 13.988281 23.824219 14.625 C 23.476562 15.203125 23.011719 15.976562 22.667969 16.558594 C 22.167969 16.589844 21.5 16.632812 21 16.683594 " fill-opacity="1" fill-rule="nonzero"/><path fill="#6168ff" d="M 17.066406 21.375 C 16.957031 21.070312 16.851562 20.769531 16.75 20.476562 C 16.824219 19.96875 16.929688 19.292969 17.023438 18.785156 C 17.261719 18.578125 17.585938 18.300781 17.851562 18.128906 C 17.992188 18.535156 18.144531 18.957031 18.296875 19.386719 C 18.144531 19.855469 17.9375 20.484375 17.792969 20.957031 C 17.566406 21.070312 17.269531 21.226562 17.066406 21.375 " fill-opacity="1" fill-rule="nonzero"/><path fill="#6168ff" d="M 16.652344 23.484375 C 16.601562 23.339844 16.550781 23.195312 16.5 23.054688 C 16.449219 22.632812 16.386719 22.074219 16.363281 21.652344 C 16.433594 21.398438 16.535156 21.0625 16.652344 20.828125 C 16.746094 21.101562 16.84375 21.382812 16.949219 21.667969 C 16.902344 22.046875 16.84375 22.554688 16.816406 22.933594 C 16.75 23.09375 16.671875 23.3125 16.652344 23.484375 " fill-opacity="1" fill-rule="nonzero"/><path fill="#6168ff" d="M 16.8125 24.257812 C 16.777344 24.160156 16.730469 24.027344 16.699219 23.929688 L 16.554688 23.378906 C 16.597656 23.496094 16.640625 23.621094 16.683594 23.746094 C 16.734375 23.9375 16.792969 24.199219 16.859375 24.382812 L 16.8125 24.257812 " fill-opacity="1" fill-rule="nonzero"/><g clip-path="url(#60fe40aa85)"><path fill="#6168ff" d="M 54.269531 9.175781 C 54.21875 9.042969 54.167969 8.914062 54.121094 8.785156 C 54.328125 8.878906 54.601562 9.011719 54.78125 9.148438 L 55.152344 9.570312 L 54.902344 9.460938 C 54.710938 9.375 54.410156 9.328125 54.269531 9.175781 " fill-opacity="1" fill-rule="nonzero"/></g><path fill="#6168ff" d="M 52.164062 9.058594 C 52.046875 8.757812 51.933594 8.457031 51.824219 8.164062 C 52.117188 8.109375 52.511719 8.042969 52.8125 8.03125 C 53.128906 8.222656 53.554688 8.476562 53.871094 8.671875 C 53.925781 8.824219 53.984375 8.976562 54.042969 9.132812 C 53.824219 9.199219 53.535156 9.296875 53.328125 9.394531 C 52.976562 9.296875 52.511719 9.164062 52.164062 9.058594 " fill-opacity="1" fill-rule="nonzero"/><path fill="#6168ff" d="M 49.195312 9.410156 C 49.023438 8.957031 48.851562 8.507812 48.6875 8.070312 C 49.054688 7.882812 49.550781 7.632812 49.933594 7.480469 C 50.390625 7.671875 50.996094 7.929688 51.453125 8.121094 C 51.570312 8.433594 51.691406 8.753906 51.816406 9.078125 C 51.507812 9.28125 51.101562 9.5625 50.808594 9.789062 C 50.324219 9.679688 49.679688 9.527344 49.195312 9.410156 " fill-opacity="1" fill-rule="nonzero"/><path fill="#6168ff" d="M 45.53125 10.195312 C 45.308594 9.617188 45.089844 9.046875 44.882812 8.484375 C 45.308594 8.175781 45.878906 7.765625 46.324219 7.480469 C 46.890625 7.664062 47.648438 7.910156 48.21875 8.09375 C 48.390625 8.554688 48.566406 9.019531 48.746094 9.488281 C 48.367188 9.816406 47.867188 10.253906 47.503906 10.59375 C 46.910156 10.476562 46.121094 10.316406 45.53125 10.195312 " fill-opacity="1" fill-rule="nonzero"/><path fill="#6168ff" d="M 41.328125 11.375 C 41.070312 10.707031 40.816406 10.042969 40.574219 9.390625 C 41.042969 8.972656 41.667969 8.417969 42.152344 8.019531 C 42.808594 8.1875 43.679688 8.410156 44.335938 8.578125 C 44.550781 9.152344 44.769531 9.738281 45 10.328125 C 44.566406 10.757812 43.996094 11.328125 43.574219 11.769531 C 42.902344 11.652344 42 11.496094 41.328125 11.375 " fill-opacity="1" fill-rule="nonzero"/><path fill="#6168ff" d="M 31.984375 14.785156 C 31.699219 14.042969 31.421875 13.3125 31.15625 12.589844 C 31.65625 12.011719 32.324219 11.242188 32.835938 10.675781 C 33.578125 10.765625 34.566406 10.882812 35.308594 10.984375 C 35.570312 11.695312 35.847656 12.417969 36.128906 13.148438 C 35.636719 13.71875 34.980469 14.476562 34.496094 15.050781 C 33.742188 14.96875 32.738281 14.859375 31.984375 14.785156 " fill-opacity="1" fill-rule="nonzero"/><path fill="#6168ff" d="M 23.71875 18.738281 C 23.472656 18.097656 23.234375 17.46875 23 16.847656 C 23.351562 16.265625 23.816406 15.496094 24.175781 14.921875 C 24.785156 14.925781 25.597656 14.933594 26.207031 14.957031 C 26.460938 15.640625 26.722656 16.335938 26.996094 17.035156 C 26.601562 17.597656 26.078125 18.34375 25.6875 18.910156 C 25.097656 18.851562 24.308594 18.78125 23.71875 18.738281 " fill-opacity="1" fill-rule="nonzero"/><path fill="#6168ff" d="M 20.640625 20.597656 C 20.433594 20.066406 20.234375 19.539062 20.039062 19.019531 C 20.296875 18.484375 20.644531 17.769531 20.910156 17.238281 C 21.40625 17.199219 22.066406 17.152344 22.5625 17.136719 C 22.789062 17.746094 23.023438 18.367188 23.265625 18.992188 C 22.949219 19.5 22.53125 20.179688 22.21875 20.6875 C 21.746094 20.65625 21.113281 20.613281 20.640625 20.597656 " fill-opacity="1" fill-rule="nonzero"/><path fill="#6168ff" d="M 18.417969 22.277344 C 18.261719 21.878906 18.113281 21.484375 17.96875 21.097656 C 18.125 20.632812 18.339844 20.011719 18.503906 19.546875 C 18.863281 19.464844 19.347656 19.359375 19.710938 19.304688 C 19.898438 19.804688 20.09375 20.316406 20.292969 20.832031 C 20.066406 21.265625 19.765625 21.839844 19.535156 22.269531 C 19.199219 22.265625 18.753906 22.257812 18.417969 22.277344 " fill-opacity="1" fill-rule="nonzero"/><path fill="#6168ff" d="M 17.167969 23.695312 C 17.074219 23.453125 16.984375 23.21875 16.898438 22.984375 C 16.941406 22.613281 17.007812 22.117188 17.066406 21.746094 C 17.269531 21.617188 17.546875 21.453125 17.765625 21.359375 C 17.902344 21.730469 18.046875 22.105469 18.191406 22.480469 C 18.0625 22.8125 17.890625 23.253906 17.765625 23.585938 C 17.582031 23.609375 17.339844 23.640625 17.167969 23.695312 " fill-opacity="1" fill-rule="nonzero"/><path fill="#6168ff" d="M 16.988281 24.730469 L 16.933594 24.585938 L 16.886719 24.457031 C 16.824219 24.238281 16.742188 23.949219 16.703125 23.726562 C 16.726562 23.570312 16.765625 23.355469 16.835938 23.214844 C 16.914062 23.425781 16.996094 23.640625 17.082031 23.859375 C 17.058594 24.070312 17.027344 24.351562 17.019531 24.5625 C 17 24.613281 16.976562 24.683594 16.988281 24.730469 " fill-opacity="1" fill-rule="nonzero"/><g clip-path="url(#cd9862ed3b)"><path fill="#6168ff" d="M 55.039062 9.632812 C 55.023438 9.59375 55.007812 9.554688 54.992188 9.515625 L 55.152344 9.570312 L 55.039062 9.632812 " fill-opacity="1" fill-rule="nonzero"/></g><path fill="#6168ff" d="M 53.820312 10.210938 C 53.730469 9.988281 53.640625 9.769531 53.554688 9.550781 C 53.746094 9.453125 54.011719 9.324219 54.21875 9.265625 C 54.414062 9.335938 54.667969 9.429688 54.859375 9.492188 C 54.886719 9.558594 54.914062 9.621094 54.9375 9.683594 C 54.820312 9.8125 54.671875 9.984375 54.566406 10.121094 C 54.34375 10.160156 54.042969 10.199219 53.820312 10.210938 " fill-opacity="1" fill-rule="nonzero"/><path fill="#6168ff" d="M 48.578125 12.484375 C 48.363281 11.960938 48.152344 11.433594 47.945312 10.914062 C 48.300781 10.570312 48.777344 10.113281 49.148438 9.789062 C 49.632812 9.894531 50.28125 10.03125 50.769531 10.125 C 50.925781 10.527344 51.089844 10.933594 51.257812 11.339844 C 50.957031 11.707031 50.5625 12.207031 50.277344 12.585938 C 49.765625 12.5625 49.085938 12.523438 48.578125 12.484375 " fill-opacity="1" fill-rule="nonzero"/><path fill="#6168ff" d="M 44.859375 14.050781 C 44.597656 13.414062 44.34375 12.777344 44.089844 12.144531 C 44.503906 11.703125 45.058594 11.117188 45.484375 10.6875 C 46.078125 10.800781 46.871094 10.949219 47.464844 11.054688 C 47.679688 11.59375 47.898438 12.136719 48.121094 12.679688 C 47.753906 13.140625 47.269531 13.761719 46.910156 14.230469 C 46.296875 14.179688 45.476562 14.113281 44.859375 14.050781 " fill-opacity="1" fill-rule="nonzero"/><path fill="#6168ff" d="M 27.027344 21.351562 C 26.742188 20.660156 26.464844 19.96875 26.195312 19.28125 C 26.589844 18.722656 27.121094 17.972656 27.523438 17.417969 C 28.207031 17.488281 29.121094 17.585938 29.804688 17.664062 C 30.09375 18.398438 30.390625 19.136719 30.695312 19.875 C 30.261719 20.425781 29.6875 21.160156 29.253906 21.710938 C 28.585938 21.601562 27.695312 21.457031 27.027344 21.351562 " fill-opacity="1" fill-rule="nonzero"/><path fill="#6168ff" d="M 20.433594 23.945312 C 20.238281 23.464844 20.046875 22.988281 19.859375 22.511719 C 20.097656 22.085938 20.414062 21.519531 20.648438 21.09375 C 21.121094 21.125 21.753906 21.171875 22.226562 21.21875 C 22.457031 21.800781 22.691406 22.386719 22.933594 22.972656 C 22.636719 23.371094 22.242188 23.902344 21.9375 24.292969 C 21.488281 24.1875 20.886719 24.042969 20.433594 23.945312 " fill-opacity="1" fill-rule="nonzero"/><path fill="#6168ff" d="M 18.363281 24.722656 C 18.226562 24.394531 18.09375 24.066406 17.964844 23.738281 C 18.105469 23.414062 18.296875 22.980469 18.4375 22.65625 C 18.773438 22.660156 19.21875 22.671875 19.554688 22.691406 C 19.734375 23.152344 19.917969 23.609375 20.109375 24.070312 C 19.898438 24.359375 19.613281 24.746094 19.390625 25.027344 C 19.082031 24.933594 18.671875 24.8125 18.363281 24.722656 " fill-opacity="1" fill-rule="nonzero"/><path fill="#6168ff" d="M 17.273438 25.09375 C 17.210938 24.933594 17.144531 24.777344 17.082031 24.621094 C 17.113281 24.414062 17.15625 24.140625 17.199219 23.9375 C 17.371094 23.910156 17.609375 23.878906 17.789062 23.878906 C 17.90625 24.183594 18.03125 24.492188 18.15625 24.796875 C 18.042969 24.960938 17.890625 25.183594 17.761719 25.335938 C 17.613281 25.265625 17.386719 25.210938 17.273438 25.09375 " fill-opacity="1" fill-rule="nonzero"/><path fill="#6168ff" d="M 17.167969 25.171875 C 17.085938 24.980469 17.085938 24.980469 17.050781 24.882812 L 17.019531 24.804688 C 17.023438 24.777344 17.03125 24.742188 17.035156 24.714844 L 17.050781 24.707031 C 17.101562 24.839844 17.15625 24.972656 17.210938 25.105469 C 17.199219 25.132812 17.199219 25.179688 17.175781 25.191406 L 17.167969 25.171875 " fill-opacity="1" fill-rule="nonzero"/><g clip-path="url(#1755d5e83e)"><path fill="#6168ff" d="M 54.835938 10.5625 C 54.777344 10.429688 54.722656 10.296875 54.664062 10.164062 C 54.761719 10.019531 54.886719 9.832031 54.996094 9.699219 L 55.152344 9.570312 L 55.132812 10.015625 C 55.058594 10.1875 54.953125 10.417969 54.835938 10.5625 " fill-opacity="1" fill-rule="nonzero"/></g><path fill="#6168ff" d="M 53.46875 12.238281 C 53.335938 11.9375 53.207031 11.632812 53.078125 11.324219 C 53.273438 11.054688 53.535156 10.691406 53.742188 10.425781 C 53.976562 10.398438 54.289062 10.359375 54.515625 10.296875 C 54.578125 10.453125 54.648438 10.609375 54.714844 10.765625 C 54.601562 11.082031 54.449219 11.503906 54.335938 11.820312 C 54.082031 11.957031 53.738281 12.136719 53.46875 12.238281 " fill-opacity="1" fill-rule="nonzero"/><path fill="#6168ff" d="M 51.148438 14.171875 C 50.953125 13.71875 50.757812 13.261719 50.5625 12.804688 C 50.84375 12.421875 51.21875 11.910156 51.511719 11.535156 C 51.898438 11.535156 52.410156 11.53125 52.792969 11.503906 C 52.933594 11.832031 53.070312 12.160156 53.210938 12.484375 C 53 12.90625 52.722656 13.46875 52.515625 13.890625 C 52.109375 13.984375 51.5625 14.105469 51.148438 14.171875 " fill-opacity="1" fill-rule="nonzero"/><path fill="#6168ff" d="M 30.597656 24.242188 C 30.292969 23.53125 29.984375 22.816406 29.683594 22.097656 C 30.121094 21.546875 30.703125 20.8125 31.136719 20.265625 C 31.875 20.363281 32.859375 20.496094 33.597656 20.589844 C 33.910156 21.335938 34.230469 22.082031 34.550781 22.824219 C 34.089844 23.375 33.476562 24.113281 33.011719 24.660156 C 32.289062 24.539062 31.320312 24.375 30.597656 24.242188 " fill-opacity="1" fill-rule="nonzero"/><path fill="#6168ff" d="M 26.472656 25.460938 C 26.195312 24.820312 25.921875 24.175781 25.648438 23.53125 C 26.027344 23.050781 26.527344 22.410156 26.902344 21.925781 C 27.566406 22.039062 28.453125 22.191406 29.117188 22.308594 C 29.414062 23.019531 29.71875 23.726562 30.023438 24.429688 C 29.609375 24.902344 29.058594 25.53125 28.636719 25.996094 C 27.988281 25.835938 27.121094 25.625 26.472656 25.460938 " fill-opacity="1" fill-rule="nonzero"/><path fill="#6168ff" d="M 22.9375 26.210938 C 22.707031 25.675781 22.476562 25.136719 22.25 24.597656 C 22.558594 24.210938 22.96875 23.691406 23.269531 23.296875 C 23.835938 23.414062 24.589844 23.570312 25.15625 23.691406 C 25.425781 24.328125 25.695312 24.960938 25.964844 25.589844 C 25.609375 25.960938 25.136719 26.453125 24.769531 26.816406 C 24.21875 26.632812 23.484375 26.394531 22.9375 26.210938 " fill-opacity="1" fill-rule="nonzero"/><path fill="#6168ff" d="M 20.132812 26.46875 C 19.960938 26.070312 19.789062 25.667969 19.621094 25.265625 C 19.847656 24.988281 20.148438 24.613281 20.367188 24.328125 C 20.8125 24.441406 21.40625 24.59375 21.851562 24.710938 C 22.074219 25.234375 22.296875 25.757812 22.519531 26.273438 C 22.234375 26.527344 21.851562 26.867188 21.550781 27.105469 C 21.125 26.914062 20.460938 26.800781 20.132812 26.46875 " fill-opacity="1" fill-rule="nonzero"/><path fill="#6168ff" d="M 18.199219 26.214844 C 18.097656 25.976562 17.992188 25.734375 17.890625 25.492188 C 18.027344 25.339844 18.203125 25.136719 18.324219 24.976562 C 18.628906 25.078125 19.03125 25.214844 19.335938 25.320312 C 19.496094 25.703125 19.660156 26.085938 19.824219 26.464844 C 19.621094 26.59375 19.34375 26.757812 19.125 26.855469 C 18.84375 26.664062 18.410156 26.480469 18.199219 26.214844 " fill-opacity="1" fill-rule="nonzero"/><path fill="#6168ff" d="M 17.3125 25.515625 L 17.289062 25.46875 C 17.265625 25.40625 17.226562 25.320312 17.199219 25.253906 C 17.226562 25.242188 17.257812 25.21875 17.273438 25.195312 C 17.410156 25.285156 17.59375 25.402344 17.738281 25.488281 C 17.828125 25.707031 17.921875 25.925781 18.015625 26.144531 C 17.898438 26.132812 17.738281 26.109375 17.636719 26.050781 C 17.535156 25.890625 17.390625 25.6875 17.3125 25.515625 " fill-opacity="1" fill-rule="nonzero"/><g clip-path="url(#5393cd27e0)"><path fill="#6168ff" d="M 55.210938 10.027344 C 55.191406 9.992188 55.175781 9.953125 55.160156 9.917969 L 55.152344 9.570312 L 55.210938 10.027344 " fill-opacity="1" fill-rule="nonzero"/></g><g clip-path="url(#d07326a829)"><path fill="#6168ff" d="M 54.796875 12.457031 C 54.699219 12.253906 54.605469 12.042969 54.507812 11.828125 C 54.609375 11.503906 54.738281 11.074219 54.835938 10.75 C 54.941406 10.582031 55.078125 10.34375 55.136719 10.152344 C 55.164062 10.214844 55.191406 10.273438 55.21875 10.332031 C 55.222656 10.703125 55.21875 11.199219 55.207031 11.570312 C 55.097656 11.84375 54.949219 12.207031 54.796875 12.457031 " fill-opacity="1" fill-rule="nonzero"/></g><g clip-path="url(#6cfb1ed199)"><path fill="#6168ff" d="M 19.816406 28.074219 C 19.675781 27.765625 19.53125 27.453125 19.390625 27.136719 C 19.617188 27.035156 19.921875 26.894531 20.132812 26.761719 C 20.554688 26.96875 21.121094 27.242188 21.546875 27.441406 C 21.746094 27.886719 21.941406 28.328125 22.140625 28.757812 C 21.851562 28.851562 21.460938 28.972656 21.15625 29.027344 C 20.753906 28.746094 20.128906 28.457031 19.816406 28.074219 " fill-opacity="1" fill-rule="nonzero"/></g><path fill="#6168ff" d="M 17.972656 26.699219 C 17.902344 26.550781 17.835938 26.402344 17.769531 26.25 C 17.890625 26.300781 18.066406 26.359375 18.199219 26.363281 C 18.472656 26.570312 18.839844 26.851562 19.117188 27.050781 C 19.25 27.347656 19.382812 27.640625 19.515625 27.925781 C 19.296875 27.875 19.003906 27.796875 18.804688 27.699219 C 18.546875 27.402344 18.171875 27.035156 17.972656 26.699219 " fill-opacity="1" fill-rule="nonzero"/><path fill="#6168ff" d="M 17.433594 25.785156 C 17.40625 25.730469 17.371094 25.652344 17.347656 25.59375 C 17.429688 25.742188 17.53125 25.945312 17.628906 26.089844 C 17.6875 26.21875 17.746094 26.34375 17.800781 26.46875 L 17.546875 26.035156 C 17.511719 25.960938 17.464844 25.859375 17.433594 25.785156 " fill-opacity="1" fill-rule="nonzero"/><g clip-path="url(#a8700708ed)"><path fill="#6168ff" d="M 55.429688 11.847656 C 55.375 11.742188 55.320312 11.628906 55.265625 11.507812 L 55.261719 11.503906 C 55.261719 11.125 55.253906 10.621094 55.234375 10.242188 L 55.152344 9.570312 L 55.367188 10.515625 C 55.402344 10.914062 55.441406 11.449219 55.429688 11.847656 " fill-opacity="1" fill-rule="nonzero"/></g><g clip-path="url(#f6e0401ddf)"><path fill="#6168ff" d="M 55.371094 10.351562 C 55.355469 10.328125 55.34375 10.300781 55.328125 10.273438 L 55.152344 9.570312 L 55.371094 10.351562 " fill-opacity="1" fill-rule="nonzero"/><path fill="#6168ff" d="M 55.480469 10.527344 C 55.472656 10.519531 55.464844 10.507812 55.457031 10.492188 L 55.152344 9.570312 L 55.480469 10.527344 " fill-opacity="1" fill-rule="nonzero"/></g><g fill="#0b132b" fill-opacity="1"><g transform="translate(38.918263, 23.656125)"><g><path d="M 3.140625 0.0625 C 2.609375 0.0625 2.097656 -0.0195312 1.609375 -0.1875 C 1.117188 -0.363281 0.742188 -0.59375 0.484375 -0.875 L 0.78125 -1.453125 C 1.039062 -1.191406 1.382812 -0.976562 1.8125 -0.8125 C 2.238281 -0.65625 2.679688 -0.578125 3.140625 -0.578125 C 3.773438 -0.578125 4.253906 -0.691406 4.578125 -0.921875 C 4.898438 -1.160156 5.0625 -1.46875 5.0625 -1.84375 C 5.0625 -2.132812 4.972656 -2.363281 4.796875 -2.53125 C 4.617188 -2.707031 4.40625 -2.835938 4.15625 -2.921875 C 3.90625 -3.015625 3.554688 -3.117188 3.109375 -3.234375 C 2.566406 -3.367188 2.132812 -3.5 1.8125 -3.625 C 1.5 -3.75 1.226562 -3.941406 1 -4.203125 C 0.769531 -4.460938 0.65625 -4.8125 0.65625 -5.25 C 0.65625 -5.613281 0.75 -5.941406 0.9375 -6.234375 C 1.125 -6.535156 1.414062 -6.773438 1.8125 -6.953125 C 2.207031 -7.128906 2.703125 -7.21875 3.296875 -7.21875 C 3.703125 -7.21875 4.097656 -7.160156 4.484375 -7.046875 C 4.878906 -6.929688 5.222656 -6.773438 5.515625 -6.578125 L 5.25 -5.984375 C 4.945312 -6.179688 4.625 -6.328125 4.28125 -6.421875 C 3.945312 -6.523438 3.617188 -6.578125 3.296875 -6.578125 C 2.660156 -6.578125 2.1875 -6.453125 1.875 -6.203125 C 1.5625 -5.960938 1.40625 -5.648438 1.40625 -5.265625 C 1.40625 -4.984375 1.488281 -4.753906 1.65625 -4.578125 C 1.832031 -4.410156 2.050781 -4.28125 2.3125 -4.1875 C 2.570312 -4.09375 2.925781 -3.992188 3.375 -3.890625 C 3.894531 -3.753906 4.316406 -3.625 4.640625 -3.5 C 4.960938 -3.375 5.234375 -3.179688 5.453125 -2.921875 C 5.679688 -2.671875 5.796875 -2.328125 5.796875 -1.890625 C 5.796875 -1.523438 5.695312 -1.191406 5.5 -0.890625 C 5.3125 -0.597656 5.015625 -0.363281 4.609375 -0.1875 C 4.210938 -0.0195312 3.722656 0.0625 3.140625 0.0625 Z M 3.140625 0.0625 "/></g></g></g><g fill="#0b132b" fill-opacity="1"><g transform="translate(44.991051, 23.656125)"><g><path d="M 2.890625 -5.421875 C 3.585938 -5.421875 4.125 -5.242188 4.5 -4.890625 C 4.875 -4.535156 5.0625 -4.015625 5.0625 -3.328125 L 5.0625 0 L 4.375 0 L 4.375 -0.84375 C 4.207031 -0.5625 3.960938 -0.34375 3.640625 -0.1875 C 3.328125 -0.03125 2.957031 0.046875 2.53125 0.046875 C 1.925781 0.046875 1.445312 -0.09375 1.09375 -0.375 C 0.738281 -0.664062 0.5625 -1.046875 0.5625 -1.515625 C 0.5625 -1.972656 0.722656 -2.335938 1.046875 -2.609375 C 1.378906 -2.890625 1.910156 -3.03125 2.640625 -3.03125 L 4.34375 -3.03125 L 4.34375 -3.359375 C 4.34375 -3.828125 4.210938 -4.179688 3.953125 -4.421875 C 3.691406 -4.660156 3.316406 -4.78125 2.828125 -4.78125 C 2.484375 -4.78125 2.15625 -4.722656 1.84375 -4.609375 C 1.53125 -4.492188 1.257812 -4.34375 1.03125 -4.15625 L 0.703125 -4.6875 C 0.972656 -4.914062 1.300781 -5.09375 1.6875 -5.21875 C 2.070312 -5.351562 2.472656 -5.421875 2.890625 -5.421875 Z M 2.640625 -0.515625 C 3.046875 -0.515625 3.394531 -0.609375 3.6875 -0.796875 C 3.976562 -0.984375 4.195312 -1.253906 4.34375 -1.609375 L 4.34375 -2.5 L 2.65625 -2.5 C 1.738281 -2.5 1.28125 -2.175781 1.28125 -1.53125 C 1.28125 -1.21875 1.398438 -0.96875 1.640625 -0.78125 C 1.878906 -0.601562 2.210938 -0.515625 2.640625 -0.515625 Z M 2.640625 -0.515625 "/></g></g></g><g fill="#0b132b" fill-opacity="1"><g transform="translate(50.808673, 23.656125)"><g><path d="M 2.796875 -7.015625 C 2.472656 -7.015625 2.234375 -6.929688 2.078125 -6.765625 C 1.921875 -6.597656 1.84375 -6.347656 1.84375 -6.015625 L 1.84375 -5.375 L 3.5 -5.375 L 3.5 -4.765625 L 1.859375 -4.765625 L 1.859375 0 L 1.140625 0 L 1.140625 -4.765625 L 0.171875 -4.765625 L 0.171875 -5.375 L 1.140625 -5.375 L 1.140625 -6.046875 C 1.140625 -6.535156 1.28125 -6.921875 1.5625 -7.203125 C 1.84375 -7.492188 2.242188 -7.640625 2.765625 -7.640625 C 2.960938 -7.640625 3.15625 -7.609375 3.34375 -7.546875 C 3.539062 -7.484375 3.703125 -7.398438 3.828125 -7.296875 L 3.59375 -6.75 C 3.375 -6.925781 3.109375 -7.015625 2.796875 -7.015625 Z M 2.796875 -7.015625 "/></g></g></g><g fill="#0b132b" fill-opacity="1"><g transform="translate(54.064443, 23.656125)"><g><path d="M 5.6875 -2.46875 L 1.203125 -2.46875 C 1.234375 -1.90625 1.441406 -1.453125 1.828125 -1.109375 C 2.222656 -0.765625 2.71875 -0.59375 3.3125 -0.59375 C 3.644531 -0.59375 3.953125 -0.648438 4.234375 -0.765625 C 4.515625 -0.890625 4.753906 -1.066406 4.953125 -1.296875 L 5.359375 -0.828125 C 5.117188 -0.546875 4.820312 -0.328125 4.46875 -0.171875 C 4.113281 -0.0234375 3.722656 0.046875 3.296875 0.046875 C 2.742188 0.046875 2.253906 -0.0664062 1.828125 -0.296875 C 1.398438 -0.535156 1.066406 -0.863281 0.828125 -1.28125 C 0.585938 -1.695312 0.46875 -2.164062 0.46875 -2.6875 C 0.46875 -3.207031 0.582031 -3.675781 0.8125 -4.09375 C 1.039062 -4.507812 1.351562 -4.832031 1.75 -5.0625 C 2.144531 -5.300781 2.59375 -5.421875 3.09375 -5.421875 C 3.59375 -5.421875 4.039062 -5.300781 4.4375 -5.0625 C 4.832031 -4.832031 5.140625 -4.507812 5.359375 -4.09375 C 5.585938 -3.6875 5.703125 -3.21875 5.703125 -2.6875 Z M 3.09375 -4.796875 C 2.570312 -4.796875 2.132812 -4.628906 1.78125 -4.296875 C 1.4375 -3.960938 1.242188 -3.53125 1.203125 -3 L 5 -3 C 4.957031 -3.53125 4.757812 -3.960938 4.40625 -4.296875 C 4.0625 -4.628906 3.625 -4.796875 3.09375 -4.796875 Z M 3.09375 -4.796875 "/></g></g></g><g fill="#6168ff" fill-opacity="1"><g transform="translate(60.034694, 23.656125)"><g><path d="M 7.140625 -7.15625 L 7.140625 0 L 6.515625 0 L 1.921875 -5.796875 L 1.921875 0 L 1.171875 0 L 1.171875 -7.15625 L 1.78125 -7.15625 L 6.390625 -1.34375 L 6.390625 -7.15625 Z M 7.140625 -7.15625 "/></g></g></g><g fill="#6168ff" fill-opacity="1"><g transform="translate(68.128391, 23.656125)"><g><path d="M 6.21875 -0.65625 L 6.21875 0 L 1.171875 0 L 1.171875 -7.15625 L 6.0625 -7.15625 L 6.0625 -6.5 L 1.921875 -6.5 L 1.921875 -3.953125 L 5.625 -3.953125 L 5.625 -3.3125 L 1.921875 -3.3125 L 1.921875 -0.65625 Z M 6.21875 -0.65625 "/></g></g></g><g fill="#6168ff" fill-opacity="1"><g transform="translate(74.752334, 23.656125)"><g><path d="M 2.5625 -6.5 L 0.046875 -6.5 L 0.046875 -7.15625 L 5.828125 -7.15625 L 5.828125 -6.5 L 3.3125 -6.5 L 3.3125 0 L 2.5625 0 Z M 2.5625 -6.5 "/></g></g></g><g fill="#5386e4" fill-opacity="1"><g transform="translate(80.413978, 23.656125)"><g/></g></g><g fill="#ffc043" fill-opacity="1"><g transform="translate(82.886256, 23.656125)"><g><path d="M 3.140625 0.0625 C 2.609375 0.0625 2.097656 -0.0195312 1.609375 -0.1875 C 1.117188 -0.363281 0.742188 -0.59375 0.484375 -0.875 L 0.78125 -1.453125 C 1.039062 -1.191406 1.382812 -0.976562 1.8125 -0.8125 C 2.238281 -0.65625 2.679688 -0.578125 3.140625 -0.578125 C 3.773438 -0.578125 4.253906 -0.691406 4.578125 -0.921875 C 4.898438 -1.160156 5.0625 -1.46875 5.0625 -1.84375 C 5.0625 -2.132812 4.972656 -2.363281 4.796875 -2.53125 C 4.617188 -2.707031 4.40625 -2.835938 4.15625 -2.921875 C 3.90625 -3.015625 3.554688 -3.117188 3.109375 -3.234375 C 2.566406 -3.367188 2.132812 -3.5 1.8125 -3.625 C 1.5 -3.75 1.226562 -3.941406 1 -4.203125 C 0.769531 -4.460938 0.65625 -4.8125 0.65625 -5.25 C 0.65625 -5.613281 0.75 -5.941406 0.9375 -6.234375 C 1.125 -6.535156 1.414062 -6.773438 1.8125 -6.953125 C 2.207031 -7.128906 2.703125 -7.21875 3.296875 -7.21875 C 3.703125 -7.21875 4.097656 -7.160156 4.484375 -7.046875 C 4.878906 -6.929688 5.222656 -6.773438 5.515625 -6.578125 L 5.25 -5.984375 C 4.945312 -6.179688 4.625 -6.328125 4.28125 -6.421875 C 3.945312 -6.523438 3.617188 -6.578125 3.296875 -6.578125 C 2.660156 -6.578125 2.1875 -6.453125 1.875 -6.203125 C 1.5625 -5.960938 1.40625 -5.648438 1.40625 -5.265625 C 1.40625 -4.984375 1.488281 -4.753906 1.65625 -4.578125 C 1.832031 -4.410156 2.050781 -4.28125 2.3125 -4.1875 C 2.570312 -4.09375 2.925781 -3.992188 3.375 -3.890625 C 3.894531 -3.753906 4.316406 -3.625 4.640625 -3.5 C 4.960938 -3.375 5.234375 -3.179688 5.453125 -2.921875 C 5.679688 -2.671875 5.796875 -2.328125 5.796875 -1.890625 C 5.796875 -1.523438 5.695312 -1.191406 5.5 -0.890625 C 5.3125 -0.597656 5.015625 -0.363281 4.609375 -0.1875 C 4.210938 -0.0195312 3.722656 0.0625 3.140625 0.0625 Z M 3.140625 0.0625 "/></g></g></g><g fill="#ffc043" fill-opacity="1"><g transform="translate(88.959044, 23.656125)"><g><path d="M 3.203125 0.046875 C 2.691406 0.046875 2.226562 -0.0664062 1.8125 -0.296875 C 1.394531 -0.535156 1.066406 -0.863281 0.828125 -1.28125 C 0.585938 -1.695312 0.46875 -2.164062 0.46875 -2.6875 C 0.46875 -3.207031 0.585938 -3.675781 0.828125 -4.09375 C 1.066406 -4.507812 1.394531 -4.832031 1.8125 -5.0625 C 2.226562 -5.300781 2.691406 -5.421875 3.203125 -5.421875 C 3.722656 -5.421875 4.191406 -5.300781 4.609375 -5.0625 C 5.023438 -4.832031 5.347656 -4.507812 5.578125 -4.09375 C 5.816406 -3.675781 5.9375 -3.207031 5.9375 -2.6875 C 5.9375 -2.164062 5.816406 -1.695312 5.578125 -1.28125 C 5.347656 -0.863281 5.023438 -0.535156 4.609375 -0.296875 C 4.191406 -0.0664062 3.722656 0.046875 3.203125 0.046875 Z M 3.203125 -0.59375 C 3.585938 -0.59375 3.929688 -0.675781 4.234375 -0.84375 C 4.535156 -1.019531 4.769531 -1.269531 4.9375 -1.59375 C 5.113281 -1.914062 5.203125 -2.28125 5.203125 -2.6875 C 5.203125 -3.09375 5.113281 -3.457031 4.9375 -3.78125 C 4.769531 -4.101562 4.535156 -4.347656 4.234375 -4.515625 C 3.929688 -4.691406 3.585938 -4.78125 3.203125 -4.78125 C 2.828125 -4.78125 2.488281 -4.691406 2.1875 -4.515625 C 1.882812 -4.347656 1.644531 -4.101562 1.46875 -3.78125 C 1.289062 -3.457031 1.203125 -3.09375 1.203125 -2.6875 C 1.203125 -2.28125 1.289062 -1.914062 1.46875 -1.59375 C 1.644531 -1.269531 1.882812 -1.019531 2.1875 -0.84375 C 2.488281 -0.675781 2.828125 -0.59375 3.203125 -0.59375 Z M 3.203125 -0.59375 "/></g></g></g><g fill="#ffc043" fill-opacity="1"><g transform="translate(95.15431, 23.656125)"><g><path d="M 1.015625 -7.578125 L 1.734375 -7.578125 L 1.734375 0 L 1.015625 0 Z M 1.015625 -7.578125 "/></g></g></g><g fill="#ffc043" fill-opacity="1"><g transform="translate(97.695626, 23.656125)"><g><path d="M 5.859375 -5.375 L 5.859375 0 L 5.15625 0 L 5.15625 -0.984375 C 4.96875 -0.648438 4.707031 -0.394531 4.375 -0.21875 C 4.039062 -0.0390625 3.660156 0.046875 3.234375 0.046875 C 2.523438 0.046875 1.96875 -0.144531 1.5625 -0.53125 C 1.15625 -0.925781 0.953125 -1.503906 0.953125 -2.265625 L 0.953125 -5.375 L 1.6875 -5.375 L 1.6875 -2.328125 C 1.6875 -1.765625 1.828125 -1.335938 2.109375 -1.046875 C 2.390625 -0.753906 2.785156 -0.609375 3.296875 -0.609375 C 3.867188 -0.609375 4.316406 -0.78125 4.640625 -1.125 C 4.960938 -1.46875 5.125 -1.945312 5.125 -2.5625 L 5.125 -5.375 Z M 5.859375 -5.375 "/></g></g></g><g fill="#ffc043" fill-opacity="1"><g transform="translate(104.360402, 23.656125)"><g><path d="M 3.84375 -0.328125 C 3.707031 -0.203125 3.535156 -0.109375 3.328125 -0.046875 C 3.128906 0.015625 2.921875 0.046875 2.703125 0.046875 C 2.203125 0.046875 1.816406 -0.0859375 1.546875 -0.359375 C 1.273438 -0.628906 1.140625 -1.015625 1.140625 -1.515625 L 1.140625 -4.765625 L 0.171875 -4.765625 L 0.171875 -5.375 L 1.140625 -5.375 L 1.140625 -6.546875 L 1.859375 -6.546875 L 1.859375 -5.375 L 3.5 -5.375 L 3.5 -4.765625 L 1.859375 -4.765625 L 1.859375 -1.546875 C 1.859375 -1.234375 1.9375 -0.992188 2.09375 -0.828125 C 2.257812 -0.660156 2.492188 -0.578125 2.796875 -0.578125 C 2.941406 -0.578125 3.082031 -0.597656 3.21875 -0.640625 C 3.363281 -0.691406 3.488281 -0.757812 3.59375 -0.84375 Z M 3.84375 -0.328125 "/></g></g></g><g fill="#ffc043" fill-opacity="1"><g transform="translate(108.300014, 23.656125)"><g><path d="M 1.015625 -5.375 L 1.734375 -5.375 L 1.734375 0 L 1.015625 0 Z M 1.375 -6.546875 C 1.21875 -6.546875 1.085938 -6.597656 0.984375 -6.703125 C 0.890625 -6.804688 0.84375 -6.929688 0.84375 -7.078125 C 0.84375 -7.210938 0.890625 -7.328125 0.984375 -7.421875 C 1.085938 -7.523438 1.21875 -7.578125 1.375 -7.578125 C 1.519531 -7.578125 1.644531 -7.523438 1.75 -7.421875 C 1.851562 -7.328125 1.90625 -7.210938 1.90625 -7.078125 C 1.90625 -6.929688 1.851562 -6.804688 1.75 -6.703125 C 1.644531 -6.597656 1.519531 -6.546875 1.375 -6.546875 Z M 1.375 -6.546875 "/></g></g></g><g fill="#ffc043" fill-opacity="1"><g transform="translate(110.841328, 23.656125)"><g><path d="M 3.203125 0.046875 C 2.691406 0.046875 2.226562 -0.0664062 1.8125 -0.296875 C 1.394531 -0.535156 1.066406 -0.863281 0.828125 -1.28125 C 0.585938 -1.695312 0.46875 -2.164062 0.46875 -2.6875 C 0.46875 -3.207031 0.585938 -3.675781 0.828125 -4.09375 C 1.066406 -4.507812 1.394531 -4.832031 1.8125 -5.0625 C 2.226562 -5.300781 2.691406 -5.421875 3.203125 -5.421875 C 3.722656 -5.421875 4.191406 -5.300781 4.609375 -5.0625 C 5.023438 -4.832031 5.347656 -4.507812 5.578125 -4.09375 C 5.816406 -3.675781 5.9375 -3.207031 5.9375 -2.6875 C 5.9375 -2.164062 5.816406 -1.695312 5.578125 -1.28125 C 5.347656 -0.863281 5.023438 -0.535156 4.609375 -0.296875 C 4.191406 -0.0664062 3.722656 0.046875 3.203125 0.046875 Z M 3.203125 -0.59375 C 3.585938 -0.59375 3.929688 -0.675781 4.234375 -0.84375 C 4.535156 -1.019531 4.769531 -1.269531 4.9375 -1.59375 C 5.113281 -1.914062 5.203125 -2.28125 5.203125 -2.6875 C 5.203125 -3.09375 5.113281 -3.457031 4.9375 -3.78125 C 4.769531 -4.101562 4.535156 -4.347656 4.234375 -4.515625 C 3.929688 -4.691406 3.585938 -4.78125 3.203125 -4.78125 C 2.828125 -4.78125 2.488281 -4.691406 2.1875 -4.515625 C 1.882812 -4.347656 1.644531 -4.101562 1.46875 -3.78125 C 1.289062 -3.457031 1.203125 -3.09375 1.203125 -2.6875 C 1.203125 -2.28125 1.289062 -1.914062 1.46875 -1.59375 C 1.644531 -1.269531 1.882812 -1.019531 2.1875 -0.84375 C 2.488281 -0.675781 2.828125 -0.59375 3.203125 -0.59375 Z M 3.203125 -0.59375 "/></g></g></g><g fill="#ffc043" fill-opacity="1"><g transform="translate(117.036592, 23.656125)"><g><path d="M 3.75 -5.421875 C 4.425781 -5.421875 4.960938 -5.222656 5.359375 -4.828125 C 5.753906 -4.429688 5.953125 -3.859375 5.953125 -3.109375 L 5.953125 0 L 5.234375 0 L 5.234375 -3.046875 C 5.234375 -3.609375 5.09375 -4.035156 4.8125 -4.328125 C 4.53125 -4.617188 4.132812 -4.765625 3.625 -4.765625 C 3.039062 -4.765625 2.578125 -4.59375 2.234375 -4.25 C 1.898438 -3.90625 1.734375 -3.429688 1.734375 -2.828125 L 1.734375 0 L 1.015625 0 L 1.015625 -5.375 L 1.703125 -5.375 L 1.703125 -4.390625 C 1.898438 -4.710938 2.175781 -4.960938 2.53125 -5.140625 C 2.882812 -5.328125 3.289062 -5.421875 3.75 -5.421875 Z M 3.75 -5.421875 "/></g></g></g><g fill="#ffc043" fill-opacity="1"><g transform="translate(123.74219, 23.656125)"><g><path d="M 2.453125 0.046875 C 2.015625 0.046875 1.597656 -0.015625 1.203125 -0.140625 C 0.804688 -0.265625 0.492188 -0.421875 0.265625 -0.609375 L 0.59375 -1.1875 C 0.820312 -1.007812 1.101562 -0.863281 1.4375 -0.75 C 1.78125 -0.632812 2.132812 -0.578125 2.5 -0.578125 C 2.988281 -0.578125 3.347656 -0.65625 3.578125 -0.8125 C 3.816406 -0.96875 3.9375 -1.1875 3.9375 -1.46875 C 3.9375 -1.65625 3.875 -1.804688 3.75 -1.921875 C 3.625 -2.035156 3.460938 -2.117188 3.265625 -2.171875 C 3.066406 -2.234375 2.800781 -2.289062 2.46875 -2.34375 C 2.03125 -2.425781 1.675781 -2.507812 1.40625 -2.59375 C 1.144531 -2.6875 0.921875 -2.832031 0.734375 -3.03125 C 0.546875 -3.238281 0.453125 -3.523438 0.453125 -3.890625 C 0.453125 -4.335938 0.640625 -4.703125 1.015625 -4.984375 C 1.390625 -5.273438 1.910156 -5.421875 2.578125 -5.421875 C 2.929688 -5.421875 3.28125 -5.375 3.625 -5.28125 C 3.976562 -5.1875 4.265625 -5.066406 4.484375 -4.921875 L 4.171875 -4.328125 C 3.722656 -4.640625 3.191406 -4.796875 2.578125 -4.796875 C 2.117188 -4.796875 1.769531 -4.710938 1.53125 -4.546875 C 1.300781 -4.378906 1.1875 -4.164062 1.1875 -3.90625 C 1.1875 -3.695312 1.25 -3.53125 1.375 -3.40625 C 1.507812 -3.289062 1.675781 -3.203125 1.875 -3.140625 C 2.070312 -3.085938 2.347656 -3.03125 2.703125 -2.96875 C 3.128906 -2.882812 3.472656 -2.800781 3.734375 -2.71875 C 3.992188 -2.632812 4.210938 -2.492188 4.390625 -2.296875 C 4.578125 -2.097656 4.671875 -1.828125 4.671875 -1.484375 C 4.671875 -1.015625 4.472656 -0.640625 4.078125 -0.359375 C 3.691406 -0.0859375 3.148438 0.046875 2.453125 0.046875 Z M 2.453125 0.046875 "/></g></g></g></svg>