<?xml version="1.0" encoding="UTF-8" standalone="no"?>
<svg
   id="Layer_1"
   data-name="Layer 1"
   viewBox="0 0 607.291 99.038"
   version="1.1"
   sodipodi:docname="decoration_city.svg"
   inkscape:version="1.3.2 (091e20e, 2023-11-25)"
   xmlns:inkscape="http://www.inkscape.org/namespaces/inkscape"
   xmlns:sodipodi="http://sodipodi.sourceforge.net/DTD/sodipodi-0.dtd"
   xmlns="http://www.w3.org/2000/svg"
   xmlns:svg="http://www.w3.org/2000/svg"
   xmlns:rdf="http://www.w3.org/1999/02/22-rdf-syntax-ns#"
   xmlns:cc="http://creativecommons.org/ns#"
   xmlns:dc="http://purl.org/dc/elements/1.1/">
  <sodipodi:namedview
     id="namedview34"
     pagecolor="#ffffff"
     bordercolor="#000000"
     borderopacity="0.25"
     inkscape:showpageshadow="2"
     inkscape:pageopacity="0.0"
     inkscape:pagecheckerboard="0"
     inkscape:deskcolor="#d1d1d1"
     inkscape:zoom="1.0030443"
     inkscape:cx="315.04093"
     inkscape:cy="68.292101"
     inkscape:window-width="1512"
     inkscape:window-height="826"
     inkscape:window-x="0"
     inkscape:window-y="225"
     inkscape:window-maximized="0"
     inkscape:current-layer="Layer_1" />
  <defs
     id="defs1">
    <style
       id="style1">.cls-1{fill:#d2d4f8;}.cls-1,.cls-2,.cls-3,.cls-5,.cls-7,.cls-8{stroke:#394599;stroke-linecap:round;stroke-linejoin:round;}.cls-2{fill:#fff;}.cls-3,.cls-5,.cls-7,.cls-8{fill:none;}.cls-4{opacity:0.25;}.cls-5{stroke-width:0.477px;}.cls-6{opacity:0.5;}.cls-7{stroke-width:0.558px;}.cls-8{stroke-width:0.434px;}</style>
    <clipPath
       clipPathUnits="userSpaceOnUse"
       id="clipPath35">
      <g
         id="g36">
        <path
           d="M -71.462807,13.209738 H 513.79834 V 105.34661 H -71.462807 Z m 0,0"
           clip-rule="nonzero"
           id="path35"
           style="stroke-width:0.571668" />
      </g>
    </clipPath>
  </defs>
  <title
     id="title1">decoraton-city</title>
  <path
     class="cls-1"
     d="M106.4,78.647a7.681,7.681,0,0,0-7.681,7.681v11.9h15.361v-11.9A7.681,7.681,0,0,0,106.4,78.647Z"
     transform="translate(0.5 0.217)"
     id="path1" />
  <path
     class="cls-2"
     d="M118.028,88.165a3.948,3.948,0,0,0-3.948,3.948v6.117h7.9V92.112A3.948,3.948,0,0,0,118.028,88.165Z"
     transform="translate(0.5 0.217)"
     id="path2" />
  <path
     class="cls-2"
     d="M94.772,88.165a3.948,3.948,0,0,0-3.948,3.948v6.117h7.9V92.112A3.948,3.948,0,0,0,94.772,88.165Z"
     transform="translate(0.5 0.217)"
     id="path3" />
  <rect
     class="cls-2"
     x="110.847"
     y="66.031"
     width="58.25"
     height="32.416"
     id="rect3" />
  <rect
     class="cls-1"
     x="158"
     y="66.031"
     width="11.098"
     height="32.508"
     id="rect4" />
  <rect
     class="cls-1"
     x="128.597"
     y="79.489"
     width="11.375"
     height="19.049"
     id="rect5" />
  <line
     class="cls-3"
     x1="0.5"
     y1="98.538"
     x2="606.791"
     y2="98.538"
     id="line5" />
  <rect
     class="cls-1"
     x="144.931"
     y="73.364"
     width="5.667"
     height="5.5"
     id="rect7" />
  <rect
     class="cls-1"
     x="116.931"
     y="73.364"
     width="5.667"
     height="5.5"
     id="rect8" />
  <rect
     class="cls-2"
     x="552.832"
     y="40.968"
     width="21.843"
     height="57.479"
     id="rect9" />
  <rect
     class="cls-1"
     x="574.675"
     y="40.968"
     width="6.206"
     height="57.479"
     id="rect10" />
  <rect
     class="cls-2"
     x="557.546"
     y="46.697"
     width="12.414"
     height="51.749"
     id="rect11" />
  <rect
     class="cls-2"
     x="560.261"
     y="84.864"
     width="6.984"
     height="13.583"
     id="rect12" />
  <rect
     class="cls-2"
     x="561.624"
     y="37.383"
     width="4.5"
     height="3.585"
     id="rect13" />
  <rect
     class="cls-1"
     x="566.124"
     y="37.383"
     width="4.018"
     height="3.585"
     id="rect14" />
  <rect
     class="cls-2"
     x="17.457"
     y="86.655"
     width="11.333"
     height="11.792"
     id="rect24" />
  <rect
     class="cls-1"
     x="40.124"
     y="78.864"
     width="7.667"
     height="19.583"
     id="rect25" />
  <rect
     class="cls-2"
     x="28.791"
     y="78.864"
     width="11.333"
     height="19.583"
     id="rect26" />
  <rect
     class="cls-2"
     x="43.957"
     y="86.655"
     width="11.333"
     height="11.792"
     id="rect27" />
  <rect
     class="cls-1"
     x="55.291"
     y="86.655"
     width="6.874"
     height="11.792"
     id="rect28" />
  <line
     class="cls-3"
     x1="32.624"
     y1="82.655"
     x2="32.624"
     y2="94.655"
     id="line28" />
  <line
     class="cls-3"
     x1="36.291"
     y1="82.655"
     x2="36.291"
     y2="94.655"
     id="line29" />
  <g
     class="cls-4"
     id="g30">
    <path
       class="cls-5"
       d="M16.509,63.382h15.32S24.169,55.5,16.509,63.382Z"
       transform="translate(0.5 0.217)"
       id="path29" />
    <path
       class="cls-5"
       d="M14.016,63.382h6.508S17.269,60.036,14.016,63.382Z"
       transform="translate(0.5 0.217)"
       id="path30" />
  </g>
  <g
     class="cls-6"
     id="g32">
    <path
       class="cls-7"
       d="M449.325,47.966h16.588S457.62,39.435,449.325,47.966Z"
       transform="translate(0.5 0.217)"
       id="path31" />
    <path
       class="cls-7"
       d="M458.924,47.966h16.588S467.218,39.435,458.924,47.966Z"
       transform="translate(0.5 0.217)"
       id="path32" />
  </g>
  <g
     class="cls-4"
     id="g34">
    <path
       class="cls-8"
       d="M574.118,2.949h12.9S580.568-3.686,574.118,2.949Z"
       transform="translate(0.5 0.217)"
       id="path33" />
    <path
       class="cls-8"
       d="M581.432,2.949h9.118S585.991-1.741,581.432,2.949Z"
       transform="translate(0.5 0.217)"
       id="path34" />
  </g>
  <path
     d="m 539.74673,98.575539 c -0.13013,-3.036132 0.0809,-8.121593 -0.0117,-9.602905 -0.10696,-1.730792 -0.16772,-7.373146 -0.10696,-9.504893 0.0607,-2.133973 -0.0549,-6.217047 0.13302,-8.172824 0.18507,-1.953546 0,-4.778057 0,-4.778057 v -0.0891 c 0.15038,0.296262 0.0724,0.661574 0.0724,0.661574 l 0.15616,-0.08687 c 0.2429,0.278441 0.0896,0.844236 0.0896,0.844236 0.12146,-0.04232 0.23423,-0.173749 0.23423,-0.173749 0.17929,0.262851 0.0376,0.84869 0.0376,0.84869 l 0.21398,-0.162612 c 0.15328,0.184886 0.0752,0.719495 0.0752,0.719495 0.39328,-0.449961 0.5263,-0.906605 0.51762,-1.329838 l 0.31521,-0.129195 c 0.26894,0.351951 0.0636,1.020209 0.0636,1.020209 l 0.37304,-0.200477 c 0.19085,0.280671 0.11279,0.922201 0.11279,0.922201 l 0.33256,-0.164842 c -0.0809,0.387593 0.3152,0.690538 0.3152,0.690538 0.85308,-1.842173 -0.0173,-3.107412 -1.02078,-3.889275 0.45689,0.198253 0.81547,0.730632 0.81547,0.730632 0.0723,-0.11806 0.0492,-0.318536 0.0492,-0.318536 0.454,0.151469 0.92536,0.819733 0.92536,0.819733 l 0.0405,-0.294037 c 0.34701,0.08687 0.82704,0.668262 0.82704,0.668262 -0.17061,-1.483542 -1.54998,-2.249813 -2.62572,-2.62404 l 0.0724,-0.153699 c 0.50027,0.09356 0.93693,0.412096 0.93693,0.412096 l 0.0174,-0.189339 c 0.46848,0.109146 1.04971,0.610343 1.04971,0.610343 l 0.0578,-0.218297 c 0.44533,0.06236 -1.89122,-1.247419 -2.86574,-1.238512 l -0.0781,-0.08241 c 0.66222,-0.160383 1.36781,0.04231 1.36781,0.04231 l -0.15905,-0.220527 c 0.58125,-0.04899 1.57022,0.278441 1.57022,0.278441 l -0.0664,-0.278441 c 0.49737,0.01335 -0.61306,-0.960065 -1.83338,-0.743998 -0.0983,-0.05121 -0.23714,-0.08241 -0.23714,-0.08241 0.26026,-0.207161 1.00056,-0.287349 1.00056,-0.287349 l -0.26027,-0.100245 c 0.1764,-0.16706 0.83572,-0.271757 0.83572,-0.271757 -1.23188,-0.265074 -2.20641,0.122518 -2.85705,0.550204 -0.11564,-0.73509 -0.57836,-1.686248 -2.02422,-2.387916 0,0 0.29784,0.354175 0.40196,0.690531 l -0.28052,0.05792 c 0,0 0.68246,0.421002 0.85018,0.775179 l -0.24291,0.02229 c 0,0 0.43955,0.318541 0.58704,0.69945 l -0.28918,0.09356 c 0,0 0.2805,0.200477 0.43955,0.487831 -0.0173,0.0178 -0.0319,0.03119 -0.0492,0.04899 -0.89066,-0.786317 -3.03634,-2.176299 -6.04089,-0.882101 0,0 0.43666,0.240571 0.90223,0.118058 l -0.14747,0.271758 c 0,0 0.77788,-0.160382 1.15091,-0.0646 l -0.18506,0.305175 c 0,0 0.79235,-0.256168 1.26948,-0.115835 l -0.13014,0.296261 c 0,0 0.79524,-0.218296 1.20587,-0.07796 l -0.026,0.187111 c -0.85596,-0.104693 -1.9288,-0.03787 -3.08551,0.50788 0,0 0.54365,-0.04676 0.98609,0.02674 l -0.0521,0.200477 c -0.8762,0.187116 -1.77265,0.596982 -2.44642,1.410032 v -0.505651 l 0.40484,-0.781863 v -0.955611 h -2.00109 v -3.653157 l 0.44823,-0.679401 v -0.728402 h -1.2001 v -1.873359 l 0.0839,-0.392046 v -0.298491 h -0.23422 c 0,0 0.12431,-1.485766 -1.51818,-1.688472 0.0202,-0.03787 0.0319,-0.07796 0.0319,-0.122513 0,-0.131425 -0.0983,-0.2428 -0.24291,-0.294032 l -0.009,-0.08242 c 0.0926,-0.04676 0.15326,-0.124742 0.15326,-0.213843 0,-0.100239 -0.0781,-0.18711 -0.18795,-0.227204 l -0.006,-0.06238 c 0.0926,-0.03787 0.15616,-0.113605 0.15616,-0.198248 0,-0.09578 -0.0781,-0.178202 -0.18795,-0.211619 l -0.0231,-0.300715 c -0.003,-0.03342 -0.0405,-0.05792 -0.0868,-0.05571 -0.0405,0.0023 -0.0694,0.02674 -0.0752,0.05571 l -0.0231,0.300715 c -0.10994,0.03342 -0.18796,0.115835 -0.18796,0.211619 0,0.08464 0.0636,0.160383 0.15616,0.198248 l -0.006,0.06238 c -0.10994,0.04009 -0.18795,0.126965 -0.18795,0.227204 0,0.0891 0.0607,0.167065 0.15326,0.213843 l -0.009,0.08242 c -0.1417,0.05121 -0.24291,0.164837 -0.24291,0.294032 0,0.04232 0.0145,0.08465 0.0318,0.122513 -1.63963,0.202706 -1.51527,1.688472 -1.51527,1.688472 h -0.23537 v 0.298491 l 0.0839,0.392046 v 1.873359 h -1.20008 v 0.728402 l 0.44822,0.679401 v 3.653157 h -2.00109 v 0.955611 l 0.40485,0.781863 v 7.502336 l -0.40485,0.465556 v 2.227535 h -1.05548 c -1.32154,-4.016245 -5.66496,-7.105836 -11.0552,-7.747367 V 66.51242 h -4.17568 v 1.107087 c -5.39313,0.641531 -9.73656,3.731122 -11.05519,7.747367 h -1.0555 v -2.227535 l -0.40483,-0.465556 v -7.502336 l 0.40483,-0.781863 v -0.955611 h -2.00398 v -3.653157 l 0.44822,-0.679401 v -0.728402 h -1.20008 v -1.873359 l 0.0868,-0.392046 v -0.298491 h -0.24 c 0,0 0.12431,-1.483537 -1.51239,-1.688472 0.0174,-0.03787 0.029,-0.07796 0.029,-0.122513 0,-0.131425 -0.0983,-0.2428 -0.24291,-0.294032 l -0.006,-0.08242 c 0.0926,-0.04676 0.15037,-0.124742 0.15037,-0.213843 0,-0.100239 -0.0752,-0.18711 -0.18507,-0.227204 l -0.006,-0.06238 c 0.0926,-0.03787 0.15616,-0.113605 0.15616,-0.198248 0,-0.09578 -0.0809,-0.178202 -0.19085,-0.211619 l -0.0231,-0.300715 c -0.003,-0.02897 -0.0347,-0.05343 -0.0752,-0.05571 -0.0434,-0.0023 -0.0809,0.02229 -0.0839,0.05571 l -0.0231,0.300715 c -0.11279,0.03342 -0.19087,0.115835 -0.19087,0.211619 0,0.08464 0.0636,0.160383 0.15616,0.198248 l -0.003,0.06238 c -0.11279,0.04009 -0.19085,0.126965 -0.19085,0.227204 0,0.0891 0.0636,0.167065 0.15326,0.213843 l -0.006,0.08242 c -0.14171,0.05121 -0.24291,0.164837 -0.24291,0.294032 0,0.04232 0.0117,0.08465 0.0319,0.122513 -1.63961,0.202706 -1.51527,1.688472 -1.51527,1.688472 h -0.23712 v 0.298491 l 0.0868,0.392046 v 1.873359 h -1.20008 v 0.728402 l 0.44822,0.679401 v 3.653157 h -2.00398 v 0.955611 l 0.40485,0.781863 v 7.502336 l -0.40485,0.465556 v 2.227535 h -2.75007 l 0.34123,0.995706 0.5668,0.971208 v 16.459256 l -0.64163,0.85981 v 3.924919 m 57.7177,-31.771336 c 0.15904,0.184887 0.16482,0.510106 0.14169,0.732856 -0.0347,-0.256161 -0.11862,-0.498968 -0.22556,-0.715035 z m -0.53209,-0.703903 c 0.0405,0.04676 0.0723,0.100238 0.0954,0.158159 -0.0405,-0.05344 -0.0781,-0.100238 -0.11564,-0.144793 z m -1.85651,-2.481472 -0.0723,0.09133 c -0.16194,-0.04676 -0.34122,-0.09133 -0.53496,-0.126971 0.19662,-0.02674 0.42797,-0.03342 0.60726,0.03564 z m -0.86752,0.501197 -0.006,0.04232 c -0.1735,-0.0178 -0.37014,-0.03119 -0.58124,-0.04009 0.17928,-0.02002 0.3846,-0.02897 0.58703,-0.0023 z m -0.99477,-0.08241 -0.0375,0.08464 c -0.34411,0.0067 -0.71715,0.03787 -1.09308,0.11138 0.2487,-0.08019 0.77209,-0.22721 1.13068,-0.196023 z m -6.02352,3.038355 c 0,0 0.0434,-0.202706 0.16771,-0.202706 V 66.71511 c 0,0 -0.11564,-0.07573 -0.11564,-0.374226 0,-0.300715 0.19085,-0.498968 0.36148,-0.498968 0.17061,0 0.36146,0.198253 0.36146,0.498968 0,0.298491 -0.11564,0.374226 -0.11564,0.374226 v 0.160383 c 0.12432,0 0.17061,0.202706 0.17061,0.202706 v 1.606054 h -0.82993 z m -0.60148,-6.185866 h 0.39905 v 1.641695 h -0.39905 z m -1.81026,-3.875908 h 0.61017 v 0.94447 h -0.61017 z m -0.22554,3.875908 h 1.06416 v 1.641695 h -1.06416 z m -0.29497,6.185866 c 0,0 0.0926,-0.202706 0.33833,-0.202706 V 66.71511 c 0,0 -0.23423,-0.07573 -0.23423,-0.374226 0,-0.300715 0.38172,-0.498968 0.72005,-0.498968 0.34124,0 0.72005,0.198253 0.72005,0.498968 0,0.298491 -0.23423,0.374226 -0.23423,0.374226 v 0.160383 c 0.24869,0 0.34122,0.202706 0.34122,0.202706 v 1.606054 h -1.65408 v -1.606054 z m -0.0723,16.528313 c 0,0 0.0983,-0.222756 0.37015,-0.222756 v -0.171523 c 0,0 -0.25448,-0.08469 -0.25448,-0.40987 0,-0.327444 0.41353,-0.541292 0.78367,-0.541292 0.37015,0 0.78367,0.213848 0.78367,0.541292 0,0.325221 -0.25158,0.40987 -0.25158,0.40987 v 0.171523 c 0.26894,0 0.37014,0.222756 0.37014,0.222756 v 2.679719 h -1.80157 z m -1.00633,-22.714179 h 0.40196 v 1.641695 h -0.40196 z m -1.02657,6.185866 c 0,0 0.0462,-0.202706 0.17061,-0.202706 V 66.71511 c 0,0 -0.11564,-0.07573 -0.11564,-0.374226 0,-0.300715 0.19086,-0.498968 0.36147,-0.498968 0.17061,0 0.36147,0.198253 0.36147,0.498968 0,0.298491 -0.11564,0.374226 -0.11564,0.374226 v 0.160383 c 0.12432,0 0.16773,0.202706 0.16773,0.202706 v 1.606054 h -0.82704 v -1.606054 z m -11.60752,23.493813 c 0,0 0.27473,-0.612575 1.0208,-0.612575 V 89.47829 c 0,0 -0.69691,-0.229429 -0.69691,-1.131583 0,-0.251714 0.0926,-0.496744 0.24291,-0.71504 0.39039,-0.568016 1.1914,-0.975661 1.92302,-0.975661 0.1359,0 0.27471,0.01337 0.41062,0.0401 0.89356,0.171523 1.75529,0.868737 1.75529,1.650611 0,0.902144 -0.69691,1.131583 -0.69691,1.131583 v 0.481142 c 0.74608,0 1.0208,0.612575 1.0208,0.612575 v 4.833748 h -4.98249 v -4.833748 z m -3.79687,-17.274538 c 0,0 0.13592,-0.298491 0.50029,-0.298491 v -0.236117 c 0,0 -0.34124,-0.111375 -0.34124,-0.552428 0,-0.443277 0.56101,-0.732861 1.05839,-0.732861 0.50027,0 1.05837,0.289584 1.05837,0.732861 0,0.441053 -0.34122,0.552428 -0.34122,0.552428 v 0.236117 c 0.36436,0 0.50028,0.298491 0.50028,0.298491 v 2.365644 h -2.43775 v -2.365644 z m 1.4777,14.946763 c 0.003,0.03342 0.006,0.06903 0.006,0.10024 0,0.904379 -0.69402,1.131584 -0.69402,1.131584 v 0.481142 c 0.74318,0 1.0208,0.612575 1.0208,0.612575 v 4.833757 h -4.9796 v -4.833757 c 0,0 0.27471,-0.612575 1.02078,-0.612575 v -0.481142 c 0,0 -0.69403,-0.227205 -0.69403,-1.131584 0,-0.03122 0,-0.06683 0.003,-0.10024 0.0809,-0.855381 1.17694,-1.590461 2.16014,-1.590461 0.98032,0.002 2.07917,0.73508 2.15726,1.590461 z m -5.28036,-14.946763 c 0,0 0.13592,-0.298491 0.50029,-0.298491 v -0.236117 c 0,0 -0.34124,-0.111375 -0.34124,-0.552428 0,-0.443277 0.56101,-0.732861 1.06128,-0.732861 0.50028,0 1.05838,0.289584 1.05838,0.732861 0,0.441053 -0.34123,0.552428 -0.34123,0.552428 v 0.236117 c 0.36436,0 0.50028,0.298491 0.50028,0.298491 v 2.365644 h -2.43776 z m -6.33872,17.274538 c 0,0 0.27471,-0.612575 1.02079,-0.612575 V 89.47829 c 0,0 -0.69691,-0.229429 -0.69691,-1.131583 0,-0.781864 0.86173,-1.479078 1.7553,-1.650611 0.1359,-0.02673 0.27471,-0.0401 0.41062,-0.0401 0.73451,0 1.53552,0.409869 1.92302,0.975661 0.15037,0.218296 0.24291,0.463326 0.24291,0.71504 0,0.902154 -0.69403,1.131593 -0.69403,1.131593 v 0.481142 c 0.74607,0 1.0208,0.612575 1.0208,0.612575 v 4.833748 h -4.97962 v -4.833748 z m -7.45495,-23.493813 c 0,0 0.0492,-0.202706 0.17061,-0.202706 V 66.71511 c 0,0 -0.11564,-0.07573 -0.11564,-0.374226 0,-0.300715 0.18796,-0.498968 0.36146,-0.498968 0.17063,0 0.36148,0.198253 0.36148,0.498968 0,0.298491 -0.11564,0.374226 -0.11564,0.374226 v 0.160383 c 0.12432,0 0.16772,0.202706 0.16772,0.202706 v 1.606054 h -0.82705 v -1.606054 z m -0.60148,-6.185866 h 0.40488 v 1.641695 h -0.40486 z m -1.80735,-3.875908 h 0.61305 v 0.94447 h -0.61305 z m -0.22845,3.875908 h 1.06416 v 1.641695 h -1.06416 z m -0.29207,6.185866 c 0,0 0.0896,-0.202706 0.33834,-0.202706 V 66.71511 c 0,0 -0.23424,-0.07573 -0.23424,-0.374226 0,-0.300715 0.38172,-0.498968 0.72005,-0.498968 0.33834,0 0.72006,0.198253 0.72006,0.498968 0,0.298491 -0.23135,0.374226 -0.23135,0.374226 v 0.160383 c 0.2458,0 0.33834,0.202706 0.33834,0.202706 v 1.606054 h -1.6512 z m -0.0752,16.528313 c 0,0 0.10127,-0.222756 0.37016,-0.222756 v -0.171523 c 0,0 -0.25159,-0.08469 -0.25159,-0.40987 0,-0.327444 0.41641,-0.541292 0.78366,-0.541292 0.36725,0 0.78367,0.213848 0.78367,0.541292 0,0.325221 -0.25448,0.40987 -0.25448,0.40987 v 0.171523 c 0.26895,0 0.37015,0.222756 0.37015,0.222756 v 2.679719 h -1.80157 z M 488.6804,60.892338 h 0.39906 v 1.641695 h -0.39906 z m -1.02947,6.185866 c 0,0 0.0462,-0.202706 0.17061,-0.202706 V 66.71511 c 0,0 -0.11564,-0.07573 -0.11564,-0.374226 0,-0.300715 0.18797,-0.498968 0.36147,-0.498968 0.16772,0 0.35859,0.198253 0.35859,0.498968 0,0.298491 -0.11564,0.374226 -0.11564,0.374226 v 0.160383 c 0.12729,0 0.17062,0.202706 0.17062,0.202706 v 1.606054 h -0.82705 V 67.078199 Z M 535.27605,93.79079 V 77.331538 l 0.56679,-0.973433 v -0.574702 h 0.34122 v -0.421009 h -2.75007 v -2.227535 l -0.40485,-0.465551 v -6.31283 c 0.0926,-0.05126 0.1764,-0.115835 0.24291,-0.200483 l 0.1128,0.2829 c 0,0 0.4569,-0.512334 0.82414,-0.625939 l 0.11279,0.325219 c 0,0 0.38749,-0.590294 0.86752,-0.721718 l 0.14748,0.291807 c 0,0 0.4222,-0.563566 0.85596,-0.65935 l 0.24291,0.271758 c 0,0 0.30653,-0.458874 0.71715,-0.536839 l 0.0694,0.309629 c 0,0 0.23134,-0.184886 0.65643,-0.309629 0.006,0.02229 0.0173,0.04232 0.0289,0.0646 -1.50083,0.516787 -4.27113,1.891179 -3.7911,4.918396 0,0 0.49161,-0.305168 0.56968,-0.973432 l 0.37015,0.18934 c 0,0 0.0521,-0.478918 0.37593,-0.817503 l 0.34411,0.122512 c 0,0 0.0462,-0.447731 0.27473,-0.826411 l 0.37591,0.0178 c 0,0 -0.029,-0.340815 0.31521,-0.891014 l 0.3817,0.126966 c 0,0 0.13592,-0.421003 0.61884,-0.719494 l 0.13592,0.05792 c -0.26315,0.43214 -0.43376,0.955612 -0.42508,1.594913 0,0 0.22266,-0.385363 0.53208,-0.639301 l 0.21688,0.149245 c 0,0 0.0868,-0.668263 0.38171,-0.968978 l 0.10126,0.09356 c 0.15326,1.069217 0.0781,3.218787 0.0781,4.105347 0,1.066986 -0.026,6.346242 -0.0694,7.662719 -0.0462,1.316471 -0.2082,6.252689 -0.13013,9.950394 0.0578,2.77997 -0.12147,8.103768 -0.21111,10.576333 h -2.43485 V 94.6506 Z"
     style="fill:#d2d4f8;fill-opacity:1;fill-rule:nonzero;stroke:#394599;stroke-width:0.893216;stroke-dasharray:none;stroke-opacity:1"
     id="path1-7" />
  <path
     d="m 242.29491,88.766711 c -3.28403,-1.228842 -9.75624,-4.109954 -15.48036,-9.230563 -3.8665,-3.458844 -7.39168,-7.939495 -9.36238,-13.622934 0,0 -2.60377,-12.509717 -2.60377,-30.820971 l -2.38493,0.435451 0.42428,-1.927146 -0.57837,-0.207676 -1.81102,4.289743 -0.6342,5.783678 -0.65429,-1.679276 -0.34836,-0.187576 -0.44662,-2.346967 V 32.73411 c 0,-0.05134 -0.0402,-0.09155 -0.0916,-0.09155 -0.0513,0 -0.0916,0.04019 -0.0916,0.09155 v 1.688212 h -0.32826 v -0.216611 c 0,-0.04911 -0.0424,-0.09155 -0.0916,-0.09155 -0.0513,0 -0.0915,0.04242 -0.0915,0.09155 v 0.216611 h -0.32827 V 32.73411 c 0,-0.05134 -0.0402,-0.09155 -0.0893,-0.09155 -0.0514,0 -0.0916,0.04019 -0.0916,0.09155 v 1.779764 0.0023 0.783809 0.0046 0.0046 0.78158 0.0046 0.0046 0.786045 0.0046 0.790514 l 0.002,0.779345 c -0.002,0 -0.002,0.0023 -0.002,0.0046 0,0.0046 0,0.0067 0.002,0.0067 v 0.76818 l -0.44885,2.360367 -0.34836,0.187576 -0.6543,1.683741 -0.63642,-5.785908 -1.81103,-4.289748 -0.57613,0.207676 0.42205,1.924916 -2.3827,-0.433216 c 0,18.311254 -2.606,30.820965 -2.606,30.820965 -4.74306,13.684312 -18.47248,20.419446 -24.24052,22.659225 m 71.66935,9.516293 -2.07677,-8.93009 c 0,0 -0.50691,-0.13621 -1.37781,-0.43321 m -17.12114,9.35887 h -6.82548 -3.29483 c 0.23505,-2.474251 0.36638,-4.940536 0.43353,-7.211436 0.17399,-5.884264 -0.0829,-10.456692 -0.0829,-10.456692 0.35341,2.056532 1.94995,5.248818 3.84705,8.490202 2.01064,3.435384 4.35891,6.925919 5.92267,9.177926 z m -18.36276,-48.93349 v -0.600698 h 0.24117 v 0.600698 z m 1.07188,-12.967492 v 0.527004 l -0.27914,-0.527004 z m -0.27691,-0.183117 0.27914,-0.527004 v 0.527004 z m 0.27691,1.761899 v 0.52701 l -0.27914,-0.52701 z m -0.27691,-0.180876 0.27914,-0.529239 v 0.529239 z m 0.27691,1.759664 v 0.52924 l -0.27914,-0.52924 z m -0.27691,-0.183111 0.27914,-0.527004 v 0.527004 z m 0.27691,1.764135 v 0.160782 l -0.28807,0.154081 -0.22778,-0.314863 z m -0.49798,-0.183111 0.49798,-0.582839 v 0.582839 z m 0.45331,20.856962 h -0.2166 c 0.11835,-0.207676 0.28806,-0.200976 0.28806,-0.200976 v 0.118353 c -0.0603,0.02458 -0.0715,0.08262 -0.0715,0.08262 z m 0.0715,0.156317 v 0.120588 c 0,0 -0.16971,0.0046 -0.28806,-0.200982 h 0.2166 c 0,0 0.0111,0.05806 0.0715,0.08039 z m -0.34613,-0.25457 v -0.47788 c 0.0692,0.207675 0.27691,0.23894 0.27691,0.23894 0,0 -0.20768,0.0335 -0.27691,0.23894 z m 0.0603,-0.576139 h 0.21661 c 0,0 0.0111,0.05806 0.0692,0.08262 v 0.120587 c 0,0 -0.16971,0.0046 -0.28583,-0.203211 z m -0.0603,-0.169711 v -0.47788 c 0.0692,0.207675 0.27691,0.23894 0.27691,0.23894 0,0 -0.20768,0.03127 -0.27691,0.23894 z m 0.27467,0.09602 h -0.2166 c 0.11835,-0.207675 0.28806,-0.203211 0.28806,-0.203211 v 0.118353 c -0.0603,0.02904 -0.0715,0.08486 -0.0715,0.08486 z m -0.21437,-0.674391 h 0.21661 c 0,0 0.0111,0.05806 0.0692,0.08262 v 0.120588 c 0,0 -0.16971,0.0046 -0.28583,-0.203211 z m -0.0603,-0.171947 v -0.47788 c 0.0692,0.207676 0.27691,0.241175 0.27691,0.241175 0,0 -0.20768,0.02904 -0.27691,0.236705 z m 0.27467,0.100488 h -0.2166 c 0.11835,-0.207676 0.28806,-0.203211 0.28806,-0.203211 v 0.118353 c -0.0603,0.02458 -0.0715,0.08486 -0.0715,0.08486 z m -0.21437,-0.676621 h 0.21661 c 0,0 0.0111,0.06029 0.0692,0.08262 v 0.118353 c 0,0 -0.16971,0.0046 -0.28583,-0.200976 z m -0.0603,-0.174181 v -0.475646 c 0.0692,0.207676 0.27691,0.23894 0.27691,0.23894 0,0 -0.20768,0.02904 -0.27691,0.236706 z m 0.27467,0.09825 h -0.2166 c 0.11835,-0.20544 0.28806,-0.200976 0.28806,-0.200976 v 0.120588 c -0.0603,0.02235 -0.0715,0.08039 -0.0715,0.08039 z m -0.21437,-0.672156 h 0.21661 c 0,0 0.0111,0.05806 0.0692,0.08262 v 0.118353 c 0,-0.0023 -0.16971,0.0046 -0.28583,-0.200976 z m -0.0603,-0.174182 v -0.475645 c 0.0692,0.207676 0.27691,0.23894 0.27691,0.23894 0,0 -0.20768,0.02904 -0.27691,0.236705 z m 0.27467,0.09826 h -0.2166 c 0.11835,-0.207676 0.28806,-0.200976 0.28806,-0.200976 v 0.120582 c -0.0603,0.02235 -0.0715,0.08039 -0.0715,0.08039 z m -0.21437,-0.672157 h 0.21661 c 0,0 0.0111,0.05806 0.0692,0.08039 v 0.120588 c 0,0 -0.16971,0.0067 -0.28583,-0.200976 z m -0.0603,-0.174181 v -0.477881 c 0.0692,0.207676 0.27691,0.241176 0.27691,0.241176 0,0 -0.20768,0.02904 -0.27691,0.236705 z m 0.27467,0.09826 h -0.2166 c 0.11835,-0.207681 0.28806,-0.200981 0.28806,-0.200981 v 0.118352 c -0.0603,0.02458 -0.0715,0.08263 -0.0715,0.08263 z m -0.21437,-0.674392 h 0.21661 c 0,0 0.0111,0.05806 0.0692,0.08262 v 0.120587 c 0,0 -0.16971,0.0046 -0.28583,-0.203211 z m -0.0603,-0.171946 v -0.47788 c 0.0692,0.207675 0.27691,0.23894 0.27691,0.23894 0,0 -0.20768,0.0335 -0.27691,0.23894 z m 0.27467,0.09825 h -0.2166 c 0.11835,-0.207676 0.28806,-0.203211 0.28806,-0.203211 v 0.120587 c -0.0603,0.02458 -0.0715,0.08262 -0.0715,0.08262 z m -0.21437,-0.674392 h 0.21661 c 0,0 0.0111,0.05806 0.0692,0.08263 v 0.120582 c 0,0 -0.16971,0.0046 -0.28583,-0.203211 z m -0.0603,-0.171946 v -0.477875 c 0.0692,0.207676 0.27691,0.238935 0.27691,0.238935 0,0 -0.20768,0.0335 -0.27691,0.23894 z m 0.27467,0.09826 h -0.2166 c 0.11835,-0.207676 0.28806,-0.203211 0.28806,-0.203211 v 0.120588 c -0.0603,0.02458 -0.0715,0.08262 -0.0715,0.08262 z m -0.21437,-0.674391 h 0.21661 c 0,0 0.0111,0.05806 0.0692,0.08262 v 0.120588 c 0,-0.0023 -0.16971,0.0046 -0.28583,-0.203211 z m -0.0603,-0.171947 v -0.475645 c 0.0692,0.207676 0.27691,0.236705 0.27691,0.236705 0,0 -0.20768,0.03127 -0.27691,0.23894 z m 0.27467,0.09825 h -0.2166 c 0.11835,-0.207676 0.28806,-0.203205 0.28806,-0.203205 v 0.118352 c -0.0603,0.02458 -0.0715,0.08485 -0.0715,0.08485 z m -0.21437,-0.676621 h 0.21661 c 0,0 0.0111,0.06029 0.0692,0.08262 v 0.120599 c -0.0112,0 -0.17418,-0.0023 -0.28583,-0.203211 z m -0.0603,-0.171947 v -0.475639 c 0.0692,0.207676 0.27691,0.23894 0.27691,0.23894 0,0 -0.20768,0.02904 -0.27691,0.236705 z m 0.27467,0.100488 h -0.2166 c 0.11388,-0.200975 0.2769,-0.203211 0.28806,-0.203211 v 0.120588 c -0.0603,0.02235 -0.0715,0.08262 -0.0715,0.08262 z m -0.21437,-0.674391 h 0.21661 c 0,0 0.0111,0.05806 0.0692,0.08262 v 0.118358 c 0,-0.0023 -0.16971,0.0046 -0.28583,-0.200981 z m -0.0603,-0.174176 v -0.477881 c 0.0692,0.207676 0.27691,0.24117 0.27691,0.24117 0,0 -0.20768,0.02904 -0.27691,0.236711 z m 0.27467,0.09825 h -0.2166 c 0.11835,-0.207675 0.28806,-0.200975 0.28806,-0.200975 v 0.118352 c -0.0603,0.02458 -0.0715,0.08262 -0.0715,0.08262 z m -0.21437,-0.674391 h 0.21661 c 0,0 0.0111,0.05806 0.0692,0.08262 v 0.120588 c 0,-0.0023 -0.16971,0.0046 -0.28583,-0.203211 z m -0.0603,-0.171946 v -0.477873 c 0.0692,0.207681 0.27691,0.241175 0.27691,0.241175 0,0 -0.20768,0.02904 -0.27691,0.236706 z m 0.27467,0.09826 h -0.2166 c 0.11835,-0.207676 0.28806,-0.203211 0.28806,-0.203211 v 0.120588 c -0.0603,0.02458 -0.0715,0.08262 -0.0715,0.08262 z m -0.21437,-0.674392 h 0.21661 c 0,0 0.0111,0.05806 0.0692,0.08262 v 0.120587 c 0,0 -0.16971,0.0046 -0.28583,-0.203211 z m -0.0603,-0.171946 v -0.477875 c 0.0692,0.207676 0.27691,0.238941 0.27691,0.238941 0,0 -0.20768,0.03127 -0.27691,0.23894 z m 0.27467,0.09825 h -0.2166 c 0.11835,-0.207676 0.28806,-0.203211 0.28806,-0.203211 v 0.120596 c -0.0603,0.02458 -0.0715,0.08262 -0.0715,0.08262 z m -0.21437,-0.674386 h 0.21661 c 0,0 0.0111,0.05806 0.0692,0.08262 v 0.120582 c 0,0 -0.16971,0.0046 -0.28583,-0.203205 z m -0.0603,-0.171952 v -0.477875 c 0.0692,0.207676 0.27691,0.23894 0.27691,0.23894 0,0 -0.20768,0.03127 -0.27691,0.238935 z m 0.27467,0.09826 h -0.2166 c 0.11835,-0.207676 0.28806,-0.203211 0.28806,-0.203211 v 0.120588 c -0.0603,0.02235 -0.0715,0.08262 -0.0715,0.08262 z m -0.21437,-0.674392 h 0.21661 c 0,0 0.0111,0.05806 0.0692,0.08262 v 0.118352 c 0,0 -0.16971,0.0067 -0.28583,-0.200976 z m -0.0603,-0.174181 v -0.475645 c 0.0692,0.207675 0.27691,0.23894 0.27691,0.23894 0,0 -0.20768,0.03127 -0.27691,0.236705 z m 0.27467,0.09826 h -0.2166 c 0.11835,-0.207675 0.28806,-0.200976 0.28806,-0.200976 v 0.118353 c -0.0603,0.02458 -0.0715,0.08262 -0.0715,0.08262 z m -0.21437,-0.672156 h 0.21661 c 0,0 0.0111,0.05806 0.0692,0.08039 v 0.120588 c 0,0 -0.16971,0.0067 -0.28583,-0.200976 z m -0.0603,-0.171947 v -0.241175 h 0.27691 c -0.002,0 -0.20768,0.0335 -0.27691,0.241175 z m 0.27467,0.09602 h -0.2166 c 0.11835,-0.207682 0.28806,-0.200982 0.28806,-0.200982 v 0.118353 c -0.0603,0.02235 -0.0715,0.08263 -0.0715,0.08263 z m 0.0648,-1.217031 h -0.28583 v -0.600698 h 0.28583 z m -0.33943,12.619134 c 0.0692,0.207676 0.27691,0.236706 0.27691,0.236706 h -0.27691 z m 0.76595,-12.619134 h -0.28807 v -0.600698 h 0.28807 z m 0.0558,0.879832 v 0.241175 c -0.0715,-0.207675 -0.2769,-0.241175 -0.2769,-0.241175 z m -0.0603,0.337199 h -0.2166 c 0,0 -0.0111,-0.06029 -0.0692,-0.08263 v -0.118353 c 0,0 0.16748,-0.0046 0.28583,0.200982 z m 0.0603,0.174176 v 0.475645 c -0.0715,-0.207676 -0.2769,-0.238935 -0.2769,-0.238935 0,0 0.20544,-0.02904 0.2769,-0.23671 z m -0.27467,-0.09825 h 0.21661 c -0.12059,0.207676 -0.28807,0.200976 -0.28807,0.200976 V 50.52725 c 0.0581,-0.02235 0.0715,-0.08039 0.0715,-0.08039 z m 0.21437,0.672156 h -0.2166 c 0,0 -0.0111,-0.05806 -0.0692,-0.08262 v -0.118353 c 0,0.0023 0.16748,-0.0046 0.28583,0.200976 z m 0.0603,0.174182 v 0.477875 c -0.0715,-0.207676 -0.2769,-0.24117 -0.2769,-0.24117 0,0 0.20544,-0.02904 0.2769,-0.236705 z m -0.27467,-0.09826 h 0.21661 c -0.12059,0.207676 -0.28807,0.200976 -0.28807,0.200976 v -0.118352 c 0.0581,-0.02458 0.0715,-0.08262 0.0715,-0.08262 z m 0.21437,0.674392 h -0.2166 c 0,0 -0.0111,-0.06029 -0.0692,-0.08262 v -0.120588 c 0,0 0.16748,-0.0046 0.28583,0.203211 z m 0.0603,0.171946 v 0.477881 c -0.0715,-0.207676 -0.2769,-0.241176 -0.2769,-0.241176 0,0 0.20544,-0.02904 0.2769,-0.236705 z m -0.27467,-0.09825 h 0.21661 c -0.12059,0.207675 -0.28807,0.203205 -0.28807,0.203205 v -0.120582 c 0.0581,-0.02458 0.0715,-0.08262 0.0715,-0.08262 z m 0.21437,0.674386 h -0.2166 c 0,0 -0.0111,-0.05806 -0.0692,-0.08262 v -0.120587 c 0,0 0.16748,-0.0046 0.28583,0.203211 z m 0.0603,0.171946 v 0.477881 c -0.0715,-0.207676 -0.2769,-0.238941 -0.2769,-0.238941 0,0 0.20544,-0.0335 0.2769,-0.23894 z m -0.27467,-0.09825 h 0.21661 c -0.12059,0.207676 -0.28807,0.203211 -0.28807,0.203211 v -0.120587 c 0.0581,-0.02458 0.0715,-0.08262 0.0715,-0.08262 z m 0.21437,0.674392 h -0.2166 c 0,0 -0.0111,-0.05806 -0.0692,-0.08262 v -0.120588 c 0,0 0.16748,-0.0046 0.28583,0.203211 z m 0.0603,0.171946 v 0.477881 c -0.0715,-0.207682 -0.2769,-0.23894 -0.2769,-0.23894 0,0 0.20544,-0.03127 0.2769,-0.238941 z m -0.27467,-0.09826 h 0.21661 c -0.12059,0.207676 -0.28807,0.203211 -0.28807,0.203211 v -0.120584 c 0.0581,-0.02458 0.0715,-0.08262 0.0715,-0.08262 z m 0.21437,0.674391 h -0.2166 c 0,0 -0.0111,-0.05806 -0.0692,-0.08262 v -0.118352 c 0,0 0.16748,-0.0067 0.28583,0.200975 z m 0.0603,0.171947 v 0.475645 c -0.0715,-0.20544 -0.2769,-0.236705 -0.2769,-0.236705 0,0 0.20544,-0.03127 0.2769,-0.23894 z m -0.27467,-0.09602 h 0.21661 c -0.12059,0.207675 -0.28807,0.200981 -0.28807,0.200981 v -0.118358 c 0.0581,-0.02681 0.0715,-0.08262 0.0715,-0.08262 z m 0.21437,0.674391 h -0.2166 c 0,0 -0.0111,-0.06029 -0.0692,-0.08262 v -0.120588 c 0.0111,0 0.17195,0.0023 0.28583,0.203211 z m 0.0603,0.171947 v 0.475645 c -0.0715,-0.205441 -0.2769,-0.23894 -0.2769,-0.23894 0,0 0.20544,-0.02904 0.2769,-0.236705 z m -0.27467,-0.100488 h 0.21661 c -0.11609,0.200987 -0.27687,0.203222 -0.28804,0.203222 V 55.01799 c 0.0581,-0.02235 0.0715,-0.08262 0.0715,-0.08262 z m 0.21437,0.676621 h -0.2166 c 0,0 -0.0111,-0.06029 -0.0692,-0.08485 v -0.118352 c 0,0.0023 0.16748,-0.0046 0.28583,0.203205 z m 0.0603,0.171952 v 0.477875 c -0.0715,-0.207676 -0.2769,-0.24117 -0.2769,-0.24117 0,0 0.20544,-0.02904 0.2769,-0.236705 z m -0.27467,-0.09826 h 0.21661 c -0.12059,0.207675 -0.28807,0.200975 -0.28807,0.200975 v -0.118349 c 0.0581,-0.02458 0.0715,-0.08262 0.0715,-0.08262 z m 0.21437,0.674391 h -0.2166 c 0,0 -0.0111,-0.05806 -0.0692,-0.08262 v -0.120588 c 0,0.0023 0.16748,-0.0023 0.28583,0.203211 z m 0.0603,0.171947 v 0.47788 c -0.0715,-0.207676 -0.2769,-0.241175 -0.2769,-0.241175 0,0 0.20544,-0.02904 0.2769,-0.236705 z m -0.27467,-0.09826 h 0.21661 c -0.12059,0.207682 -0.28807,0.203211 -0.28807,0.203211 v -0.120582 c 0.0581,-0.02458 0.0715,-0.08263 0.0715,-0.08263 z m 0.21437,0.674392 h -0.2166 c 0,0 -0.0111,-0.05806 -0.0692,-0.08262 v -0.120587 c 0,0 0.16748,-0.0046 0.28583,0.203211 z m 0.0603,0.171946 v 0.477881 c -0.0715,-0.207676 -0.2769,-0.238941 -0.2769,-0.238941 0,0 0.20544,-0.03127 0.2769,-0.23894 z m -0.27467,-0.09825 h 0.21661 c -0.12059,0.207676 -0.28807,0.203211 -0.28807,0.203211 v -0.120587 c 0.0581,-0.02458 0.0715,-0.08262 0.0715,-0.08262 z m 0.21437,0.674392 h -0.2166 c 0,0 -0.0111,-0.05806 -0.0692,-0.08263 v -0.118352 c 0,0 0.16748,-0.0067 0.28583,0.200981 z m 0.0603,0.174176 v 0.475645 c -0.0715,-0.207675 -0.2769,-0.238934 -0.2769,-0.238934 0,0 0.20544,-0.03127 0.2769,-0.236711 z m -0.27467,-0.09825 h 0.21661 c -0.12059,0.207676 -0.28807,0.200976 -0.28807,0.200976 v -0.120588 c 0.0581,-0.02235 0.0715,-0.08039 0.0715,-0.08039 z m 0.21437,0.672157 h -0.2166 c 0,0 -0.0111,-0.05806 -0.0692,-0.08039 v -0.120582 c 0,0 0.16748,-0.0067 0.28583,0.200976 z m 0.0603,0.174181 v 0.475646 c -0.0715,-0.207676 -0.2769,-0.236706 -0.2769,-0.236706 0,0 0.20544,-0.0335 0.2769,-0.23894 z m -0.27467,-0.09826 h 0.21661 c -0.12059,0.207676 -0.28807,0.200976 -0.28807,0.200976 v -0.118353 c 0.0581,-0.02458 0.0715,-0.08262 0.0715,-0.08262 z m 0.21437,0.672156 h -0.2166 c 0,0 -0.0111,-0.05806 -0.0692,-0.08039 v -0.120588 c 0,0 0.16748,-0.0046 0.28583,0.200976 z m 0.0603,0.171947 v 0.480115 c -0.0715,-0.207675 -0.2769,-0.241175 -0.2769,-0.241175 0,0 0.20544,-0.03127 0.2769,-0.23894 z m -0.27467,-0.09602 h 0.21661 c -0.12059,0.207676 -0.28807,0.200976 -0.28807,0.200976 v -0.118353 c 0.0581,-0.02235 0.0715,-0.08262 0.0715,-0.08262 z m 0.21437,0.676621 h -0.2166 c 0,0 -0.0111,-0.06029 -0.0692,-0.08486 v -0.118353 c 0,0 0.16748,-0.0046 0.28583,0.203211 z m 0.0603,0.169711 v 0.477881 c -0.0715,-0.207676 -0.2769,-0.24117 -0.2769,-0.24117 0,0 0.20544,-0.02904 0.2769,-0.236711 z m -0.27467,-0.09825 h 0.21661 c -0.12059,0.207675 -0.28807,0.203211 -0.28807,0.203211 v -0.120588 c 0.0581,-0.02458 0.0715,-0.08262 0.0715,-0.08262 z m 0.21437,0.674391 h -0.2166 c 0,0 -0.0111,-0.05806 -0.0692,-0.08486 v -0.118353 c 0,0.0023 0.16748,-0.0023 0.28583,0.203211 z m 0.0603,0.171947 v 0.47788 c -0.0715,-0.207681 -0.2769,-0.241175 -0.2769,-0.241175 0,0 0.20544,-0.02904 0.2769,-0.236705 z m -0.27467,-0.09826 h 0.21661 c -0.12059,0.207676 -0.28807,0.203211 -0.28807,0.203211 v -0.120587 c 0.0581,-0.02458 0.0715,-0.08262 0.0715,-0.08262 z m 0.21437,0.674392 h -0.2166 c 0,0 -0.0111,-0.05806 -0.0692,-0.08262 v -0.118353 c 0,0 0.16748,-0.0046 0.28583,0.200976 z m 0.0603,0.174181 v 0.236706 h -0.2769 c 0.002,0 0.20544,-0.02904 0.2769,-0.236706 z m -0.27467,-0.09826 h 0.21661 c -0.12059,0.205446 -0.28807,0.200982 -0.28807,0.200982 v -0.120588 c 0.0581,-0.02235 0.0715,-0.08039 0.0715,-0.08039 z m 1.14557,-12.520876 v -0.600698 h 0.24117 v 0.600698 z m -0.35953,-1.268389 c 0,-0.165247 0.13622,-0.301464 0.30147,-0.301464 0.16525,0 0.30146,0.136217 0.30146,0.301464 v 0.453316 h -0.60069 v -0.453313 z m 0,0.667691 h 0.24341 v 0.600698 h -0.24341 z m -0.18757,-7.6282 0.10942,0.564968 -0.38633,-0.207675 0.26128,-0.357293 z m -0.14962,-0.790509 0.11389,0.596227 -0.50691,-0.596227 z m -0.0357,-0.183117 h -0.39749 l 0.29477,-0.556033 z m -0.12952,-1.397906 v 0.513609 l -0.2702,-0.513609 z m -0.26797,-0.180882 0.2702,-0.511375 v 0.511375 z m 0,-1.395671 h 0.2702 v 0.511374 z m 0.26797,-0.183111 h -0.2702 l 0.2702,-0.511381 z m -0.26797,-1.397913 h 0.26797 v 0.511375 z m 0.26797,-0.183111 h -0.2702 l 0.2702,-0.511374 z m -0.32826,-0.607397 h 0.27913 l -0.27913,0.527009 z m 0,0.870902 0.27913,0.527004 h -0.27913 z m 0,0.710121 h 0.27913 l -0.27913,0.527004 z m 0,0.868667 0.27913,0.529239 h -0.27913 z m 0,0.710115 h 0.27913 l -0.27913,0.52701 z m 0,0.868673 0.27913,0.527004 h -0.27913 z m 0,0.710115 h 0.27913 l -0.27913,0.52924 z m 0,0.815074 0.49797,0.582839 h -0.49797 z m 0,0.76595 h 0.51361 l -0.22778,0.314863 -0.28807,-0.154081 v -0.160782 z m -0.0916,6.661275 c 0.19651,0 0.35506,0.160781 0.35506,0.357292 v 0.395258 h -0.71235 V 47.94358 c 0.002,-0.19874 0.15855,-0.357292 0.35729,-0.357292 z m -0.0916,-12.980892 v 0.527009 l -0.27914,-0.527009 z m -0.32827,0.09826 0.26797,0.509139 h -0.26797 z m 0,0.69225 h 0.26797 l -0.26797,0.509145 z m 0,0.886532 0.26797,0.511381 h -0.26797 z m 0,0.694492 h 0.26797 l -0.26797,0.509139 z m 0,0.884296 0.26797,0.511375 h -0.26797 z m 0,0.692257 h 0.26797 l -0.26797,0.511374 z m -0.0268,0.837402 0.29477,0.560504 h -0.39749 z m -0.14068,0.743621 h 0.39526 l -0.50915,0.596227 z m -0.14962,0.790509 h 0.0201 l 0.25903,0.357293 -0.38632,0.207675 z m -0.78828,6.960509 c 0,-0.165247 0.13623,-0.301464 0.30147,-0.301464 0.16749,0 0.30147,0.136217 0.30147,0.301464 v 0.453316 h -0.6007 v -0.453315 z m 0,0.667691 h 0.24341 v 0.600698 h -0.24341 z m -5.90426,31.866049 c 0,0 -0.49574,8.7827 0.3506,17.66813 h -10.12032 c 3.03922,-4.37684 9.04174,-13.431981 9.76972,-17.66813 z m -26.39515,8.12625 c -1.18353,0.41981 -1.88471,0.60739 -1.88471,0.60739 l -2.1728,8.93232"
     style="fill:#d2d4f8;fill-opacity:1;fill-rule:nonzero;stroke:#394599;stroke-width:0.785901;stroke-dasharray:none;stroke-opacity:1"
     id="path1-2"
     sodipodi:nodetypes="csccccccccccsssccsssccsssccccccccccccsccccccccccccccccccscscccccccccccccccccccccccccccccccccccccccccccccccccccccccccccscccccccccccccccscccccccccccccccscccccccccccccccscccccccccccccccscccccccccccccccscccccccccccccccscccccccccccccccscccccccccccccccsccccscccccccccccscccccccccccccccsccccscccccccccccsccccscccccccccccscccccccccccccccscccccccccccccccscccccccccccccccccccccccccccccccccscccccccccccccccscccccccccccccccscccccccccccccccscccccccccccccccscccccccccccccccscccccccccccccccscccccccccccccccscccccccccccccccscccccccccccccccscccccccccccccccscccccccccccccccscccccccccccccccscccccccccccccccscccccccccccccccscccccccccccccccsccccccccccccccccccscccccccccccccccccccccccccccccccccccccccccccccccccccccccccccccccccccccccccccccccsccccsccccscccccccccccccccccccccccccccccccccccccccccccsccccccccccccccccc" />
  <path
     d="m 464.31734,98.68386 c 0.0812,-3.664204 -0.89424,-16.429893 -0.65043,-19.788446 0.24709,-3.355322 0,-8.199728 0,-8.199728 0,0 0,-0.06173 0.003,-0.152818 0.19833,0.51046 0.0943,1.13795 0.0943,1.13795 l 0.20484,-0.149556 c 0.32187,0.477934 0.11706,1.450065 0.11706,1.450065 0.15933,-0.07804 0.31213,-0.299113 0.31213,-0.299113 0.23735,0.451931 0.0488,1.456573 0.0488,1.456573 l 0.28285,-0.279603 c 0.20484,0.318623 0.0976,1.238732 0.0976,1.238732 0.52345,-0.7738 0.69902,-1.557369 0.68602,-2.282394 l 0.41941,-0.227596 c 0.35115,0.604734 0.0814,1.752439 0.0814,1.752439 l 0.49418,-0.341394 c 0.25035,0.481195 0.14631,1.580126 0.14631,1.580126 l 0.44217,-0.28285 c -0.1105,0.666511 0.41291,1.189972 0.41291,1.189972 1.13145,-3.160252 -0.0195,-5.335356 -1.34928,-6.678131 0.60473,0.338132 1.07944,1.251734 1.07944,1.251734 0.0943,-0.201578 0.0651,-0.546219 0.0651,-0.546219 0.60148,0.260108 1.22247,1.407813 1.22247,1.407813 l 0.052,-0.503952 c 0.46169,0.149556 1.09569,1.147705 1.09569,1.147705 -0.22434,-2.545763 -2.05155,-3.86252 -3.47237,-4.506274 l 0.0944,-0.260093 c 0.66326,0.15605 1.23873,0.705516 1.23873,0.705516 l 0.0259,-0.32187 c 0.62099,0.185315 1.38828,1.050156 1.38828,1.050156 l 0.078,-0.377137 c 0.58524,0.107304 1.21598,0.468179 1.21598,0.468179 -1.59638,-2.24339 -3.71621,-2.607526 -5.00372,-2.588016 l -0.1073,-0.146309 c 0.87784,-0.27311 1.81421,0.07149 1.81421,0.07149 l -0.21133,-0.373905 c 0.77055,-0.08459 2.07757,0.474687 2.07757,0.474687 l -0.091,-0.474687 c 0.65676,0.02271 1.63215,0.474687 1.63215,0.474687 l -0.0715,-0.338132 c 0.634,0.02286 1.51184,0.338132 1.51184,0.338132 -1.81421,-1.996283 -3.87877,-2.12633 -5.49466,-1.752439 -0.12682,-0.08779 -0.30887,-0.143121 -0.30887,-0.143121 0.34138,-0.357642 1.32002,-0.49095 1.32002,-0.49095 l -0.34154,-0.172316 c 0.22758,-0.286111 1.10542,-0.468179 1.10542,-0.468179 -1.63213,-0.455178 -2.91964,0.211333 -3.77472,0.942866 -0.15932,-1.258242 -0.77056,-2.893636 -2.67905,-4.099857 0,0 0.39339,0.607981 0.53645,1.186711 l -0.37389,0.09755 c 0,0 0.90386,0.718532 1.12494,1.329788 l -0.31863,0.03902 c 0,0 0.57873,0.546204 0.77382,1.199712 l -0.38366,0.159326 c 0,0 0.37064,0.341379 0.58522,0.835576 -0.0259,0.02927 -0.0456,0.05533 -0.0683,0.08124 -1.18022,-1.349283 -4.01208,-3.732474 -7.9884,-1.511856 0,0 0.58198,0.412925 1.19648,0.201578 l -0.19834,0.468194 c 0,0 1.02741,-0.276357 1.52485,-0.11706 l -0.24709,0.526709 c 0,0 1.04691,-0.438929 1.67766,-0.201593 l -0.17233,0.507214 c 0,0 1.05342,-0.377152 1.59638,-0.130018 l -0.0358,0.318623 c -1.12818,-0.178836 -2.55224,-0.06494 -4.08361,0.871335 0,0 0.7218,-0.08124 1.30377,0.04877 l -0.0683,0.341379 c -1.50859,0.419419 -3.06595,1.472821 -3.95681,3.869014 0,0 0.70879,-0.06173 1.04042,-0.620982 l 0.15281,0.48118 c 0,0 0.60474,-0.874596 1.08592,-1.072912 l 0.15282,0.559206 c 0,0 0.5137,-1.011137 1.14769,-1.238733 l 0.19508,0.500706 c 0,0 0.55922,-0.968885 1.13144,-1.134704 l 0.31863,0.468179 c 0,0 0.40966,-0.786802 0.95263,-0.920095 l 0.091,0.526694 c 0,0 0.30562,-0.318622 0.86809,-0.526694 0.0131,0.03582 0.0259,0.07469 0.039,0.107304 -1.47609,0.660002 -3.87228,2.132838 -4.74687,4.9777 -1.92149,0.02592 -3.31304,1.254995 -4.01207,2.051552 -0.0195,-0.01951 -0.0358,-0.04557 -0.0553,-0.06829 0.17556,-0.422665 0.49419,-0.712023 0.49419,-0.712023 l -0.32513,-0.136569 c 0.16582,-0.555974 0.66002,-1.020906 0.66002,-1.020906 l -0.27312,-0.03261 c 0.18857,-0.5202 0.95588,-1.131442 0.95588,-1.131442 l -0.31538,-0.08459 c 0.11706,-0.494197 0.45193,-1.011151 0.45193,-1.011151 -1.62239,1.027399 -2.14259,2.415702 -2.27588,3.488615 -0.73155,-0.624244 -1.82723,-1.189958 -3.21228,-0.80305 0,0 0.74455,0.15605 0.93962,0.396647 l -0.2926,0.14631 c 0,0 0.83233,0.113856 1.12493,0.419419 0,0 -0.15606,0.04222 -0.2666,0.120262 -1.37204,-0.318622 -3.12774,-0.204839 -4.67209,1.492332 0,0 0.74455,-0.27311 1.28426,-0.289373 l -0.0585,0.289373 c 0,0 0.82582,-0.386908 1.38504,-0.406403 l -0.0747,0.406403 c 0,0 1.10868,-0.474687 1.76544,-0.406403 l -0.18207,0.318623 c 0,0 0.79656,-0.292619 1.54111,-0.05853 l -0.0878,0.120263 c -1.09242,-0.01631 -2.90014,0.295865 -4.25592,2.204369 0,0 0.5332,-0.305621 1.03391,-0.396662 l 0.0649,0.318622 c 0,0 0.6535,-0.731533 1.18021,-0.890859 l 0.0195,0.276371 c 0,0 0.49095,-0.464932 1.05342,-0.601487 l 0.0812,0.221088 c -1.20948,0.549465 -2.76034,1.667906 -2.95216,3.833255 0,0 0.53971,-0.848592 0.92986,-0.975377 l 0.0456,0.429159 c 0,0 0.52996,-0.975378 1.04042,-1.196466 0,0 -0.0259,0.292605 0.0553,0.464933 0,0 0.40316,-0.777062 0.91687,-1.066419 -1.1282,1.144444 -2.10684,2.991171 -1.14771,5.676735 0,0 0.44542,-0.445436 0.3544,-1.011165 l 0.37389,0.243859 c 0,0 -0.0878,-0.936372 0.12681,-1.346022 l 0.41942,0.292605 c 0,0 -0.23084,-0.975393 0.0715,-1.492332 l 0.35438,0.191823 c -0.0131,0.61775 0.13657,1.28426 0.58198,1.941015 0,0 -0.0878,-0.780308 0.0846,-1.053417 l 0.2406,0.240598 c 0,0 -0.15933,-0.855086 0.0422,-1.238732 0,0 0.12681,0.191808 0.26335,0.253584 0,0 -0.17231,-0.825821 0.10076,-1.232238 l 0.17232,0.126814 c 0,0 -0.0878,-0.533202 0.0813,-0.968869 0.003,0.08124 0.003,0.13322 0.003,0.13322 0,0 -0.21133,4.119367 0,6.973998 0.20808,2.854616 0.078,8.814202 0.14631,11.928926 m 12.8662,-26.990157 c 0.21133,0.318622 0.21784,0.877843 0.18857,1.254995 -0.0488,-0.438929 -0.15606,-0.855086 -0.29911,-1.225745 z m -0.70553,-1.206235 c 0.0585,0.07804 0.0975,0.169066 0.12681,0.266615 -0.052,-0.091 -0.1041,-0.172327 -0.1528,-0.247106 z m -4.9647,-3.400835 c -0.45518,0.0131 -0.94937,0.06828 -1.44682,0.191822 0.33163,-0.136569 1.02415,-0.390154 1.49884,-0.338132 z m 1.35902,0.07484 c -0.23082,-0.03247 -0.49093,-0.05533 -0.7738,-0.06828 0.23735,-0.03582 0.51371,-0.05198 0.77706,-0.01019 z m -10.22526,14.107292 c -0.0229,-0.325116 -0.0229,-0.799803 0.15931,-1.069666 l 0.091,0.02592 c -0.11386,0.315376 -0.21133,0.669772 -0.25035,1.043663 z m 0.65026,-1.869484 c 0.0259,-0.08124 0.0585,-0.159311 0.10731,-0.227596 l 0.0229,0.01616 c -0.0422,0.06508 -0.0846,0.136569 -0.13002,0.211347 z m 10.72596,-13.177486 -0.0944,0.159312 c -0.21459,-0.07804 -0.45193,-0.15605 -0.70879,-0.217827 0.25686,-0.04222 0.56573,-0.05853 0.80308,0.05853 z m -6.10265,9.032058 -0.14633,-0.432421 c 0.0878,-0.03247 0.18859,-0.04877 0.28938,-0.05198 -0.0195,0.204824 -0.0293,0.422665 -0.0358,0.637245 -0.51695,-0.07149 -1.00464,-0.05853 -1.43706,0.0073 l -0.0293,-0.269848 c 0.46493,-0.208086 1.35904,0.110507 1.35904,0.110507 z m 0.13657,1.063172 c -0.14631,-0.0131 -0.28938,-0.02927 -0.42918,-0.03261 l -0.0422,-0.123466 c 0.13977,-0.01631 0.29911,0.0073 0.46167,0.03582 0,0.04222 0.007,0.08124 0.0102,0.120262 z m 0.4064,-0.0131 c 0.15606,0.05198 0.29911,0.100752 0.39665,0.143121 -0.1463,-0.03582 -0.28936,-0.05533 -0.42916,-0.07804 0.0102,-0.01951 0.0195,-0.04222 0.0325,-0.06508 z m -1.33628,-0.01631 c -0.23734,0.01019 -0.45843,0.03261 -0.65351,0.05853 l -0.007,-0.06173 c 0.22433,-0.04222 0.45842,-0.02927 0.66002,0.0029 z m -0.95262,-0.790063 c -0.21458,0.05198 -0.41616,0.117059 -0.60149,0.185315 l -0.078,-0.133366 c 0.19833,-0.100753 0.46169,-0.091 0.67953,-0.05198 z m -0.77705,3.937298 0.11706,-0.136569 c 0.33487,0.438914 0.42917,1.414307 0.42917,1.414307 l 0.24383,-0.217841 c 0.34789,0.367397 0.59824,0.933111 0.59824,0.933111 0.0102,-0.933111 -0.18207,-1.697156 -0.47793,-2.327908 l 0.1528,-0.08459 c 0.54297,0.435682 0.69578,1.05017 0.69578,1.05017 l 0.42592,-0.185329 c 0.39016,0.803065 0.35763,1.300523 0.35763,1.300523 l 0.42268,-0.02592 c 0.25685,0.552712 0.30887,1.206206 0.30887,1.206206 l 0.38689,-0.178807 c 0.36415,0.494183 0.42268,1.193204 0.42268,1.193204 l 0.41616,-0.276356 c 0.0878,0.975393 0.64051,1.420815 0.64051,1.420815 0.53969,-4.421741 -2.57177,-6.424532 -4.26243,-7.178822 0.0131,-0.03247 0.0259,-0.06173 0.0326,-0.09435 0.48118,0.182068 0.73803,0.451931 0.73803,0.451931 l 0.078,-0.451931 c 0.45844,0.11706 0.80631,0.783555 0.80631,0.783555 l 0.26986,-0.396647 c 0.49095,0.139772 0.96562,0.962376 0.96562,0.962376 l 0.16582,-0.425913 c 0.53647,0.19507 0.97538,1.053403 0.97538,1.053403 l 0.12682,-0.474687 c 0.41291,0.165819 0.9266,0.913616 0.9266,0.913616 l 0.12681,-0.412911 c 0.28287,0.474687 0.88435,0.526709 0.88435,0.526709 -0.75753,-2.032057 -2.08081,-2.932656 -3.36507,-3.287052 l -0.0585,-0.292619 c 0.49746,-0.107305 1.10868,-0.03902 1.10868,-0.03902 -0.44542,-0.273109 -0.88109,-0.461685 -1.30051,-0.585224 0.0358,-0.143121 0.0649,-0.295866 0.0813,-0.468193 l 0.4877,0.325131 c 0,0 0.039,-0.445423 0.22758,-0.913616 0.37065,0.03261 0.72829,0.130017 0.72829,0.130017 l -0.16582,-0.399909 c 0.5202,0.182083 1.0144,-0.172313 1.0144,-0.172313 -0.26336,-0.14631 -0.5202,-0.26334 -0.77056,-0.364136 0.0553,-0.266601 0.14312,-0.594979 0.28287,-0.897353 l 0.49744,0.03261 c 0,0 -0.0358,-0.585224 0.41942,-1.528105 l 0.50069,0.214594 c 0,0 0.18207,-0.721792 0.81933,-1.232238 l 0.17882,0.100753 c -0.34464,0.738041 -0.57548,1.641902 -0.56247,2.734324 0,0 0.29587,-0.660001 0.70553,-1.092422 l 0.28611,0.256846 c 0,0 0.11051,-1.147705 0.50069,-1.664659 l 0.13657,0.159326 c 0.20158,1.836957 0.10076,5.527165 0.10076,7.045514 0,1.833726 -0.0293,18.299678 -0.091,20.556069 -0.0617,2.259654 -8.71699,-0.505425 -8.74949,-1.786424 -0.0553,-1.921505 -0.078,-9.627036 -0.078,-11.184391 0.007,-1.290768 -0.078,-4.428248 0.091,-5.988865 z"
     style="fill:none;fill-opacity:1;fill-rule:nonzero;stroke:#394599;stroke-width:1.14424;stroke-dasharray:none;stroke-opacity:1"
     id="path1-23"
     sodipodi:nodetypes="cccccccccccccccccccccccccccccccccccccccccccccccccccccccccccccccccccccccccccccccccccccccccccccccccccccccccccccccccccccccccccccccccccccccccccccccccccccccccccscccccccccscccccccccsccccssccsscccccsccsscccccccccccccccccccccccccccccccccccccccccccccccccccsscccc" />
  <metadata
     id="metadata36">
    <rdf:RDF>
      <cc:Work
         rdf:about="">
        <dc:title>decoraton-city</dc:title>
      </cc:Work>
    </rdf:RDF>
  </metadata>
</svg>
