<?xml version="1.0" encoding="UTF-8" standalone="no"?>
<svg
   viewBox="0 0 317.059 189.688"
   version="1.1"
   id="svg228"
   sodipodi:docname="header-illustration.svg"
   inkscape:version="1.3.2 (091e20e, 2023-11-25)"
   xmlns:inkscape="http://www.inkscape.org/namespaces/inkscape"
   xmlns:sodipodi="http://sodipodi.sourceforge.net/DTD/sodipodi-0.dtd"
   xmlns="http://www.w3.org/2000/svg"
   xmlns:svg="http://www.w3.org/2000/svg"
   xmlns:rdf="http://www.w3.org/1999/02/22-rdf-syntax-ns#"
   xmlns:cc="http://creativecommons.org/ns#"
   xmlns:dc="http://purl.org/dc/elements/1.1/">
  <sodipodi:namedview
     id="namedview228"
     pagecolor="#ffffff"
     bordercolor="#000000"
     borderopacity="0.25"
     inkscape:showpageshadow="2"
     inkscape:pageopacity="0.0"
     inkscape:pagecheckerboard="0"
     inkscape:deskcolor="#d1d1d1"
     inkscape:zoom="2.1960112"
     inkscape:cx="154.82617"
     inkscape:cy="91.301903"
     inkscape:window-width="1512"
     inkscape:window-height="792"
     inkscape:window-x="0"
     inkscape:window-y="225"
     inkscape:window-maximized="0"
     inkscape:current-layer="Layer_6" />
  <defs
     id="defs3">
    <style
       id="style1">.cls-1{isolation:isolate;}.cls-2{fill:url(#linear-gradient);}.cls-3{fill:#e0e3fd;}.cls-4{fill:#d1d4fc;}.cls-5{fill:#b2b8fa;}.cls-6{fill:#f3f4fe;}.cls-55,.cls-7{fill:#c1c6fb;}.cls-8{fill:#ffcebd;}.cls-9{fill:#ff5574;}.cls-10,.cls-145{fill:#191c3c;}.cls-11{fill:#6168ff;}.cls-12,.cls-22{fill:#fff;}.cls-13{fill:#4d5068;}.cls-14,.cls-18{fill:#231f20;}.cls-14{opacity:0.15;}.cls-15{fill:#474963;}.cls-16{fill:#75778a;}.cls-17{fill:#3b479a;}.cls-145,.cls-18{opacity:0.3;}.cls-19{fill:#ffc043;}.cls-20,.cls-30{fill:#f0f1fe;}.cls-21{mix-blend-mode:multiply;}.cls-22,.cls-66{opacity:0;}.cls-23,.cls-68{fill:#fdfdff;}.cls-23,.cls-67{opacity:0.024;}.cls-24,.cls-70{fill:#fbfcff;}.cls-24,.cls-69{opacity:0.049;}.cls-25,.cls-72{fill:#f9faff;}.cls-25,.cls-71{opacity:0.073;}.cls-26,.cls-74{fill:#f7f8ff;}.cls-26,.cls-73{opacity:0.098;}.cls-27,.cls-76{fill:#f6f6fe;}.cls-27,.cls-75{opacity:0.122;}.cls-28,.cls-78{fill:#f4f5fe;}.cls-28,.cls-77{opacity:0.146;}.cls-29,.cls-80{fill:#f2f3fe;}.cls-29,.cls-79{opacity:0.171;}.cls-30,.cls-81{opacity:0.195;}.cls-31,.cls-83{fill:#eeeffe;}.cls-31,.cls-82{opacity:0.22;}.cls-32,.cls-85{fill:#eceefe;}.cls-32,.cls-84{opacity:0.244;}.cls-33,.cls-87{fill:#eaecfe;}.cls-33,.cls-86{opacity:0.268;}.cls-34,.cls-89{fill:#e8eafe;}.cls-34,.cls-88{opacity:0.293;}.cls-35,.cls-91{fill:#e7e8fd;}.cls-35,.cls-90{opacity:0.317;}.cls-36,.cls-93{fill:#e5e7fd;}.cls-36,.cls-92{opacity:0.341;}.cls-37,.cls-95{fill:#e3e5fd;}.cls-37,.cls-94{opacity:0.366;}.cls-38,.cls-97{fill:#e1e3fd;}.cls-38,.cls-96{opacity:0.39;}.cls-39,.cls-99{fill:#dfe2fd;}.cls-39,.cls-98{opacity:0.415;}.cls-101,.cls-40{fill:#dde0fd;}.cls-100,.cls-40{opacity:0.439;}.cls-103,.cls-41{fill:#dbdefd;}.cls-102,.cls-41{opacity:0.463;}.cls-105,.cls-42{fill:#d9dcfd;}.cls-104,.cls-42{opacity:0.488;}.cls-107,.cls-43{fill:#d8dbfc;}.cls-106,.cls-43{opacity:0.512;}.cls-109,.cls-44{fill:#d6d9fc;}.cls-108,.cls-44{opacity:0.537;}.cls-111,.cls-45{fill:#d4d7fc;}.cls-110,.cls-45{opacity:0.561;}.cls-113,.cls-46{fill:#d2d5fc;}.cls-112,.cls-46{opacity:0.585;}.cls-115,.cls-47{fill:#d0d4fc;}.cls-114,.cls-47{opacity:0.61;}.cls-117,.cls-48{fill:#ced2fc;}.cls-116,.cls-48{opacity:0.634;}.cls-119,.cls-49{fill:#ccd0fc;}.cls-118,.cls-49{opacity:0.659;}.cls-121,.cls-50{fill:#cacffc;}.cls-120,.cls-50{opacity:0.683;}.cls-123,.cls-51{fill:#c9cdfb;}.cls-122,.cls-51{opacity:0.707;}.cls-125,.cls-52{fill:#c7cbfb;}.cls-124,.cls-52{opacity:0.732;}.cls-127,.cls-53{fill:#c5c9fb;}.cls-126,.cls-53{opacity:0.756;}.cls-129,.cls-54{fill:#c3c8fb;}.cls-128,.cls-54{opacity:0.78;}.cls-130,.cls-55{opacity:0.805;}.cls-132,.cls-56{fill:#bfc4fb;}.cls-131,.cls-56{opacity:0.829;}.cls-134,.cls-57{fill:#bdc2fb;}.cls-133,.cls-57{opacity:0.854;}.cls-136,.cls-58{fill:#bbc1fb;}.cls-135,.cls-58{opacity:0.878;}.cls-138,.cls-59{fill:#babffa;}.cls-137,.cls-59{opacity:0.902;}.cls-140,.cls-60{fill:#b8bdfa;}.cls-139,.cls-60{opacity:0.927;}.cls-142,.cls-61{fill:#b6bbfa;}.cls-141,.cls-61{opacity:0.951;}.cls-144,.cls-62{fill:#b4bafa;}.cls-143,.cls-62{opacity:0.976;}.cls-63{fill:#ffdfd6;}.cls-64{fill:#717386;}.cls-65{fill:#3a3c4e;}.cls-146{fill:#fe5e31;}.cls-147{opacity:0.35;}.cls-148{fill:#ff5f00;}.cls-149{fill:#ff7f33;}</style>
    <linearGradient
       id="linear-gradient"
       x1="35.199"
       y1="214.99"
       x2="282.198"
       y2="54.991"
       gradientUnits="userSpaceOnUse">
      <stop
         offset="0"
         stop-color="#dfe1fd"
         id="stop1" />
      <stop
         offset="0.454"
         stop-color="#ebecfe"
         id="stop2" />
      <stop
         offset="1"
         stop-color="#f4f5fe"
         id="stop3" />
    </linearGradient>
    <clipPath
       id="0b7297a62e">
      <path
         d="M 286,66 H 705.84766 V 486 H 286 Z m 0,0"
         clip-rule="nonzero"
         id="path1" />
    </clipPath>
    <clipPath
       id="e21bf7d7f4">
      <path
         d="M 301,141 H 705.84766 V 394 H 301 Z m 0,0"
         clip-rule="nonzero"
         id="path2" />
    </clipPath>
    <clipPath
       id="46781a71dc">
      <path
         d="M 534,267 H 705.84766 V 405 H 534 Z m 0,0"
         clip-rule="nonzero"
         id="path3" />
    </clipPath>
    <clipPath
       id="f6713354b4">
      <path
         d="m 636.68359,148.72266 h 89.59375 v 62.96875 h -89.59375 z m 0,0"
         clip-rule="nonzero"
         id="path4" />
    </clipPath>
  </defs>
  <title
     id="title3">header-illustration</title>
  <g
     class="cls-1"
     id="g228">
    <g
       id="Graphics">
      <g
         id="Layer_6"
         data-name="Layer 6">
        <rect
           class="cls-3"
           x="235.476"
           y="112.758"
           width="63.825001"
           height="74.807999"
           rx="3.3399999"
           ry="3.3399999"
           id="rect3" />
        <rect
           class="cls-4"
           x="240.55499"
           y="118.566"
           width="53.667"
           height="17.333"
           rx="1.813"
           ry="1.813"
           id="rect4" />
        <rect
           class="cls-4"
           x="240.55499"
           y="141.399"
           width="53.667"
           height="17.333"
           rx="1.813"
           ry="1.813"
           id="rect5" />
        <rect
           class="cls-4"
           x="240.55499"
           y="164.233"
           width="53.667"
           height="17.333"
           rx="1.813"
           ry="1.813"
           id="rect6" />
        <path
           class="cls-3"
           d="m 104.88097,139.76537 a 11.256,11.256 0 0 0 -0.885,-4.378 23.868,23.868 0 0 0 -4.61,20.924 l 1.393,1.294 a 14.47,14.47 0 0 0 4.029,-8.385 43.082,43.082 0 0 0 0.073,-9.455 z"
           id="path16" />
        <path
           class="cls-3"
           d="m 117.58497,147.88437 a 0.734,0.734 0 0 0 -0.407,-0.19 10.624,10.624 0 0 0 -12.943,10.375 l 0.939,1.134 c 1.981,0.54 4.051,-0.469 5.695,-1.7 a 20.268,20.268 0 0 0 6.714,-8.856 0.759,0.759 0 0 0 0.002,-0.763 z"
           id="path17" />
        <path
           class="cls-3"
           d="m 86.834972,147.71337 c -2.106,-1.711 -4.557,-3.384 -7.266,-3.219 a 0.861,0.861 0 0 0 -0.75,0.339 c -0.3,0.561 0.652,0.984 0.836,1.591 a 2.282,2.282 0 0 1 -0.14,1.086 3.54,3.54 0 0 0 0.328,1.974 15.509,15.509 0 0 0 16.114,9.324 l 0.823998,-1.294 a 73.172,73.172 0 0 0 -9.945998,-9.801 z"
           id="path18" />
        <path
           class="cls-3"
           d="m 94.597972,157.90737 c 4.724998,4.487 5.331998,11.144 4.516998,17.287 -0.177,1.337 1.927,1.324 2.1,0 0.887,-6.691 -0.026,-13.924 -5.133,-18.773 a 1.052,1.052 0 0 0 -1.486998,1.487 v 0 z"
           id="path19" />
        <path
           class="cls-3"
           d="m 99.21297,155.77537 c 1,5.906 -0.275,11.872 0.356,17.806 0.142,1.332 2.246,1.346 2.1,0 -0.652,-6.129 0.6,-12.257 -0.431,-18.365 -0.225,-1.331 -2.252,-0.767 -2.028,0.559 v 0 z"
           id="path20" />
        <path
           class="cls-3"
           d="m 105.37497,155.35537 a 29.613,29.613 0 0 0 -4.3,8.494 c -0.88,3.311 -0.628,7.035 -0.78,10.436 a 1.052,1.052 0 0 0 2.1,0 c 0.143,-3.205 -0.089,-6.762 0.705,-9.877 a 27.463,27.463 0 0 1 4.085,-7.992 c 0.752,-1.129 -1.068,-2.183 -1.816,-1.061 v 0 z"
           id="path21" />
        <path
           class="cls-5"
           d="m 107.74397,187.52837 h -11.737 a 1.063,1.063 0 0 1 -1.026998,-0.791 l -4,-15.082 a 1.063,1.063 0 0 1 1.027,-1.335 h 19.727998 a 1.063,1.063 0 0 1 1.027,1.335 l -4,15.082 a 1.063,1.063 0 0 1 -1.018,0.791 z"
           id="path22" />
        <path
           class="cls-7"
           d="m 103.46197,137.65537 c -1.563,5.891 -1.576,12.034 -3,17.952 a 0.152,0.152 0 0 0 0.293,0.081 c 1.423,-5.918 1.436,-12.062 3,-17.952 a 0.152,0.152 0 0 0 -0.293,-0.081 z"
           id="path23" />
        <path
           class="cls-7"
           d="m 105.39297,157.38237 a 20.1,20.1 0 0 1 10.417,-8.243 c 0.183,-0.064 0.1,-0.358 -0.081,-0.293 a 20.431,20.431 0 0 0 -10.6,8.383 0.152,0.152 0 0 0 0.262,0.153 v 0 z"
           id="path24" />
        <path
           class="cls-7"
           d="m 80.270972,146.37537 a 12.182,12.182 0 0 0 4.69,5.493 c 3,2.1 6.853,3.135 9.6,5.49 0.173,0.149 0.427,-0.1 0.252,-0.252 -1.911,-1.639 -4.346,-2.315 -6.51,-3.55 -3.107,-1.773 -6.314,-3.82 -7.689,-7.275 -0.084,-0.211 -0.429,-0.119 -0.344,0.095 v 0 z"
           id="path25" />
        <rect
           class="cls-12"
           x="228.896"
           y="20.275"
           width="55.299999"
           height="48.256001"
           rx="5.1469998"
           ry="5.1469998"
           id="rect107" />
        <rect
           class="cls-20"
           x="249.772"
           y="39.479"
           width="30.204"
           height="1.777"
           id="rect112" />
        <rect
           class="cls-20"
           x="249.772"
           y="44.652"
           width="30.204"
           height="1.777"
           id="rect113" />
        <g
           id="_Group_29"
           data-name="&lt;Group&gt;"
           transform="translate(42,-2)">
          <path
             id="_Path_19"
             data-name="&lt;Path&gt;"
             class="cls-11"
             d="m 234.8,100.061 -1.255,-0.836 a 0.522,0.522 0 0 0 -0.579,0 l -1.255,0.836 a 0.242,0.242 0 0 1 -0.333,-0.224 v -5.5 h 3.754 v 5.5 a 0.242,0.242 0 0 1 -0.332,0.224 z" />
          <path
             id="_Path_20"
             data-name="&lt;Path&gt;"
             class="cls-19"
             d="m 237.161,96.887 -3.771,-1.921 a 0.251,0.251 0 0 0 -0.234,0 l -3.72,2.018 a 0.251,0.251 0 0 1 -0.368,-0.26 l 0.661,-4.18 a 0.251,0.251 0 0 0 -0.075,-0.221 l -3.068,-2.914 a 0.251,0.251 0 0 1 0.133,-0.43 l 4.18,-0.663 a 0.251,0.251 0 0 0 0.187,-0.14 l 1.823,-3.819 a 0.251,0.251 0 0 1 0.45,-0.006 l 1.922,3.77 a 0.252,0.252 0 0 0 0.191,0.135 l 4.2,0.554 a 0.251,0.251 0 0 1 0.145,0.427 l -2.992,2.993 a 0.251,0.251 0 0 0 -0.069,0.223 l 0.769,4.162 a 0.251,0.251 0 0 1 -0.364,0.272 z" />
        </g>
        <g
           clip-path="url(#0b7297a62e)"
           id="g5"
           transform="matrix(0.4451865,0,0,0.4451865,-7.59447,-28.308655)">
          <path
             fill="#dfe1fd"
             d="M 598.69141,447.24609 C 703.65234,381.65234 705.06641,263.76172 705.03125,258.35156 704.66016,199.28125 677.54297,113.94531 604.25391,81.257812 569.51953,65.761719 514.61719,57.742188 475.47266,83.832031 438.92187,108.19531 454.76172,136.53906 414.4375,185.19922 367.99609,241.23828 330.64062,233.66406 299.5,282.60937 c -20.56641,32.32422 -11.49219,71.44922 -8.89063,82.67188 19.07813,82.26953 119.21485,110.55078 130.44922,113.53906 89.15625,23.71485 162.54297,-22.14453 177.63282,-31.57422"
             fill-opacity="1"
             fill-rule="nonzero"
             id="path5" />
        </g>
        <g
           clip-path="url(#e21bf7d7f4)"
           id="g6"
           transform="matrix(0.4451865,0,0,0.4451865,-7.59447,-28.308655)">
          <path
             fill="#6168ff"
             d="m 400.45312,142.65625 295.13672,-0.85938 c 5.9336,0 10.59375,5.06641 10.06641,10.94532 L 685,384.27344 c -0.46484,5.18359 -4.83594,9.16015 -10.06641,9.16015 l -363.55078,-0.0547 c -5.93359,0 -10.65234,-5.58985 -10.125,-11.46875 l 20.66016,-230.09375 c 0.46484,-5.1875 4.66406,-9.72657 9.89844,-9.72657 l 68.63671,0.56641"
             fill-opacity="1"
             fill-rule="nonzero"
             id="path6" />
        </g>
        <path
           fill="#ffffff"
           d="m 164.41619,35.199978 h 131.37002 c 2.64329,0 4.71794,2.265924 4.48318,4.898793 L 291.1135,142.98729 c -0.20695,2.31984 -2.14943,4.10057 -4.47968,4.10057 H 124.78069 c -2.64156,0 -4.71619,-2.26592 -4.48143,-4.89877 L 129.4534,39.300566 c 0.20695,-2.32158 2.1529,-4.100588 4.48318,-4.100588 h 30.47961"
           fill-opacity="1"
           fill-rule="nonzero"
           id="path7"
           style="stroke-width:0.445186" />
        <path
           fill="#000000"
           d="m 135.94166,147.43046 -11.16097,-0.005 c -1.35295,0 -2.65373,-0.57388 -3.56845,-1.57033 -0.91472,-0.99992 -1.37034,-2.34766 -1.25035,-3.6954 l 9.15589,-102.8884 c 0.22259,-2.512873 2.29549,-4.410138 4.81879,-4.410138 h 30.47962 c 0.18608,0 0.33738,0.15129 0.33738,0.339117 0,0.186075 -0.1513,0.337365 -0.33738,0.337365 h -30.47961 c -2.17203,0 -3.95278,1.631184 -4.14581,3.792777 l -9.15414,102.888499 c -0.10434,1.15993 0.28867,2.31812 1.07471,3.17893 0.78603,0.85908 1.90421,1.35121 3.06935,1.35121 l 11.16097,0.005 c 0.18606,0 0.33736,0.15304 0.33736,0.33912 0,0.18608 -0.1513,0.33736 -0.33736,0.33736"
           fill-opacity="1"
           fill-rule="nonzero"
           id="path8"
           style="stroke-width:0.445186" />
        <path
           fill="#000000"
           d="m 295.28016,97.173077 c -0.01,0 -0.0208,0 -0.0312,0 -0.18607,-0.01739 -0.32345,-0.180857 -0.3078,-0.366932 l 4.99096,-56.735202 c 0.10264,-1.161659 -0.28868,-2.319841 -1.07645,-3.178908 -0.78603,-0.859066 -1.90421,-1.35294 -3.06936,-1.35294 H 164.41619 c -0.18781,0 -0.3391,-0.151302 -0.3391,-0.337377 0,-0.187815 0.15129,-0.339105 0.3391,-0.339105 h 131.37002 c 1.3547,0 2.65546,0.572127 3.56845,1.572061 0.91473,0.999934 1.37034,2.345929 1.25034,3.693665 l -4.99096,56.73694 c -0.0139,0.17564 -0.16171,0.307798 -0.33388,0.307798"
           fill-opacity="1"
           fill-rule="nonzero"
           id="path9"
           style="stroke-width:0.445186" />
        <path
           fill="#dfe1fd"
           d="m 167.33772,39.390995 h 124.03836 c 2.492,0 4.45013,2.092023 4.23102,4.521424 l -8.64462,94.967321 c -0.19477,2.14073 -2.03291,3.78409 -4.23102,3.78409 H 129.91598 c -2.49548,0 -4.4536,-2.09202 -4.23101,-4.52143 l 8.64288,-94.967325 c 0.19477,-2.140723 2.03116,-3.78408 4.23101,-3.78408 h 28.77886"
           fill-opacity="1"
           fill-rule="nonzero"
           id="path10"
           style="stroke-width:0.445186" />
        <path
           fill="#6168ff"
           d="m 295.03497,50.245897 0.57213,-6.286518 c 0.21911,-2.43114 -1.73902,-4.535339 -4.23276,-4.535339 H 138.55886 c -2.19985,0 -4.03624,1.655533 -4.23101,3.797995 l -0.63822,7.023862 h 161.34534"
           fill-opacity="1"
           fill-rule="nonzero"
           id="path11"
           style="stroke-width:0.445186" />
        <path
           fill="#6168ff"
           d="m 144.0437,55.129024 138.56256,0.313029 c 3.0763,0.0073 5.48484,2.653727 5.20311,5.717869 l -6.47085,70.308158 c -0.25042,2.70417 -2.52505,4.77011 -5.23964,4.75794 l -138.56081,-0.62953 c -3.07284,-0.0122 -5.47441,-2.65894 -5.19095,-5.71786 l 6.46912,-69.995146 c 0.25041,-2.698948 2.51808,-4.761404 5.22746,-4.75446"
           fill-opacity="1"
           fill-rule="nonzero"
           id="path12"
           style="stroke-width:0.445186" />
        <path
           fill="#000000"
           d="m 170.42274,147.65652 c -0.18608,0 -0.33736,-0.14954 -0.33736,-0.33562 -0.003,-0.18607 0.14779,-0.33911 0.33563,-0.34084 l 30.65003,-0.22608 c 0,0 0.003,0 0.003,0 0.18607,0 0.33736,0.1513 0.33911,0.33737 0.003,0.18607 -0.14956,0.33738 -0.33564,0.34085 l -30.65004,0.22432 c -0.003,0 -0.004,0 -0.004,0"
           fill-opacity="1"
           fill-rule="nonzero"
           id="path13"
           style="stroke-width:0.445186" />
        <path
           fill="#dfe1fd"
           d="m 191.15521,131.402 h -46.92718 c -2.4833,0 -4.42404,-2.14072 -4.18058,-4.61012 l 6.15263,-62.590439 c 0.21215,-2.151145 2.01897,-3.789299 4.18058,-3.789299 h 46.92717 c 2.48157,0 4.4223,2.140723 4.18057,4.610115 l -6.15435,62.590453 c -0.21042,2.14941 -2.01899,3.78929 -4.17884,3.78929"
           fill-opacity="1"
           fill-rule="nonzero"
           id="path14"
           style="stroke-width:0.445186" />
        <path
           fill="#dfe1fd"
           d="m 273.95468,95.402766 h -65.88935 c -2.48328,0 -4.42403,-2.140723 -4.18056,-4.611866 l 2.64677,-26.925086 c 0.21215,-2.151157 2.01898,-3.789298 4.18058,-3.789298 h 65.88759 c 2.48331,0 4.42406,2.138984 4.18232,4.610114 l -2.6485,26.926837 c -0.21043,2.149406 -2.01899,3.789299 -4.17885,3.789299"
           fill-opacity="1"
           fill-rule="nonzero"
           id="path15"
           style="stroke-width:0.445186" />
        <path
           fill="#dfe1fd"
           d="M 270.06799,131.06638 H 204.1804 c -2.48331,0 -4.42405,-2.14072 -4.18059,-4.61186 l 2.41375,-24.57221 c 0.21216,-2.14941 2.02073,-3.78929 4.18057,-3.78929 h 65.88934 c 2.48158,0 4.42231,2.14246 4.18059,4.61184 l -2.41548,24.57221 c -0.21217,2.15117 -2.02073,3.78931 -4.18059,3.78931"
           fill-opacity="1"
           fill-rule="nonzero"
           id="path16-5"
           style="stroke-width:0.445186" />
        <path
           fill="#ffffff"
           d="m 200.5076,121.42704 c -9.88278,13.93643 -29.19276,17.22316 -43.12918,7.34037 -13.93642,-9.8828 -17.22315,-29.19276 -7.34036,-43.129185 9.8828,-13.936429 29.19276,-17.223157 43.1292,-7.340356 13.9364,9.882785 17.22313,29.192751 7.34034,43.129171"
           fill-opacity="1"
           fill-rule="nonzero"
           id="path17-2"
           style="stroke-width:0.445186" />
        <path
           fill="#000000"
           d="m 175.33891,72.927796 c -1.72682,0 -3.46411,0.144333 -5.19964,0.441708 -8.05682,1.370345 -15.09807,5.796129 -19.8247,12.463493 -4.72837,6.667365 -6.57694,14.776363 -5.20486,22.833203 1.37034,8.05682 5.79785,15.09809 12.46522,19.8247 6.66563,4.72837 14.77463,6.57694 22.83146,5.20487 8.05684,-1.37209 15.09809,-5.79787 19.82472,-12.46523 9.75932,-13.76253 6.50388,-32.898584 -7.26037,-42.657906 -5.2292,-3.707571 -11.34879,-5.644838 -17.63183,-5.644838 z m -0.13216,61.884414 c -6.4239,0 -12.67739,-1.979 -18.02309,-5.77004 -6.81518,-4.83097 -11.33835,-12.02872 -12.74173,-20.26294 -1.40164,-8.23421 0.48866,-16.522339 5.31964,-23.337515 4.8327,-6.813438 12.02872,-11.338346 20.26467,-12.739997 8.23421,-1.401639 16.52233,0.486929 23.33578,5.319647 14.06685,9.974953 17.39705,29.533595 7.42208,43.600445 l -0.2765,-0.19477 0.2765,0.19477 c -4.8327,6.81345 -12.02873,11.33835 -20.26468,12.73999 -1.77378,0.30258 -3.54931,0.45041 -5.31267,0.45041"
           fill-opacity="1"
           fill-rule="nonzero"
           id="path18-1"
           style="stroke-width:0.445186" />
        <path
           fill="#ffffff"
           d="m 130.4516,166.80303 c -1.46599,-1.03993 -1.81205,-3.07283 -0.77212,-4.54057 l 24.12354,-34.01676 5.31267,3.76669 -24.12353,34.01852 c -1.03993,1.46771 -3.07284,1.81377 -4.54056,0.77212"
           fill-opacity="1"
           fill-rule="nonzero"
           id="path19-1"
           style="stroke-width:0.445186" />
        <path
           fill="#000000"
           d="m 153.88302,128.71523 -23.92704,33.74376 c -0.45214,0.63647 -0.62778,1.40859 -0.49735,2.17722 0.13042,0.76865 0.553,1.43992 1.18947,1.89032 0.63649,0.45213 1.4086,0.62778 2.17725,0.49735 0.76864,-0.13041 1.4399,-0.55301 1.89204,-1.18773 l 23.92531,-33.74376 z m -21.55503,39.02686 c -0.73735,0 -1.4573,-0.2278 -2.07116,-0.66256 -0.78255,-0.5565 -1.30426,-1.38251 -1.46425,-2.32853 -0.16172,-0.94776 0.0556,-1.90074 0.61213,-2.68329 l 24.12181,-34.01851 c 0.0522,-0.073 0.13043,-0.12176 0.21912,-0.13738 0.087,-0.0157 0.17911,0.005 0.25216,0.0575 l 5.31267,3.7667 c 0.15303,0.10778 0.18781,0.31997 0.08,0.47126 l -24.12181,34.01853 c -0.55648,0.78429 -1.38251,1.30425 -2.33027,1.46598 -0.20347,0.0348 -0.40693,0.0504 -0.61039,0.0504"
           fill-opacity="1"
           fill-rule="nonzero"
           id="path20-0"
           style="stroke-width:0.445186" />
        <path
           fill="#ffffff"
           d="m 141.68038,148.06693 2.03464,-2.86936 -2.03464,2.86936"
           fill-opacity="1"
           fill-rule="nonzero"
           id="path21-1"
           style="stroke-width:0.445186" />
        <path
           fill="#000000"
           d="m 141.68038,148.4043 c -0.0678,0 -0.13564,-0.0191 -0.19476,-0.0626 -0.15304,-0.10778 -0.18782,-0.31823 -0.0799,-0.47126 l 2.03289,-2.86763 c 0.10783,-0.15303 0.31998,-0.18781 0.47128,-0.08 0.15303,0.10778 0.18781,0.31825 0.0799,0.47128 l -2.03291,2.86762 c -0.0661,0.0922 -0.17043,0.1426 -0.2765,0.1426"
           fill-opacity="1"
           fill-rule="nonzero"
           id="path22-8"
           style="stroke-width:0.445186" />
        <path
           fill="#ffffff"
           d="m 135.99034,161.89554 -2.28505,3.22238 c -0.53562,0.75474 -1.58598,0.93386 -2.34071,0.39824 -0.75473,-0.53562 -0.93385,-1.58598 -0.39823,-2.34071 l 8.02727,-11.31921 -3.00328,10.0393"
           fill-opacity="1"
           fill-rule="nonzero"
           id="path23-7"
           style="stroke-width:0.445186" />
        <path
           fill="#000000"
           d="m 132.33147,166.16481 c -0.41563,0 -0.81734,-0.12869 -1.16166,-0.37215 -0.43997,-0.31127 -0.73039,-0.77561 -0.82081,-1.30774 -0.0904,-0.53212 0.0313,-1.066 0.34258,-1.50423 l 8.02727,-11.32096 c 0.10782,-0.15303 0.31823,-0.18782 0.46954,-0.0799 0.15303,0.10778 0.18954,0.31823 0.0817,0.47128 l -8.02727,11.32095 c -0.20694,0.29041 -0.28868,0.64691 -0.22781,0.99992 0.0609,0.35303 0.2539,0.66256 0.54605,0.86777 0.29042,0.20869 0.64517,0.28867 0.99993,0.2278 0.35302,-0.0591 0.66257,-0.25388 0.86951,-0.54431 l 2.28506,-3.22411 c 0.1078,-0.15131 0.31824,-0.18782 0.47127,-0.0783 0.15129,0.10607 0.18781,0.31824 0.08,0.47128 l -2.28506,3.22238 c -0.31128,0.43822 -0.7756,0.73038 -1.30774,0.8208 -0.11477,0.0191 -0.22954,0.0295 -0.34258,0.0295"
           fill-opacity="1"
           fill-rule="nonzero"
           id="path24-6"
           style="stroke-width:0.445186" />
        <path
           fill="#ffffff"
           d="m 154.74731,139.6484 -6.70563,-4.7562 c -0.34954,-0.2452 -0.43127,-0.72865 -0.18433,-1.07645 l 2.31809,-3.26759 c 0.24695,-0.34781 0.72864,-0.43128 1.07646,-0.18435 l 6.70735,4.75619 c 0.3478,0.24695 0.42954,0.72865 0.1826,1.07645 l -2.31811,3.26933 c -0.24693,0.34781 -0.72864,0.42954 -1.07643,0.18262"
           fill-opacity="1"
           fill-rule="nonzero"
           id="path25-0"
           style="stroke-width:0.445186" />
        <path
           fill="#000000"
           d="m 154.18213,138.8328 c 0.61386,0.43649 1.46946,0.2904 1.90594,-0.32347 l 1.23818,-1.74596 c 0.43649,-0.61561 0.29042,-1.4712 -0.32519,-1.90768 l -5.18399,-3.67627 c -0.61387,-0.43476 -1.46946,-0.28868 -1.90595,0.32519 l -1.23818,1.74596 c -0.4365,0.61562 -0.29041,1.47121 0.3252,1.90596 z m 0.78777,0.92688 c -0.40868,0 -0.82082,-0.12174 -1.17905,-0.37563 l -5.18399,-3.67625 c -0.91994,-0.6504 -1.1373,-1.93032 -0.48518,-2.8485 l 1.23817,-1.74597 c 0.65213,-0.91994 1.9303,-1.13732 2.8485,-0.48519 l 5.18398,3.67628 c 0.44519,0.31475 0.74082,0.78603 0.83299,1.32511 0.0921,0.53736 -0.0312,1.07819 -0.3478,1.52338 l -1.23817,1.7477 c -0.39825,0.55996 -1.02949,0.85907 -1.66945,0.85907"
           fill-opacity="1"
           fill-rule="nonzero"
           id="path26"
           style="stroke-width:0.445186" />
        <path
           fill="#ffffff"
           d="m 150.74932,145.28627 -6.70562,-4.75619 c -0.34954,-0.24696 -0.43127,-0.72865 -0.18433,-1.07646 l 2.31809,-3.2676 c 0.24694,-0.34781 0.72865,-0.43128 1.07644,-0.18433 l 6.70737,4.75618 c 0.3478,0.24695 0.42954,0.72866 0.18259,1.07646 l -2.31809,3.26934 c -0.24694,0.3478 -0.72864,0.42953 -1.07645,0.1826"
           fill-opacity="1"
           fill-rule="nonzero"
           id="path27"
           style="stroke-width:0.445186" />
        <path
           fill="#000000"
           d="m 150.18414,144.47241 c 0.61561,0.43474 1.46947,0.28867 1.90596,-0.3252 l 1.23818,-1.74771 c 0.43648,-0.61387 0.29041,-1.46946 -0.32347,-1.90595 l -5.18397,-3.67627 c -0.61563,-0.43476 -1.47122,-0.29041 -1.9077,0.3252 l -1.23818,1.74596 c -0.43649,0.61561 -0.29042,1.46946 0.32519,1.90596 z m 0.78778,0.92516 c -0.40868,0 -0.82082,-0.12176 -1.17906,-0.37563 l -5.18398,-3.67628 c -0.91994,-0.65039 -1.13732,-1.93029 -0.48519,-2.8485 l 1.23818,-1.74596 c 0.65213,-0.91993 1.93029,-1.13732 2.8485,-0.48518 l 5.18399,3.67626 c 0.91993,0.65213 1.13729,1.92856 0.48517,2.8485 l -1.23817,1.7477 c -0.39823,0.55997 -1.02948,0.85909 -1.66944,0.85909"
           fill-opacity="1"
           fill-rule="nonzero"
           id="path28"
           style="stroke-width:0.445186" />
        <path
           fill="#6168ff"
           d="m 203.43958,103.07876 -51.2921,16.55363 c 1.81205,2.6033 4.09537,4.94052 6.8291,6.87951 0.71647,0.5078 1.44859,0.97559 2.19289,1.40687 l 39.80766,-12.84607 c 1.72858,-3.83974 2.53201,-7.93683 2.46245,-11.99394"
           fill-opacity="1"
           fill-rule="nonzero"
           id="path29"
           style="stroke-width:0.445186" />
        <path
           fill="#6168ff"
           d="m 191.56735,80.551619 c -3.17195,-2.250283 -6.65171,-3.751041 -10.22537,-4.537083 l -27.06595,8.735056 c -0.69908,0.782551 -1.36164,1.610313 -1.98421,2.486784 -6.41694,9.051545 -6.73519,20.588134 -1.7877,29.726634 l 52.71112,-17.00925 c -0.96862,-7.53687 -4.96139,-14.659857 -11.64789,-19.402141"
           fill-opacity="1"
           fill-rule="nonzero"
           id="path30"
           style="stroke-width:0.445186" />
        <path
           fill="#000000"
           d="m 201.99967,94.955839 c -0.14259,0 -0.27302,-0.08867 -0.32172,-0.231282 -0.87124,-2.617217 -2.11811,-5.081391 -3.7093,-7.319498 -0.1095,-0.15303 -0.073,-0.363455 0.0783,-0.471276 0.15303,-0.1095 0.36345,-0.07299 0.47126,0.07827 1.63119,2.295491 2.90937,4.817061 3.80148,7.498616 0.0592,0.17738 -0.0365,0.368672 -0.2139,0.427794 -0.0348,0.01225 -0.0713,0.01739 -0.10607,0.01739"
           fill-opacity="1"
           fill-rule="nonzero"
           id="path31"
           style="stroke-width:0.445186" />
        <path
           fill="#000000"
           d="m 174.60852,132.03674 c -0.003,0 -0.005,0 -0.008,0 -5.68824,-0.12868 -11.15917,-1.94421 -15.81971,-5.24832 -12.82346,-9.09328 -15.85804,-26.92335 -6.76477,-39.746816 4.40492,-6.213481 10.96447,-10.336684 18.47177,-11.61485 7.50731,-1.278164 15.06331,0.445187 21.27505,4.84836 0.15303,0.107784 0.18782,0.319986 0.0799,0.471276 -0.10778,0.153029 -0.31823,0.187815 -0.47127,0.08169 -12.51913,-8.87765 -29.92663,-5.916111 -38.80426,6.603026 -8.87765,12.519124 -5.91438,29.928364 6.60475,38.806014 4.54925,3.22585 9.88974,4.9979 15.44415,5.12312 0.18608,0.004 0.33389,0.15998 0.33041,0.34606 -0.005,0.18433 -0.15477,0.3304 -0.3391,0.3304"
           fill-opacity="1"
           fill-rule="nonzero"
           id="path32"
           style="stroke-width:0.445186" />
        <path
           fill="#000000"
           d="m 143.2907,35.344324 h 25.9182 C 167.8716,30.608995 162.57458,26.11192 155.68638,21.70874 L 143.2907,35.344324"
           fill-opacity="1"
           fill-rule="nonzero"
           id="path33"
           style="stroke-width:0.445186" />
        <path
           fill="#ffc043"
           d="m 221.80526,38.601485 c -3.10065,1.653794 -6.95431,0.479972 -8.6081,-2.618942 -1.6538,-3.100666 -0.4817,-6.954317 2.61895,-8.608111 3.10065,-1.653794 6.9543,-0.481699 8.6081,2.618955 1.6538,3.100654 0.47996,6.954304 -2.61895,8.608098 z m 8.86895,-10.541875 -1.1634,-2.180724 -2.6033,0.716473 c -0.35998,-0.457362 -0.75299,-0.879938 -1.17383,-1.260785 l 0.88689,-2.545907 -2.09724,-1.305992 -1.89725,1.921601 c -0.5339,-0.213891 -1.08341,-0.380846 -1.64511,-0.50257 l -0.50605,-2.651988 -2.4694,-0.08354 -0.6817,2.608506 c -0.56342,0.08354 -1.12338,0.215643 -1.6764,0.394761 l -1.76509,-2.045076 -2.17897,1.163399 0.71472,2.603289 c -0.45563,0.358237 -0.87821,0.751258 -1.25903,1.173835 l -2.54766,-0.888635 -1.306,2.097242 1.91986,1.897264 c -0.21215,0.533876 -0.37909,1.085145 -0.49909,1.646836 l -2.65372,0.506061 -0.0835,2.469392 2.61026,0.679961 c 0.0817,0.563431 0.21216,1.125135 0.39301,1.678144 l -2.04508,1.763353 1.1634,2.180713 2.60331,-0.714733 c 0.35997,0.455622 0.75124,0.878198 1.17381,1.259045 l -0.88688,2.545907 2.09551,1.307731 1.899,-1.921601 c 0.53213,0.212164 1.08339,0.379108 1.64336,0.500831 l 0.50605,2.651988 2.47112,0.08354 0.67997,-2.608507 c 0.56343,-0.08169 1.12513,-0.213891 1.67814,-0.393022 l 1.76336,2.043337 2.18071,-1.161647 -0.71473,-2.603302 c 0.45562,-0.359976 0.87819,-0.751258 1.25904,-1.173835 l 2.54592,0.886895 1.30773,-2.097241 -1.9216,-1.897264 c 0.21389,-0.533876 0.37911,-1.085144 0.50083,-1.645097 l 2.65199,-0.506061 0.0835,-2.469392 -2.60851,-0.681688 c -0.0817,-0.563443 -0.21389,-1.123396 -0.39302,-1.678155 l 2.04508,-1.763343"
           fill-opacity="1"
           fill-rule="nonzero"
           id="path34"
           style="stroke-width:0.445186" />
        <path
           fill="#ffc043"
           d="m 250.11112,32.982741 c -3.95625,1.085145 -8.04119,-1.245131 -9.12633,-5.201373 -1.08166,-3.956254 1.24687,-8.042928 5.20313,-9.126321 3.95623,-1.081667 8.04291,1.246858 9.12631,5.203112 1.08341,3.956254 -1.24512,8.042916 -5.20311,9.124582 z m 12.81651,-9.714114 -0.76343,-2.782408 -3.14762,0.142594 c -0.29214,-0.61213 -0.6295,-1.192953 -1.0121,-1.737265 l 1.66598,-2.669381 -2.04856,-2.029422 -2.6572,1.69901 c -0.55301,-0.379101 -1.13732,-0.712994 -1.74423,-0.994713 l 0.10778,-3.14935 -2.78937,-0.73212 -1.44686,2.794585 c -0.66431,-0.05215 -1.3373,-0.04695 -2.01203,0.01394 l -1.48164,-2.780679 -2.78241,0.759947 0.14433,3.149351 c -0.61386,0.292154 -1.19469,0.629521 -1.739,1.012104 l -2.66763,-1.667714 -2.03117,2.052028 1.69901,2.65374 c -0.37912,0.554735 -0.71126,1.139037 -0.99471,1.744223 l -3.14935,-0.107785 -0.73212,2.791104 2.79458,1.448599 c -0.0522,0.662569 -0.0469,1.33556 0.0139,2.010291 l -2.78067,1.479906 0.76168,2.784159 3.14761,-0.144346 c 0.29042,0.613869 0.62953,1.194694 1.0121,1.737278 l -1.66771,2.671108 2.05203,2.029435 2.65547,-1.699014 c 0.55127,0.379095 1.13731,0.711242 1.74422,0.992976 l -0.10778,3.15108 2.79111,0.732114 1.44687,-2.794582 c 0.66255,0.05217 1.33555,0.04691 2.01029,-0.01384 l 1.48163,2.782408 2.78242,-0.763421 -0.14435,-3.147613 c 0.61388,-0.292145 1.1947,-0.629522 1.73728,-1.012097 l 2.67112,1.667709 2.02942,-2.052034 -1.69901,-2.655467 c 0.37911,-0.551268 0.71299,-1.13557 0.99471,-1.744222 l 3.14934,0.109499 0.73213,-2.791116 -2.79458,-1.450326 c 0.0522,-0.660829 0.0469,-1.332081 -0.0139,-2.010303 l 2.78242,-1.479894"
           fill-opacity="1"
           fill-rule="nonzero"
           id="path35"
           style="stroke-width:0.445186" />
        <g
           clip-path="url(#46781a71dc)"
           id="g36"
           transform="matrix(0.4451865,0,0,0.4451865,-7.59447,-28.308655)">
          <path
             fill="#ffc043"
             d="m 615.35547,294.27344 v 23.53515 c 0,23.01953 -18.17578,41.67578 -40.59375,41.67578 -22.41797,0 -40.59375,18.66016 -40.59375,41.67969 0,2.04688 1.66015,3.71485 3.71094,3.71485 h 107.45703 c 33.60547,0 60.85547,-27.97657 60.85547,-62.48047 v -50.21875 c 0,-13.72266 -10.83985,-24.84766 -24.20704,-24.84766 h -40.38281 c -14.49609,0 -26.24609,12.0625 -26.24609,26.94141"
             fill-opacity="1"
             fill-rule="nonzero"
             id="path36" />
        </g>
        <path
           fill="#ffc043"
           d="m 271.87135,183.53057 h -4.33362 v -50.47476 h 4.33362 v 50.47476"
           fill-opacity="1"
           fill-rule="nonzero"
           id="path37"
           style="stroke-width:0.445186" />
        <path
           fill="#ffc043"
           d="m 249.38595,185.16697 19.18476,-1.68337 h 1.75988 l 19.58473,1.68337 v 1.3373 h -40.52937 v -1.3373"
           fill-opacity="1"
           fill-rule="nonzero"
           id="path38"
           style="stroke-width:0.445186" />
        <path
           fill="#ffffff"
           d="m 256.63762,176.36062 c -0.44343,-0.45039 -3.01544,-8.44637 -3.01544,-8.44637 l -5.07966,3.6241 5.56833,7.48296 2.52677,-2.66069"
           fill-opacity="1"
           fill-rule="nonzero"
           id="path39"
           style="stroke-width:0.445186" />
        <path
           fill="#000000"
           d="m 249.02076,171.61139 5.12314,6.88648 2.07637,-2.18942 c -0.59822,-1.20165 -2.02247,-5.51614 -2.77721,-7.85163 z m 5.09181,7.74903 c -0.005,0 -0.0139,0 -0.0208,0 -0.0974,-0.008 -0.19128,-0.0575 -0.24868,-0.13739 l -5.57005,-7.48296 c -0.0556,-0.0747 -0.0783,-0.16519 -0.0626,-0.25562 0.0138,-0.0886 0.0626,-0.16869 0.13738,-0.2226 l 5.07965,-3.6241 c 0.087,-0.0626 0.19999,-0.0799 0.30259,-0.0452 0.10264,0.033 0.1826,0.11478 0.21563,0.21738 1.20688,3.75104 2.64678,7.94379 2.94066,8.32115 0.13044,0.13044 0.12349,0.32869 -9.6e-4,0.46258 l -2.52677,2.66069 c -0.0626,0.0679 -0.15303,0.10607 -0.24522,0.10607"
           fill-opacity="1"
           fill-rule="nonzero"
           id="path40"
           style="stroke-width:0.445186" />
        <path
           fill="#000000"
           d="m 247.48522,186.47123 3.37714,-0.0208 c 2.23464,-0.0122 4.31449,-1.14775 5.5318,-3.02065 l 3.34064,-5.29008 c 0.92342,-1.46076 0.40693,-3.39629 -1.11992,-4.20839 -1.39296,-0.74083 -2.85372,-1.46252 -3.1963,-1.42947 -0.69561,0.0662 -0.97732,3.35281 -0.97732,3.35281 l -3.00849,0.11648 c 0,0 -1.48686,6.18217 -2.79459,6.88473 -0.95298,0.51126 -1.61902,1.26427 -2.06595,1.94943 -0.46953,0.71996 0.0539,1.6712 0.91299,1.66597"
           fill-opacity="1"
           fill-rule="nonzero"
           id="path41"
           style="stroke-width:0.445186" />
        <path
           fill="#ffffff"
           d="m 247.82259,185.49041 c -0.16348,0 -0.30782,-0.12174 -0.33216,-0.28866 -0.0278,-0.18433 0.0974,-0.3565 0.28172,-0.38433 l 4.62229,-0.69559 c 0.93906,-0.14086 1.75813,-0.69039 2.2468,-1.50599 l 4.0832,-6.8204 c 0.0957,-0.15998 0.30258,-0.21214 0.46256,-0.11648 0.16,0.0957 0.21391,0.3026 0.1182,0.46258 l -4.08319,6.82041 c -0.59301,0.99122 -1.58772,1.65726 -2.72677,1.82943 l -4.62229,0.69561 c -0.0157,0.003 -0.033,0.004 -0.0504,0.004"
           fill-opacity="1"
           fill-rule="nonzero"
           id="path42"
           style="stroke-width:0.445186" />
        <path
           fill="#ffffff"
           d="m 253.52827,180.36035 c -0.0295,0 -0.0591,-0.004 -0.0886,-0.0123 l -2.57548,-0.7008 c -0.17911,-0.0488 -0.2852,-0.23477 -0.23651,-0.41564 0.0504,-0.1791 0.23651,-0.28692 0.41563,-0.23649 l 2.57547,0.70081 c 0.17913,0.0486 0.2852,0.23476 0.23477,0.41562 -0.04,0.14957 -0.17564,0.24869 -0.3252,0.24869"
           fill-opacity="1"
           fill-rule="nonzero"
           id="path43"
           style="stroke-width:0.445186" />
        <path
           fill="#ffffff"
           d="m 252.18575,181.682 c -0.0261,0 -0.0522,-9.7e-4 -0.08,-0.009 l -1.72509,-0.42258 c -0.1826,-0.0452 -0.29215,-0.22782 -0.24868,-0.40867 0.0452,-0.1826 0.22781,-0.29389 0.40868,-0.24868 l 1.72683,0.42258 c 0.18084,0.0435 0.29214,0.22607 0.24693,0.40867 -0.0365,0.15477 -0.17563,0.25737 -0.32866,0.25737"
           fill-opacity="1"
           fill-rule="nonzero"
           id="path44"
           style="stroke-width:0.445186" />
        <path
           fill="#ffffff"
           d="m 239.30665,174.83377 -5.89872,5.92481 -3.12501,-1.14775 5.43616,-7.58034 3.58757,2.80328"
           fill-opacity="1"
           fill-rule="nonzero"
           id="path45"
           style="stroke-width:0.445186" />
        <path
           fill="#000000"
           d="m 230.81506,179.44737 2.50592,0.91994 5.47615,-5.50223 -3.01024,-2.35115 z m 2.59287,1.65032 c -0.0382,0 -0.0783,-0.008 -0.11648,-0.0209 l -3.12501,-1.14774 c -0.0991,-0.0365 -0.17563,-0.11648 -0.20692,-0.21737 -0.0312,-0.10264 -0.0139,-0.21042 0.0486,-0.29738 l 5.43613,-7.58034 c 0.0522,-0.0747 0.13392,-0.12521 0.22609,-0.13738 0.0904,-0.0138 0.18259,0.01 0.25736,0.0679 l 3.58759,2.80328 c 0.0747,0.0592 0.12175,0.14955 0.12868,0.24519 0.005,0.0974 -0.0295,0.19131 -0.0991,0.25913 l -5.89699,5.92654 c -0.0643,0.0643 -0.15129,0.0991 -0.23998,0.0991"
           fill-opacity="1"
           fill-rule="nonzero"
           id="path46"
           style="stroke-width:0.445186" />
        <path
           fill="#000000"
           d="m 235.27215,179.8317 c 0,0 0.2852,2.52155 -0.19999,4.74922 -0.25737,1.18775 -1.32686,2.02246 -2.54069,2.02246 H 218.0577 c -1.03473,0 -1.50425,-1.29207 -0.71126,-1.95638 2.57373,-2.15636 7.30732,-5.44831 13.12778,-6.4152 l 1.62424,2.27289 3.17369,-0.67299"
           fill-opacity="1"
           fill-rule="nonzero"
           id="path47"
           style="stroke-width:0.445186" />
        <path
           fill="#ffffff"
           d="m 233.7453,184.95134 h -14.99896 c -0.18782,0 -0.33911,-0.1513 -0.33911,-0.33911 0,-0.18607 0.15129,-0.33738 0.33911,-0.33738 h 14.99896 c 0.18608,0 0.33911,0.15131 0.33911,0.33738 0,0.18781 -0.15303,0.33911 -0.33911,0.33911"
           fill-opacity="1"
           fill-rule="nonzero"
           id="path48"
           style="stroke-width:0.445186" />
        <path
           fill="#ffffff"
           d="m 227.11446,182.28543 c -0.13217,0 -0.25738,-0.0783 -0.3113,-0.20868 l -0.79472,-1.92682 c -0.0713,-0.17217 0.01,-0.36867 0.18433,-0.43997 0.17216,-0.0713 0.37041,0.01 0.43998,0.18434 l 0.79472,1.92508 c 0.0713,0.17216 -0.01,0.37041 -0.18258,0.4417 -0.0435,0.0174 -0.087,0.0244 -0.13043,0.0244"
           fill-opacity="1"
           fill-rule="nonzero"
           id="path49"
           style="stroke-width:0.445186" />
        <path
           fill="#ffffff"
           d="m 224.5042,182.79321 c -0.14259,0 -0.27302,-0.0904 -0.31997,-0.23301 l -0.57561,-1.73728 c -0.0575,-0.17738 0.0382,-0.36867 0.21563,-0.4278 0.17738,-0.0575 0.36866,0.0382 0.42779,0.21565 l 0.57388,1.73727 c 0.0575,0.17737 -0.0382,0.36866 -0.21565,0.4278 -0.0348,0.0122 -0.0713,0.0174 -0.10606,0.0174"
           fill-opacity="1"
           fill-rule="nonzero"
           id="path50"
           style="stroke-width:0.445186" />
        <path
           fill="#000000"
           d="m 270.52188,133.37056 c 0,0 -26.95292,-3.13892 -34.96627,3.79973 -8.0151,6.93692 12.65129,36.77137 12.65129,36.77137 l 6.53521,-4.84662 -6.19959,-21.08549 24.91481,-7.07603 -2.93545,-7.56296"
           fill-opacity="1"
           fill-rule="nonzero"
           id="path51"
           style="stroke-width:0.445186" />
        <path
           fill="#000000"
           d="m 285.35738,147.10178 c -3.91626,1.24165 -10.92099,2.8485 -20.71336,2.71634 -2.78067,-0.04 -5.34919,1.49729 -6.61345,3.97711 -2.89894,5.68657 -9.17675,15.9276 -19.4004,22.56539 l -4.88314,-2.63112 12.46176,-28.05717 c 1.13905,-2.56332 3.26759,-4.55273 5.89871,-5.51788 l 24.70263,-9.05851 c 0,0 7.65861,-2.14072 11.41314,4.69707 0.67125,1.22078 1.91637,-0.96167 2.21375,0.0227 1.01557,3.37892 -1.71814,10.21843 -5.07964,11.28619"
           fill-opacity="1"
           fill-rule="nonzero"
           id="path52"
           style="stroke-width:0.445186" />
        <path
           fill="#ffffff"
           d="m 240.57613,158.68881 c -0.0452,0 -0.0922,-0.009 -0.13564,-0.0295 -0.17216,-0.0747 -0.24868,-0.27476 -0.17216,-0.44518 l 5.63264,-12.67913 c 1.1669,-2.62939 3.3876,-4.7075 6.09001,-5.69873 l 11.82875,-4.33709 c 0.17564,-0.0643 0.36868,0.026 0.43302,0.20171 0.0643,0.17565 -0.0244,0.36868 -0.19999,0.43303 l -11.83048,4.33709 c -2.53027,0.93036 -4.61011,2.87458 -5.70396,5.33875 l -5.63264,12.67913 c -0.0556,0.1252 -0.17913,0.19998 -0.30955,0.19998"
           fill-opacity="1"
           fill-rule="nonzero"
           id="path53"
           style="stroke-width:0.445186" />
        <path
           fill="#ffffff"
           d="m 247.15306,169.58892 c -0.0835,0 -0.16868,-0.033 -0.23304,-0.0957 -0.13563,-0.12868 -0.13911,-0.34258 -0.011,-0.47822 1.12167,-1.16688 2.22594,-2.42071 3.28326,-3.72496 0.11648,-0.14608 0.3304,-0.16868 0.47475,-0.0504 0.14607,0.11648 0.16868,0.32867 0.0504,0.47475 -1.06775,1.3199 -2.18593,2.58938 -3.32151,3.77017 -0.0662,0.0695 -0.15477,0.10436 -0.24346,0.10436"
           fill-opacity="1"
           fill-rule="nonzero"
           id="path54"
           style="stroke-width:0.445186" />
        <path
           fill="#ffffff"
           d="m 250.45544,165.83961 c -0.0747,0 -0.14955,-0.0244 -0.21216,-0.0766 -0.14607,-0.11648 -0.16694,-0.32867 -0.0504,-0.47474 0.51996,-0.6417 1.03646,-1.30947 1.53728,-1.98074 0.11306,-0.14956 0.32346,-0.18086 0.47302,-0.0695 0.15129,0.11134 0.18085,0.32345 0.0695,0.47474 -0.50605,0.67823 -1.02776,1.35122 -1.55467,1.99986 -0.0662,0.0834 -0.16348,0.12695 -0.2626,0.12695"
           fill-opacity="1"
           fill-rule="nonzero"
           id="path55"
           style="stroke-width:0.445186" />
        <path
           fill="#ffffff"
           d="m 264.39883,111.59991 c 0,0 -2.37028,21.52545 -18.29091,22.93405 l 18.29091,0.25911 c 0,0 6.7717,-13.72252 7.04646,-19.06476 0.2765,-5.34398 -7.04646,-4.1284 -7.04646,-4.1284"
           fill-opacity="1"
           fill-rule="nonzero"
           id="path56"
           style="stroke-width:0.445186" />
        <path
           fill="#000000"
           d="m 249.45899,134.24354 14.73115,0.20869 c 0.81386,-1.6764 6.66563,-13.86687 6.91778,-18.74131 0.0591,-1.17558 -0.27302,-2.09724 -0.99123,-2.73894 -1.56685,-1.40165 -4.54229,-1.17384 -5.41702,-1.07123 -0.15825,1.15644 -0.91645,5.93176 -3.17021,10.78013 -2.83981,6.11088 -6.9717,10.05146 -12.07047,11.56266 z m 14.93984,0.88865 c -0.004,0 -0.004,0 -0.005,0 l -18.28916,-0.25912 c -0.17912,-0.004 -0.32693,-0.14608 -0.33389,-0.32519 -0.005,-0.18087 0.13042,-0.3339 0.3078,-0.34955 6.47259,-0.57388 11.4653,-4.54403 14.83897,-11.80266 2.52852,-5.4431 3.13891,-10.77838 3.14587,-10.83229 0.0155,-0.15128 0.13043,-0.27128 0.27998,-0.29737 0.16868,-0.0278 4.13885,-0.66082 6.22391,1.19993 0.87821,0.78429 1.28687,1.88856 1.21557,3.27976 -0.27476,5.35094 -6.80474,18.63523 -7.08123,19.19867 -0.0575,0.11476 -0.17391,0.18782 -0.3026,0.18782"
           fill-opacity="1"
           fill-rule="nonzero"
           id="path57"
           style="stroke-width:0.445186" />
        <path
           fill="#ffffff"
           d="m 287.05465,97.919105 c -3.08848,-0.725157 -4.37709,-0.733854 -15.60066,-0.328669 -2.74417,0.09909 -6.00828,3.542364 -6.33174,6.269134 0.87124,2.61547 4.89706,15.52762 -2.12855,25.61561 -0.99645,1.43121 -2.35288,3.00153 -4.21361,4.50577 1.04513,0.84517 2.67112,1.94596 4.85183,2.59287 3.62236,1.07645 5.4431,-0.087 8.3629,0 7.71946,0.23128 10.55057,8.82894 15.53632,7.74903 1.33207,-0.28868 3.09543,-1.32687 4.75097,-4.8101 0.93732,-2.8885 1.77379,-6.28131 2.23636,-10.11408 1.26078,-10.39233 -0.79993,-19.04565 -2.64155,-24.47483 -0.5478,-1.71466 -1.18078,-6.1474 -4.82227,-7.004735"
           fill-opacity="1"
           fill-rule="nonzero"
           id="path58"
           style="stroke-width:0.445186" />
        <path
           fill="#000000"
           d="m 271.67832,136.22949 c 0.10778,0 0.21737,0.004 0.32693,0.005 4.16146,0.12521 6.9056,2.57549 9.32631,4.73533 2.1042,1.87813 3.91799,3.50063 6.13001,3.02239 1.71119,-0.37214 3.22935,-1.92161 4.50751,-4.60663 1.06079,-3.27107 1.8051,-6.64475 2.2155,-10.02887 0.98255,-8.10379 0.0991,-16.28757 -2.6259,-24.32701 -0.0817,-0.25041 -0.15825,-0.53909 -0.24867,-0.87472 -0.51998,-1.95116 -1.39295,-5.21528 -4.33361,-5.90742 -3.00851,-0.706037 -4.16667,-0.730387 -15.51024,-0.319972 -2.46417,0.08867 -5.62743,3.213692 -5.99784,5.896982 1.55119,4.68489 4.37012,16.41452 -2.19638,25.84343 -1.10252,1.58249 -2.43113,3.02936 -3.95102,4.30578 1.37034,1.04862 2.85198,1.8138 4.40838,2.27637 2.24507,0.66604 3.75452,0.44866 5.35267,0.21737 0.81386,-0.11648 1.65033,-0.23825 2.59635,-0.23825 z m 15.00244,8.52463 c -2.12681,0 -3.918,-1.59814 -5.7996,-3.27977 -2.33376,-2.08333 -4.98052,-4.44665 -8.89677,-4.56317 -1.02254,-0.0312 -1.92857,0.10081 -2.80502,0.22608 -1.5999,0.23128 -3.25716,0.46953 -5.64135,-0.23998 -1.76859,-0.52345 -3.43803,-1.41729 -4.96836,-2.65374 l -0.32693,-0.26259 0.32693,-0.26258 c 1.60684,-1.30252 3.00328,-2.79458 4.14755,-4.43796 6.42562,-9.22545 3.598,-20.77595 2.08506,-25.31476 l -0.0244,-0.0713 0.01,-0.0748 c 0.32866,-2.77372 3.61366,-6.456939 6.65346,-6.5665 11.42703,-0.415619 12.60085,-0.389542 15.69107,0.337366 3.33195,0.782554 4.27102,4.291874 4.83097,6.390864 0.0853,0.3252 0.16173,0.60866 0.23478,0.83821 2.75807,8.12987 3.65191,16.41451 2.6572,24.61916 -0.41563,3.43454 -1.17383,6.85865 -2.25202,10.17668 l -0.0155,0.0418 c -1.37556,2.89718 -3.05196,4.57708 -4.98399,4.99618 -0.31651,0.0679 -0.62258,0.0991 -0.92343,0.1008"
           fill-opacity="1"
           fill-rule="nonzero"
           id="path59"
           style="stroke-width:0.445186" />
        <path
           fill="#ffffff"
           d="m 262.30679,114.0119 c 0,0 1.81554,-14.55551 7.04647,-15.79716 -1.8416,5.65527 -2.45375,11.81136 -2.18594,18.3257 0.01,0.26954 -0.28519,0.4417 -0.513,0.29387 l -4.34753,-2.82241"
           fill-opacity="1"
           fill-rule="nonzero"
           id="path60"
           style="stroke-width:0.445186" />
        <path
           fill="#000000"
           d="m 262.67024,113.84496 4.16841,2.70591 c -0.28346,-6.69694 0.36867,-12.52609 1.98769,-17.79356 -4.1771,1.97552 -5.92134,13.39386 -6.1561,15.08765 z m 4.16493,3.38238 c -0.1252,0 -0.25215,-0.0382 -0.36346,-0.1095 l -4.52663,-2.93719 0.0261,-0.21041 c 0.0747,-0.60345 1.90769,-14.80245 7.30384,-16.084108 l 0.58605,-0.140855 -0.18607,0.573863 c -1.74423,5.3579 -2.45374,11.31226 -2.16854,18.20744 0.009,0.25216 -0.12004,0.48693 -0.33912,0.61212 -0.10436,0.0592 -0.21738,0.0887 -0.33215,0.0887"
           fill-opacity="1"
           fill-rule="nonzero"
           id="path61"
           style="stroke-width:0.445186" />
        <path
           fill="#ffc043"
           d="m 226.81186,112.59983 h 18.99346 c 0.79996,0 1.54425,0.39998 1.97031,1.05732 l 7.12646,20.97419 h 16.81275 v 0.31476 c 0,0.99124 -0.80342,1.79467 -1.79466,1.79467 h -35.67925 c -0.99126,0 -1.79467,-0.80343 -1.79467,-1.79467 v -0.27475 l -6.43956,-19.61429 c -0.0974,-0.29737 -0.21912,-0.5878 -0.33041,-0.88169 -0.28172,-0.73733 0.27303,-1.57554 1.13557,-1.57554"
           fill-opacity="1"
           fill-rule="nonzero"
           id="path62"
           style="stroke-width:0.445186" />
        <path
           fill="#000000"
           d="m 232.76103,134.54614 c 0.0155,0.0382 0.0244,0.0799 0.0244,0.12521 v 0.27475 c 0,0.80343 0.65212,1.4573 1.45555,1.4573 h 35.67927 c 0.79472,0 1.44163,-0.6417 1.45554,-1.43295 h -16.47363 c -0.14434,0 -0.27302,-0.0921 -0.31999,-0.22954 l -7.11255,-20.9342 c -0.36867,-0.54431 -0.98949,-0.86603 -1.66424,-0.86603 h -18.99519 c -0.29562,0 -0.55995,0.1339 -0.72168,0.37041 -0.15478,0.22607 -0.1913,0.49736 -0.0974,0.7443 0.033,0.0817 0.0661,0.1652 0.0957,0.24694 0.0835,0.21042 0.16869,0.42779 0.24173,0.65039 z m 37.15915,2.53199 h -35.67925 c -1.17559,0 -2.13204,-0.95646 -2.13204,-2.13203 v -0.21911 l -6.4239,-19.56386 c -0.0679,-0.20519 -0.14434,-0.40344 -0.22781,-0.61561 -0.033,-0.0835 -0.0661,-0.16694 -0.0974,-0.25216 -0.17044,-0.4504 -0.10778,-0.9634 0.17215,-1.36859 0.29215,-0.42085 0.75648,-0.6643 1.27818,-0.6643 h 18.9952 c 0.91993,0 1.76162,0.45214 2.25376,1.21034 0.0157,0.0244 0.0295,0.0486 0.0382,0.0766 l 7.04647,20.74463 h 16.56929 c 0.18781,0 0.33909,0.1513 0.33909,0.33912 v 0.31302 c 0,1.17557 -0.95645,2.13203 -2.13203,2.13203"
           fill-opacity="1"
           fill-rule="nonzero"
           id="path63"
           style="stroke-width:0.445186" />
        <path
           fill="#ffffff"
           d="m 240.78482,123.35213 c 0.2678,0.88863 -0.14262,1.79814 -0.91473,2.03117 -0.77212,0.23301 -1.61555,-0.29737 -1.88335,-1.18775 -0.26781,-0.8869 0.14261,-1.7964 0.91472,-2.02943 0.77212,-0.23303 1.61554,0.29911 1.88336,1.18601"
           fill-opacity="1"
           fill-rule="nonzero"
           id="path64"
           style="stroke-width:0.445186" />
        <path
           fill="#ffffff"
           d="m 251.00498,135.0087 h -12.38002 c -0.18434,0 -0.33737,-0.15128 -0.33737,-0.33735 0,-0.18607 0.15303,-0.33912 0.33737,-0.33912 h 12.38002 c 0.18606,0 0.33736,0.15305 0.33736,0.33912 0,0.18607 -0.1513,0.33735 -0.33736,0.33735"
           fill-opacity="1"
           fill-rule="nonzero"
           id="path65"
           style="stroke-width:0.445186" />
        <path
           fill="#ffffff"
           d="m 234.51742,135.0087 h -2.19464 c -0.18607,0 -0.33736,-0.15128 -0.33736,-0.33735 0,-0.18607 0.15129,-0.33912 0.33736,-0.33912 h 2.19464 c 0.18609,0 0.33737,0.15305 0.33737,0.33912 0,0.18607 -0.15128,0.33735 -0.33737,0.33735"
           fill-opacity="1"
           fill-rule="nonzero"
           id="path66"
           style="stroke-width:0.445186" />
        <path
           fill="#ffffff"
           d="m 260.66692,132.79146 c 1.0886,-1.70074 3.08325,-2.56328 4.18057,-2.50068 4.99095,0.28173 14.61289,-4.76836 21.76893,-7.2082 1.23991,-1.80162 0.33911,-5.74742 0.9008,-10.47927 l 9.12807,0.78951 c 0.91123,4.511 0.56343,12.16959 -0.22434,13.18344 -0.52171,1.24339 -3.36151,4.85183 -9.12806,7.6638 -9.01503,4.39448 -21.08201,1.52164 -21.08201,1.52164 0,0 -6.11611,3.23109 -8.75766,-0.28171 0,0 2.12681,-0.98777 3.2137,-2.68853"
           fill-opacity="1"
           fill-rule="nonzero"
           id="path67"
           style="stroke-width:0.445186" />
        <path
           fill="#000000"
           d="m 257.98362,135.58606 c 2.57025,2.73372 8.01335,-0.0939 8.069,-0.12347 0.0713,-0.0382 0.15652,-0.0504 0.2365,-0.0295 0.12003,0.0278 12.05656,2.79111 20.85595,-1.49729 5.52831,-2.69545 8.42551,-6.21 8.9646,-7.48991 0.0122,-0.0278 0.0261,-0.0539 0.0452,-0.0766 0.62606,-0.80515 1.09385,-7.95249 0.2087,-12.66173 l -8.5455,-0.73908 c -0.18955,1.79292 -0.17565,3.46584 -0.16347,4.95443 0.0191,2.34593 0.033,4.19971 -0.75821,5.35094 -0.0399,0.0609 -0.10081,0.10607 -0.16869,0.12867 -2.26418,0.77212 -4.83444,1.83118 -7.31948,2.85372 -5.45528,2.24505 -11.09662,4.56665 -14.57987,4.37014 -0.95645,-0.0522 -2.84328,0.73212 -3.87625,2.34766 -0.85211,1.33209 -2.28157,2.23289 -2.96849,2.61199 z m 3.13369,1.87987 c -1.45903,0 -2.91805,-0.43301 -3.9319,-1.78248 -0.0626,-0.0799 -0.0835,-0.18608 -0.0591,-0.2852 0.0244,-0.0991 0.0939,-0.18086 0.18607,-0.22433 0.0208,-0.009 2.05029,-0.96862 3.06937,-2.56504 1.10947,-1.73553 3.18934,-2.73025 4.48664,-2.65547 3.32671,0.18781 8.89677,-2.10594 14.28074,-4.32145 2.45721,-1.01209 4.99444,-2.05551 7.24993,-2.83109 0.61039,-0.99297 0.59649,-2.71286 0.57908,-4.87272 -0.0122,-1.59641 -0.0278,-3.4067 0.20522,-5.36483 0.0208,-0.18086 0.18606,-0.31129 0.36518,-0.29738 l 9.12806,0.78952 c 0.14957,0.0122 0.27303,0.12347 0.30086,0.26953 0.89559,4.43448 0.60343,12.14699 -0.26086,13.41821 -0.49561,1.12514 -3.18411,4.82922 -9.27587,7.79946 -8.52984,4.15797 -19.87689,1.86074 -21.18288,1.5738 -0.54605,0.27303 -2.84154,1.34947 -5.14052,1.34947"
           fill-opacity="1"
           fill-rule="nonzero"
           id="path68"
           style="stroke-width:0.445186" />
        <path
           fill="#000000"
           d="m 258.53141,135.97561 c -0.0592,0 -0.0939,-0.004 -0.10264,-0.005 -0.18608,-0.0191 -0.32171,-0.18435 -0.3026,-0.37042 0.0191,-0.18434 0.18087,-0.31997 0.36693,-0.30258 0.0278,0.003 1.57208,0.087 3.99625,-2.11463 0.13913,-0.12522 0.35129,-0.11477 0.4765,0.0227 0.1252,0.13913 0.11648,0.35303 -0.0227,0.47823 -2.35462,2.13899 -3.99102,2.29202 -4.41187,2.29202"
           fill-opacity="1"
           fill-rule="nonzero"
           id="path69"
           style="stroke-width:0.445186" />
        <path
           fill="#000000"
           d="m 260.1226,136.79988 c -0.11649,0 -0.18259,-0.009 -0.19477,-0.01 -0.18434,-0.0295 -0.31128,-0.20172 -0.28172,-0.38607 0.0295,-0.18258 0.20172,-0.30953 0.38432,-0.28344 0.0312,0.005 1.37905,0.14433 3.5041,-1.70075 0.14087,-0.12176 0.35303,-0.10779 0.47649,0.033 0.12175,0.14086 0.10607,0.35476 -0.0348,0.47822 -1.95117,1.69553 -3.35803,1.86943 -3.85365,1.86943"
           fill-opacity="1"
           fill-rule="nonzero"
           id="path70"
           style="stroke-width:0.445186" />
        <path
           fill="#ffffff"
           d="m 297.78782,116.66737 c 0.0608,0.008 0.11304,-0.0417 0.10949,-0.10264 -0.0643,-1.03644 -0.55474,-8.75938 -1.25208,-11.8722 -1.57207,-7.029095 -11.26705,-7.039518 -11.26705,-7.039518 1.78249,6.022188 2.36157,11.797438 1.79465,17.336178 -0.0348,0.34086 0.21217,0.64518 0.55127,0.6817 l 10.06365,0.99645"
           fill-opacity="1"
           fill-rule="nonzero"
           id="path71"
           style="stroke-width:0.445186" />
        <path
           fill="#000000"
           d="m 285.83386,98.00955 c 1.6712,5.82742 2.23462,11.54875 1.67639,17.01446 -0.008,0.0766 0.0139,0.15129 0.0609,0.20867 0.0469,0.0575 0.11304,0.0922 0.18782,0.10094 l 9.78367,0.97038 c -0.10607,-1.66772 -0.58083,-8.65159 -1.226,-11.53834 -1.30427,-5.82917 -8.5768,-6.64303 -10.48277,-6.75605 z m 11.96439,18.99694 c -0.0139,0 -0.0278,0 -0.0435,-9.7e-4 L 287.69111,116.007 c -0.2539,-0.0261 -0.4817,-0.14783 -0.64344,-0.34433 -0.16172,-0.2 -0.2365,-0.44867 -0.21042,-0.70604 0.56345,-5.51789 -0.0365,-11.30703 -1.78423,-17.205764 l -0.12867,-0.436491 0.45387,0.0013 c 0.0991,0 9.9854,0.09394 11.59746,7.302115 0.70604,3.15281 1.20514,11.03749 1.26078,11.92612 0.005,0.12695 -0.0418,0.25216 -0.13389,0.34084 -0.0817,0.0782 -0.1913,0.12175 -0.30434,0.12175"
           fill-opacity="1"
           fill-rule="nonzero"
           id="path72"
           style="stroke-width:0.445186" />
        <path
           fill="#ffffff"
           d="m 281.90196,97.226981 -0.17042,-8.945463 -5.697,3.91799 -0.0122,4.942263 c 0.0261,1.104279 0.94776,1.732049 0.94776,1.732049 1.13905,0.87125 2.75807,0.73909 3.94582,-0.0643 l 0.27476,-0.18607 c 0.46085,-0.31128 0.72865,-0.839937 0.71126,-1.396424"
           fill-opacity="1"
           fill-rule="nonzero"
           id="path73"
           style="stroke-width:0.445186" />
        <path
           fill="#000000"
           d="m 276.3719,92.376887 -0.01,4.766623 c 0.0208,0.89908 0.79125,1.44686 0.79995,1.45208 0.96689,0.7356 2.4259,0.7043 3.56495,-0.0661 l 0.27477,-0.18434 c 0.36693,-0.24867 0.57736,-0.662554 0.56344,-1.106 0,-0.0037 0,-0.0037 0,-0.0049 l -0.16,-8.317545 z m 2.44157,7.436013 c -0.74255,0 -1.46076,-0.22261 -2.04856,-0.66952 -0.0295,-0.0191 -1.05208,-0.73213 -1.07991,-1.992913 l 0.0122,-4.950959 c 0,-0.113051 0.0539,-0.215642 0.14606,-0.278243 l 5.69701,-3.91799 c 0.10092,-0.07129 0.23476,-0.07827 0.34606,-0.02437 0.1095,0.05916 0.18086,0.172162 0.1826,0.295624 l 0.17041,8.943736 c 0.0208,0.676471 -0.30084,1.305995 -0.85906,1.685085 l -0.2765,0.18609 c -0.71127,0.4817 -1.51469,0.72343 -2.29028,0.72343"
           fill-opacity="1"
           fill-rule="nonzero"
           id="path74"
           style="stroke-width:0.445186" />
        <path
           fill="#000000"
           d="m 269.98626,83.250567 c 1.27991,-0.801684 0.35824,1.471196 4.46927,-2.645032 1.63639,-1.639892 1.88682,1.173822 2.31462,0.749506 1.57206,-1.565104 2.01029,-1.973766 3.05195,-2.236368 0.68866,-0.173901 2.61546,0.316506 2.8572,1.241652 0.79298,3.015443 -0.76691,2.961538 -0.3078,5.719608 0.32171,1.937256 0.1339,2.683296 -0.38781,3.279773 -0.52865,0.603433 -1.49728,-0.01384 -2.12333,0.601694 -0.81212,0.794727 0.27999,2.347669 -0.27824,3.549319 -0.35128,0.756475 -1.61032,1.711189 -4.38231,1.850304 -0.45041,0.02437 -0.8521,-0.279982 -0.95471,-0.719938 -0.13043,-0.563444 -0.2939,-1.278178 -0.39302,-1.973779 -0.47128,-3.312818 0.16868,-4.470999 -0.57387,-4.989222 -1.13558,-0.792988 -2.85894,0.970367 -3.68845,0.26085 -0.8608,-0.735604 -1.35642,-3.587581 0.3965,-4.688367"
           fill-opacity="1"
           fill-rule="nonzero"
           id="path75"
           style="stroke-width:0.445186" />
        <path
           fill="#ffffff"
           d="m 277.17359,85.446933 0.005,0.912972 c 0.004,0.431284 0.0365,0.859078 0.0974,1.286872 0.11648,0.798206 0.26085,2.177247 0.35128,2.952842 0.29388,2.488524 -3.43454,1.627718 -3.43454,1.627718 l -0.47998,-0.464319 -0.41213,0.04691 c -0.0799,0.0098 -0.16173,0.0037 -0.23478,-0.02952 -0.18434,-0.07827 -0.2852,-0.26259 -0.26955,-0.450404 0.10081,-1.022544 0.24172,-3.272814 -0.1965,-4.982264 0,0 1.85205,-1.740745 4.5736,-0.900809"
           fill-opacity="1"
           fill-rule="nonzero"
           id="path76"
           style="stroke-width:0.445186" />
        <path
           fill="#000000"
           d="m 276.90231,85.648661 c -0.0261,0.0191 -0.04,0.03822 -0.0486,0.04863 -0.004,0.0049 -0.008,0.0073 -0.0122,0.0073 -0.004,0 -0.003,0.0024 -0.009,0 l -0.033,-0.0073 c -0.0939,-0.01911 -0.18608,-0.04349 -0.27997,-0.05744 -0.18607,-0.03478 -0.3739,-0.05217 -0.55996,-0.06431 -0.37563,-0.02082 -0.753,0.0037 -1.12166,0.07827 -0.36867,0.07299 -0.72865,0.187802 -1.0695,0.349529 -0.17215,0.07998 -0.33909,0.168682 -0.49735,0.269546 -0.15651,0.09737 -0.31997,0.217382 -0.44171,0.319985 l 0.0957,-0.328681 c 0.24869,1.060808 0.27302,2.125082 0.24173,3.175442 -0.0227,0.525167 -0.0539,1.04862 -0.0991,1.570321 l -0.033,0.365193 c -9.7e-4,0.05916 0.0244,0.123475 0.0766,0.156508 0.0643,0.03295 0.087,0.02082 0.18086,-0.01225 0.12695,-0.0365 0.25215,-0.073 0.38083,-0.09039 0.10093,-0.01225 0.19478,0.02082 0.26433,0.08354 l 0.01,0.0086 c 0.16348,0.15129 0.32173,0.307798 0.48346,0.462567 l -0.16,-0.08868 c 0.73213,0.142595 1.5599,0.19999 2.22592,-0.0013 0.3339,-0.106069 0.58606,-0.290417 0.69562,-0.551268 0.0592,-0.13042 0.0853,-0.283461 0.0887,-0.450404 9.7e-4,-0.08169 -0.005,-0.166944 -0.0139,-0.253894 l -0.0348,-0.302581 c -0.0904,-0.808641 -0.17737,-1.615542 -0.27998,-2.413748 -0.0556,-0.393021 -0.10607,-0.829511 -0.11476,-1.245131 l -0.005,-0.316507 c 0,-0.07655 0.004,-0.154768 0.009,-0.233022 0.0122,-0.15303 0.0348,-0.309538 0.0609,-0.478233 z m 0.54256,-0.403457 c 0.0295,0.236513 0.0556,0.48519 0.0679,0.735605 0.008,0.12694 0.0123,0.252155 0.0139,0.375629 l 0.009,0.293884 c 0.0174,0.3965 0.0662,0.765172 0.12868,1.175573 0.11133,0.81212 0.19825,1.620761 0.28868,2.424184 l 0.0365,0.302593 c 0.01,0.113051 0.0227,0.231283 0.0191,0.351279 -9.6e-4,0.239967 -0.0469,0.493874 -0.15651,0.733865 -0.10779,0.23998 -0.28346,0.453871 -0.48693,0.606901 -0.20519,0.154781 -0.43127,0.255645 -0.65386,0.323464 -0.44692,0.135637 -0.88863,0.159986 -1.31816,0.149551 -0.43477,-0.01384 -0.84517,-0.06259 -1.27644,-0.156508 -0.0626,-0.01384 -0.1182,-0.0452 -0.15999,-0.08696 -0.15826,-0.156508 -0.31999,-0.311289 -0.4765,-0.471276 l 0.27129,0.09394 c -0.12869,0.01225 -0.26084,0.0049 -0.39127,0 -0.0713,0.0013 -0.18955,-0.0073 -0.2852,-0.04005 -0.10264,-0.03479 -0.19129,-0.08696 -0.26433,-0.153042 -0.1513,-0.13042 -0.25041,-0.321712 -0.25041,-0.521702 -0.004,-0.02437 0,-0.05047 0,-0.07471 l 0.005,-0.04863 0.009,-0.09566 0.0139,-0.191293 c 0.0382,-0.511266 0.0556,-1.02601 0.0452,-1.537288 -0.008,-0.513006 -0.0365,-1.022532 -0.0939,-1.525102 -0.0557,-0.502582 -0.13391,-1.001673 -0.26434,-1.478166 -0.0348,-0.121748 0.008,-0.248676 0.0939,-0.328669 0.1826,-0.166944 0.35128,-0.283462 0.53562,-0.405197 0.18085,-0.116481 0.37215,-0.222587 0.56692,-0.318233 0.38954,-0.186075 0.80342,-0.332149 1.23122,-0.413881 0.42606,-0.08525 0.86602,-0.113051 1.29903,-0.08696 0.21738,0.0174 0.43303,0.04005 0.64344,0.08354 0.10778,0.0191 0.21217,0.04862 0.31649,0.073 l 0.04,0.0086 0.0643,0.01911 c 0.0452,0.01384 0.0904,0.03124 0.13565,0.05047 0.087,0.0365 0.17042,0.08354 0.24345,0.132158"
           fill-opacity="1"
           fill-rule="nonzero"
           id="path77"
           style="stroke-width:0.445186" />
        <path
           fill="#ffffff"
           d="m 277.9805,88.205003 c 0,0 -0.0157,-2.199845 0.97906,-1.99465 0.99645,0.203468 0.95471,2.624173 -0.97906,1.99465"
           fill-opacity="1"
           fill-rule="nonzero"
           id="path78"
           style="stroke-width:0.445186" />
        <path
           fill="#000000"
           d="m 273.26604,88.328478 h 9.6e-4 z m 0.52344,0.0643 c -0.0662,0 -0.16695,0.0278 -0.25738,0.142594 -0.0695,0.09039 -0.0295,0.30955 0.10779,0.603433 0.30607,0.650395 0.55648,0.801697 0.67648,0.83647 0.0556,0.01568 0.13912,0.02437 0.2678,-0.05561 0.0817,-0.16867 0.0208,-0.879937 -0.7269,-1.511199 -0.01,-0.0086 -0.0348,-0.01568 -0.0679,-0.01568 z m 0.59821,2.267662 c -0.0835,0 -0.16695,-0.0098 -0.25041,-0.03294 -0.4191,-0.116481 -0.78256,-0.509539 -1.10776,-1.20165 -0.26606,-0.563444 -0.27649,-0.991237 -0.0295,-1.306005 0.17738,-0.227805 0.42433,-0.370411 0.69388,-0.398227 0.22433,-0.02266 0.44344,0.03822 0.59996,0.170422 0.77211,0.650382 1.01731,1.425989 0.98949,1.932037 -0.0155,0.295623 -0.12175,0.52344 -0.29911,0.641698 -0.19128,0.130419 -0.39475,0.194771 -0.59648,0.194771"
           fill-opacity="1"
           fill-rule="nonzero"
           id="path79"
           style="stroke-width:0.445186" />
        <path
           fill="#000000"
           d="m 273.6034,88.41021 c -0.13563,0 -0.26258,-0.07998 -0.31477,-0.213903 -0.0695,-0.173901 0.0174,-0.370412 0.19131,-0.43823 l 4.41708,-1.74944 c 0.17216,-0.06785 0.36868,0.01556 0.43649,0.189554 0.0695,0.175639 -0.0157,0.370399 -0.18955,0.439957 l -4.4171,1.747713 c -0.0399,0.01739 -0.0817,0.02437 -0.12346,0.02437"
           fill-opacity="1"
           fill-rule="nonzero"
           id="path80"
           style="stroke-width:0.445186" />
        <path
           fill="#000000"
           d="m 272.66781,91.135235 c -0.0904,0 -0.28345,-0.03124 -0.59474,-0.332148 -0.17912,-0.168695 -0.75299,-0.789522 -0.73213,-1.606859 0.008,-0.25562 0.10951,-0.471263 0.29564,-0.626032 0.41737,-0.342583 1.12167,-0.234761 1.20166,-0.222599 0.1826,0.03124 0.30606,0.205207 0.27476,0.391283 -0.0295,0.182596 -0.20521,0.307797 -0.38779,0.276503 -0.1913,-0.03124 -0.53041,-0.0278 -0.6591,0.07827 -0.0227,0.01739 -0.0469,0.04348 -0.0486,0.121747 -0.0174,0.613882 0.54084,1.159921 0.7043,1.245144 0.15826,0.0191 0.28346,0.147811 0.29389,0.313016 0.0138,0.186075 -0.12868,0.3478 -0.31301,0.359975 -0.01,0 -0.0208,0.0013 -0.0348,0.0013"
           fill-opacity="1"
           fill-rule="nonzero"
           id="path81"
           style="stroke-width:0.445186" />
        <path
           fill="#ffffff"
           d="m 269.07154,187.94417 10.55405,-43.7987 10.55405,43.7987 h 2.53027 l -11.59747,-48.47839 -2.9737,-0.004 -11.59745,48.48186 h 2.53025"
           fill-opacity="1"
           fill-rule="nonzero"
           id="path82"
           style="stroke-width:0.445186" />
        <path
           fill="#000000"
           d="m 290.44572,187.6068 h 1.83465 l -11.43225,-47.80364 -2.44331,-0.004 -11.43398,47.8072 h 1.83464 l 10.82012,-44.90495 z m 2.69198,0.67473 h -3.22412 l -0.0626,-0.25736 -10.22538,-42.43532 -10.28798,42.69268 h -3.22413 l 11.75919,-49.15833 3.50932,0.005 0.0608,0.25911 11.69483,48.89399"
           fill-opacity="1"
           fill-rule="nonzero"
           id="path83"
           style="stroke-width:0.445186" />
        <path
           fill="#ffffff"
           d="m 209.12091,187.79462 10.55407,-43.80044 10.55404,43.80044 h 2.53026 l -11.59745,-48.47838 -2.97372,-0.004 -11.59745,48.48184 h 2.53025"
           fill-opacity="1"
           fill-rule="nonzero"
           id="path84"
           style="stroke-width:0.445186" />
        <path
           fill="#000000"
           d="m 230.49509,187.45724 h 1.83466 l -11.434,-47.80364 -2.43983,-0.004 -11.43573,47.80712 h 1.83466 l 10.82013,-44.90643 z m 2.69198,0.67474 h -3.22411 l -0.0626,-0.25738 -10.22538,-42.43705 -10.288,42.69443 h -3.22411 l 11.75918,-49.15832 3.50759,0.005 0.0626,0.25911 11.69483,48.894"
           fill-opacity="1"
           fill-rule="nonzero"
           id="path85"
           style="stroke-width:0.445186" />
        <path
           fill="#ffffff"
           d="m 290.95873,140.30921 h -83.24468 v -3.96145 h 83.24468 v 3.96145"
           fill-opacity="1"
           fill-rule="nonzero"
           id="path86"
           style="stroke-width:0.445186" />
        <path
           fill="#000000"
           d="m 208.05317,139.96837 h 82.56991 v -3.28151 h -82.56991 z m 83.24466,0.67821 h -83.92114 v -4.63793 h 83.92114 v 4.63793"
           fill-opacity="1"
           fill-rule="nonzero"
           id="path87"
           style="stroke-width:0.445186" />
        <path
           fill="#ffc043"
           d="m 265.75526,139.71447 c -0.18782,0 -0.33912,-0.14955 -0.33912,-0.33737 v -2.20505 c 0,-0.18782 0.1513,-0.33738 0.33912,-0.33738 0.18607,0 0.33736,0.14956 0.33736,0.33738 v 2.20505 c 0,0.18782 -0.15129,0.33737 -0.33736,0.33737"
           fill-opacity="1"
           fill-rule="nonzero"
           id="path88"
           style="stroke-width:0.445186" />
        <path
           fill="#6168ff"
           d="m 194.27151,178.80219 c 0,0 -6.19434,-13.57644 -2.64155,-31.17521 0,0 9.59933,8.0429 6.1387,31.17521 h -3.49715"
           fill-opacity="1"
           fill-rule="nonzero"
           id="path89"
           style="stroke-width:0.445186" />
        <path
           fill="#ffffff"
           d="m 195.78619,177.724 c -0.008,0 -0.0122,0 -0.0191,0 -0.18608,-0.01 -0.33041,-0.17041 -0.31998,-0.35649 0.47474,-8.65853 -3.43455,-27.16334 -3.47454,-27.3494 -0.0382,-0.1826 0.0783,-0.36346 0.26085,-0.40171 0.18086,-0.0382 0.36171,0.0782 0.39997,0.26084 0.04,0.18607 3.96843,18.77957 3.4902,27.52679 -0.01,0.18086 -0.15999,0.31997 -0.33737,0.31997"
           fill-opacity="1"
           fill-rule="nonzero"
           id="path90"
           style="stroke-width:0.445186" />
        <path
           fill="#ffffff"
           d="m 200.50239,156.73068 c 0,0 -7.98031,14.4164 -3.17892,20.65596 h 2.56679 c 0,0 5.1318,-11.27052 0.61213,-20.65596"
           fill-opacity="1"
           fill-rule="nonzero"
           id="path91"
           style="stroke-width:0.445186" />
        <path
           fill="#6168ff"
           d="m 198.52166,178.10659 c -0.18086,0 -0.33215,-0.1426 -0.33911,-0.32519 -0.16347,-4.21537 0.87124,-12.84433 1.5025,-17.61444 0.0244,-0.18432 0.19478,-0.31649 0.37911,-0.29042 0.18608,0.0244 0.3165,0.19477 0.29041,0.38085 -0.62779,4.7475 -1.65728,13.333 -1.49555,17.49792 0.008,0.18608 -0.13738,0.34259 -0.32519,0.34954 -0.004,0 -0.009,9.6e-4 -0.0122,9.6e-4"
           fill-opacity="1"
           fill-rule="nonzero"
           id="path92"
           style="stroke-width:0.445186" />
        <path
           fill="#ffffff"
           d="m 185.26692,162.10422 c 0,0 6.7978,2.31984 9.25849,16.05106 h -2.67286 c 0,0 -5.58048,-7.54209 -6.58563,-16.05106"
           fill-opacity="1"
           fill-rule="nonzero"
           id="path93"
           style="stroke-width:0.445186" />
        <path
           fill="#6168ff"
           d="m 193.06465,178.10659 c -0.16174,0 -0.30607,-0.11832 -0.3339,-0.28345 -1.00514,-6.07436 -5.36311,-12.20611 -5.40658,-12.26697 -0.10779,-0.15305 -0.073,-0.36347 0.0783,-0.47302 0.15129,-0.10779 0.36346,-0.073 0.47127,0.0783 0.0452,0.0626 4.49187,6.31783 5.52484,12.55044 0.0295,0.18608 -0.0939,0.35822 -0.27824,0.38954 -0.0191,0.004 -0.0365,0.005 -0.0557,0.005"
           fill-opacity="1"
           fill-rule="nonzero"
           id="path94"
           style="stroke-width:0.445186" />
        <path
           fill="#ffc043"
           d="m 187.88935,177.06493 h 16.77101 l 0.37563,7.93335 c 0.0922,1.94421 -1.45904,3.57193 -3.40672,3.57193 h -9.57847 c -2.30419,0 -4.17015,-1.86943 -4.1684,-4.17188 l 0.008,-7.3334"
           fill-opacity="1"
           fill-rule="nonzero"
           id="path95"
           style="stroke-width:0.445186" />
        <path
           fill="#000000"
           d="m 275.21546,73.397332 c -0.17216,0 -0.31997,-0.130432 -0.33562,-0.306071 l -1.95117,-19.861228 c -0.0191,-0.186075 0.11648,-0.351279 0.30258,-0.370411 0.18608,-0.01739 0.35128,0.118195 0.37041,0.304319 l 1.95117,19.861241 c 0.0174,0.187814 -0.1182,0.353019 -0.30258,0.370399 -0.0122,0.0024 -0.0244,0.0024 -0.0348,0.0024"
           fill-opacity="1"
           fill-rule="nonzero"
           id="path96"
           style="stroke-width:0.445186" />
        <path
           fill="#000000"
           d="m 271.78092,74.792014 c -0.13041,0 -0.25563,-0.07655 -0.31128,-0.205194 l -4.0206,-9.477614 c -0.0713,-0.172161 0.009,-0.37041 0.17913,-0.443446 0.17215,-0.07301 0.3704,0.0086 0.44345,0.179118 l 4.02058,9.479339 c 0.073,0.170422 -0.008,0.370412 -0.17912,0.441708 -0.0417,0.01911 -0.0886,0.02609 -0.13216,0.02609"
           fill-opacity="1"
           fill-rule="nonzero"
           id="path97"
           style="stroke-width:0.445186" />
        <path
           fill="#000000"
           d="m 278.40481,74.058161 c -0.0278,0 -0.0591,-0.0037 -0.0886,-0.01384 -0.18086,-0.04862 -0.28692,-0.234761 -0.23651,-0.413892 l 2.75286,-9.922787 c 0.0504,-0.179118 0.23478,-0.283461 0.41736,-0.234762 0.17738,0.05047 0.28519,0.236502 0.23478,0.415632 l -2.75286,9.921048 c -0.0418,0.149551 -0.17738,0.248676 -0.32693,0.248676"
           fill-opacity="1"
           fill-rule="nonzero"
           id="path98"
           style="stroke-width:0.445186" />
        <path
           fill="#000000"
           d="m 274.23292,24.18858 c -0.0853,0 -0.17042,-0.03124 -0.23476,-0.09394 -0.13391,-0.13042 -0.14086,-0.344322 -0.01,-0.47822 l 0.8295,-0.866037 c 0.12868,-0.133897 0.34431,-0.137375 0.47823,-0.0086 0.13563,0.12868 0.13911,0.344323 0.01,0.47822 l -0.82951,0.864297 c -0.0679,0.06957 -0.15478,0.104355 -0.24347,0.104355"
           fill-opacity="1"
           fill-rule="nonzero"
           id="path99"
           style="stroke-width:0.445186" />
        <path
           fill="#000000"
           d="m 271.32878,27.214446 c -0.0834,0 -0.16868,-0.03294 -0.23304,-0.09566 -0.13563,-0.126953 -0.13911,-0.340856 -0.0122,-0.476505 l 0.83125,-0.864285 c 0.12694,-0.135637 0.34258,-0.139116 0.47648,-0.0098 0.13565,0.130419 0.13913,0.342583 0.01,0.478232 l -0.82952,0.864285 c -0.0661,0.06785 -0.15476,0.104356 -0.24346,0.104356"
           fill-opacity="1"
           fill-rule="nonzero"
           id="path100"
           style="stroke-width:0.445186" />
        <path
           fill="#000000"
           d="m 272.14438,24.235527 c -0.087,0 -0.17218,-0.03307 -0.23825,-0.09737 l -0.84169,-0.827773 c -0.1339,-0.130419 -0.13564,-0.346062 -0.005,-0.478232 0.13217,-0.133898 0.34607,-0.133898 0.47997,-0.0037 l 0.84169,0.826033 c 0.13217,0.132159 0.13389,0.346062 0.004,0.47996 -0.0661,0.06614 -0.15476,0.100925 -0.23998,0.100925"
           fill-opacity="1"
           fill-rule="nonzero"
           id="path101"
           style="stroke-width:0.445186" />
        <path
           fill="#000000"
           d="m 275.08851,27.130974 c -0.0853,0 -0.17041,-0.03124 -0.23824,-0.09737 l -0.84167,-0.826033 c -0.13217,-0.13216 -0.13392,-0.346062 -0.004,-0.478221 0.13216,-0.13391 0.34606,-0.135637 0.47996,-0.0049 l 0.83993,0.827773 c 0.13392,0.130432 0.13565,0.346062 0.005,0.47822 -0.0662,0.06614 -0.15476,0.100925 -0.24172,0.100925"
           fill-opacity="1"
           fill-rule="nonzero"
           id="path102"
           style="stroke-width:0.445186" />
        <path
           fill="#000000"
           d="m 173.46426,175.5172 c -0.18607,0 -0.37041,0.0382 -0.54605,0.11305 -0.34085,0.14608 -0.60691,0.41563 -0.74429,0.75994 -0.13911,0.34606 -0.13565,0.72343 0.01,1.06429 0.14608,0.34258 0.41563,0.6069 0.75996,0.74603 0.34431,0.13738 0.72342,0.13391 1.06426,-0.0122 0.34258,-0.14434 0.60692,-0.41389 0.74603,-0.75995 0.2852,-0.71126 -0.0608,-1.52164 -0.77211,-1.80858 -0.16868,-0.0679 -0.34259,-0.10264 -0.51822,-0.10264 z m -0.004,3.45889 c -0.25564,0 -0.51649,-0.0469 -0.76864,-0.14955 -1.05732,-0.42431 -1.57206,-1.6312 -1.14602,-2.68852 0.42606,-1.0573 1.6312,-1.57205 2.68852,-1.146 1.05732,0.42433 1.57206,1.6312 1.146,2.68852 -0.32346,0.80516 -1.10079,1.29555 -1.91986,1.29555"
           fill-opacity="1"
           fill-rule="nonzero"
           id="path103"
           style="stroke-width:0.445186" />
        <path
           fill="#000000"
           d="m 164.07187,172.54002 h 0.003 z m 1.41207,-0.61735 c -0.15651,0 -0.31475,0.0312 -0.46431,0.0957 -0.29041,0.12347 -0.51474,0.35477 -0.63473,0.64692 -0.24346,0.60692 0.0522,1.29729 0.65735,1.54076 0.6069,0.24346 1.29729,-0.0504 1.54075,-0.65734 0.1182,-0.29215 0.11477,-0.61561 -0.009,-0.90602 -0.12346,-0.29043 -0.35476,-0.5165 -0.64691,-0.633 -0.14433,-0.0591 -0.2939,-0.087 -0.44345,-0.087 z m -0.003,3.04502 c -0.2313,0 -0.46431,-0.0418 -0.69212,-0.13392 -0.95125,-0.38432 -1.41382,-1.46771 -1.03124,-2.4207 0.38258,-0.95124 1.46773,-1.41382 2.4207,-1.03123 0.46085,0.18434 0.82081,0.5391 1.01732,0.99646 0.19477,0.45734 0.19998,0.96341 0.0138,1.42251 -0.29215,0.72517 -0.99124,1.16688 -1.72857,1.16688"
           fill-opacity="1"
           fill-rule="nonzero"
           id="path104"
           style="stroke-width:0.445186" />
        <path
           fill="#000000"
           d="m 150.95278,30.723762 c -0.44171,1.792933 4.90923,-0.674731 8.91938,-2.615464 2.25549,-1.090363 4.06406,-2.928493 5.12139,-5.197896 l 2.97544,-6.385642 c -8.67244,4.650104 -15.29981,9.355865 -17.01621,14.199002"
           fill-opacity="1"
           fill-rule="nonzero"
           id="path105"
           style="stroke-width:0.445186" />
        <path
           fill="#000000"
           d="m 149.30421,20.470566 c 8.40636,0.0024 5.97522,0.170422 13.31559,1.537289 l -18.43698,13.313859 c -3.28847,0.0024 -7.92641,2.29723 -8.4429,5.543956 -0.61039,3.851911 -31.67431,0.942551 1.66076,-19.19692 3.01023,-1.819011 10.10539,-1.198184 11.90353,-1.198184"
           fill-opacity="1"
           fill-rule="nonzero"
           id="path106"
           style="stroke-width:0.445186" />
        <path
           fill="#ffffff"
           d="m 149.44158,28.306547 c 0.23998,-0.05561 0.46258,-0.1739 0.65213,-0.330408 l 2.93544,-2.432879 c 0.31304,-0.196499 0.71649,-0.168684 0.9982,0.06614 l 2.09898,1.782486 c 0.26956,0.224327 0.65908,0.241719 0.95125,0.04164 l 2.65372,-1.818998 1.29556,0.41562 c 0.10092,0.03294 0.21042,-0.02082 0.24521,-0.121748 l 0.85037,-2.385919 c 0.36519,-0.831252 2.56504,-4.434475 2.23985,-4.742274 0,0 -4.75967,-6.189141 -8.94199,-4.215362 -0.60518,0.285198 -1.07471,0.79994 -1.34252,1.413811 l -0.5617,1.283395 c -0.56517,1.2886 -3.43628,4.234485 -6.45172,4.999645 -0.40172,0.10264 -1.44165,0.186075 -2.25376,0.236501 -0.60344,0.03822 -1.01036,0.626056 -0.84689,1.208619 0.19476,0.690384 0.55647,1.646837 1.22252,2.751113 0.87472,1.453817 2.56677,2.238109 4.22057,1.857262 0.01,-0.0024 0.0227,-0.0049 0.0348,-0.0086"
           fill-opacity="1"
           fill-rule="nonzero"
           id="path107"
           style="stroke-width:0.445186" />
        <path
           fill="#000000"
           d="m 164.12926,19.023719 c 0,0 0,0.0024 0,0.0024 z m -6.96822,-4.505783 c -0.53734,0 -1.07297,0.106082 -1.59641,0.353019 -0.51474,0.24346 -0.93384,0.685172 -1.17731,1.245133 l -0.56169,1.281653 c -0.60866,1.387725 -3.60497,4.413603 -6.6778,5.194415 -0.34432,0.08696 -1.1234,0.168684 -2.31462,0.24521 -0.18434,0.01225 -0.3478,0.102641 -0.45388,0.253882 -0.10781,0.151303 -0.14086,0.342595 -0.0905,0.525192 0.17042,0.601695 0.51475,1.554681 1.186,2.667642 0.81908,1.359898 2.36854,2.043337 3.85538,1.702492 l 0.033,-0.0073 c 0.18434,-0.0452 0.35824,-0.13391 0.51475,-0.264329 l 2.9337,-2.43288 c 0.0122,-0.0086 0.0244,-0.0191 0.0382,-0.02609 0.43997,-0.273013 0.99993,-0.234762 1.39469,0.09394 l 2.09897,1.784226 c 0.1513,0.125214 0.37563,0.133909 0.54258,0.02082 l 2.65373,-1.820737 c 0.087,-0.05916 0.1965,-0.07471 0.29563,-0.04177 l 1.16514,0.37389 0.80342,-2.257228 c 0.004,-0.0073 0.005,-0.01384 0.009,-0.02266 0.11648,-0.266068 0.3878,-0.758203 0.73213,-1.382507 0.50953,-0.925159 1.44337,-2.620695 1.50945,-3.071099 -0.40169,-0.499091 -3.64844,-4.415346 -6.89342,-4.415346 z m -7.71946,13.790351 h 9.7e-4 z m -0.8782,0.441708 c -1.46423,0 -2.86414,-0.784291 -3.66757,-2.116385 -0.57039,-0.946018 -0.99297,-1.898991 -1.2573,-2.834573 -0.10608,-0.379108 -0.0383,-0.779074 0.18782,-1.100799 0.22432,-0.316493 0.5756,-0.511265 0.9634,-0.537354 1.11818,-0.07129 1.89553,-0.15129 2.19115,-0.226066 2.82937,-0.716472 5.67787,-3.561494 6.22391,-4.808363 l 0.56344,-1.281655 c 0.30955,-0.709512 0.84518,-1.272954 1.50774,-1.584235 4.31274,-2.036383 9.00806,3.86755 9.34195,4.297096 0.31129,0.335626 0.0417,1.008618 -1.48163,3.773645 -0.31651,0.575619 -0.59128,1.07471 -0.69909,1.318167 l -0.84516,2.373746 c -0.0991,0.273038 -0.39302,0.417371 -0.66953,0.328681 l -1.13555,-0.365193 -2.51809,1.725103 c -0.41563,0.28694 -0.97558,0.260851 -1.35991,-0.05916 l -2.10072,-1.785965 c -0.16347,-0.135636 -0.39648,-0.154769 -0.58432,-0.04691 l -2.91456,2.415487 c -0.23825,0.198251 -0.50433,0.332148 -0.78953,0.401707 l -0.0365,0.0086 c -0.30608,0.06957 -0.61561,0.104354 -0.91994,0.104354"
           fill-opacity="1"
           fill-rule="nonzero"
           id="path108"
           style="stroke-width:0.445186" />
        <path
           fill="#ffffff"
           d="m 150.47455,55.351624 c 0,0 -17.21793,-3.811909 -15.68065,-19.346484 l -11.78005,2.389399 c 0,0 -3.67453,19.83689 25.87125,20.727252 0,0 4.96488,3.326731 6.3074,3.231085 1.3425,-0.09394 4.96312,-1.944212 4.94921,-2.551124 l 1.2573,-1.234697 c 0.14259,-0.140866 0.2313,-0.325202 0.24869,-0.52344 0.0486,-0.506061 -0.38954,-0.923419 -0.89212,-0.85211 l -5.50049,0.775583 -0.37562,-0.220848 c -0.56171,-0.330408 -0.67474,-1.097319 -0.2313,-1.57554 l 1.92683,-2.086806 c 0.20868,-0.224338 0.15478,-0.586053 -0.11133,-0.740822 l -5.98916,2.008552"
           fill-opacity="1"
           fill-rule="nonzero"
           id="path109"
           style="stroke-width:0.445186" />
        <path
           fill="#000000"
           d="m 159.8113,59.760021 z m -0.009,0.05047 z M 123.31473,38.679727 c -0.15476,1.187736 -0.63474,6.89517 3.39107,11.880913 4.15102,5.138773 11.61658,7.905539 22.18977,8.223773 0.0643,0.0037 0.1252,0.02265 0.17738,0.05744 1.88333,1.260785 5.20311,3.229346 6.09522,3.17543 1.2747,-0.09211 4.38927,-1.758137 4.63621,-2.245053 0.008,-0.07827 0.0418,-0.15303 0.1008,-0.210413 l 1.25731,-1.234696 c 0.0852,-0.08524 0.13738,-0.196523 0.14956,-0.314768 0.0122,-0.137388 -0.0366,-0.271285 -0.13738,-0.366932 -0.0991,-0.09566 -0.23477,-0.139127 -0.37215,-0.120033 l -5.50048,0.775596 c -0.0747,0.01225 -0.15305,-0.0037 -0.21913,-0.04164 l -0.37389,-0.220849 c -0.35649,-0.208673 -0.59649,-0.565183 -0.65733,-0.973845 -0.0609,-0.410402 0.0662,-0.820815 0.34779,-1.125136 l 1.92683,-2.083339 c 0.0417,-0.04348 0.0417,-0.09394 0.0382,-0.118195 -0.003,-0.0024 -0.003,-0.0037 -0.003,-0.0037 l -5.78046,1.938994 c -0.0575,0.0191 -0.12003,0.02266 -0.18086,0.0086 -0.17912,-0.04005 -4.41709,-0.999934 -8.53853,-3.900598 -3.75444,-2.643276 -8.05154,-7.439465 -7.44636,-15.35544 z m 31.83084,24.01398 c -1.43295,0 -5.58222,-2.714589 -6.36826,-3.23629 -10.73316,-0.339117 -18.33959,-3.192822 -22.60538,-8.482897 -4.68838,-5.813503 -3.54063,-12.36435 -3.4902,-12.640855 0.0243,-0.135649 0.13043,-0.241731 0.26433,-0.269547 l 11.78005,-2.391138 c 0.10434,-0.02082 0.21391,0.0086 0.2939,0.08169 0.08,0.07129 0.12,0.175639 0.10955,0.283449 -0.6243,6.312606 1.77205,11.423563 7.12299,15.188512 3.68844,2.598096 7.57338,3.618889 8.20639,3.773658 l 5.89871,-1.977258 c 0.0921,-0.03124 0.19303,-0.02082 0.27652,0.0278 0.21563,0.125201 0.36169,0.339104 0.39823,0.586041 0.0365,0.246949 -0.0382,0.493886 -0.20869,0.67647 l -1.92856,2.086818 c -0.14087,0.15129 -0.20521,0.358236 -0.17392,0.56517 0.0295,0.205208 0.15131,0.384338 0.33042,0.488668 l 0.27303,0.161727 5.38397,-0.758203 c 0.34258,-0.04862 0.68344,0.05916 0.93386,0.299114 0.24868,0.23824 0.37387,0.572128 0.34258,0.916462 -0.0261,0.278231 -0.14955,0.539082 -0.3478,0.735593 l -1.19645,1.173833 c -0.41736,1.015575 -4.05884,2.625901 -5.22398,2.707633 -0.0244,0.0024 -0.0469,0.0037 -0.0713,0.0037"
           fill-opacity="1"
           fill-rule="nonzero"
           id="path110"
           style="stroke-width:0.445186" />
        <path
           fill="#000000"
           d="M 138.71885,34.810436 123.7825,32.761893 c -6.23088,8.70721 -0.95646,26.149485 15.44936,27.144189 l 3.24326,-10.244499 c -6.28653,-3.956242 -9.2185,-8.364628 -3.75627,-14.851147"
           fill-opacity="1"
           fill-rule="nonzero"
           id="path111"
           style="stroke-width:0.445186" />
        <path
           fill="#000000"
           d="m 146.89568,30.217713 12.62174,-10.197552 c 1.53379,-0.311276 3.0676,-0.601694 4.61879,0 6.42391,-2.479827 5.82569,-8.940249 -4.84488,-13.9172945 -4.91271,0.00698 -10.07583,8.7437415 -15.21286,16.5640655 -0.7495,2.900664 -0.3304,6.316098 2.81721,7.550781"
           fill-opacity="1"
           fill-rule="nonzero"
           id="path112"
           style="stroke-width:0.445186" />
        <path
           fill="#ffffff"
           d="m 232.4393,105.45076 c 0,1.17731 -1.02775,2.13202 -2.29374,2.13202 -1.26601,0 -2.29378,-0.95471 -2.29378,-2.13202 0,-1.17905 1.02777,-2.13376 2.29378,-2.13376 1.26599,0 2.29374,0.95471 2.29374,2.13376"
           fill-opacity="1"
           fill-rule="nonzero"
           id="path113"
           style="stroke-width:0.445186" />
        <path
           fill="#ffffff"
           d="m 226.46406,103.14658 c -0.27302,0 -0.54605,-0.11648 -0.7356,-0.34085 -0.34779,-0.40519 -0.2991,-1.01558 0.10779,-1.36338 1.32512,-1.13037 2.8311,-1.72858 4.36143,-1.72858 1.52685,0 3.03457,0.59821 4.3597,1.72858 0.40694,0.3478 0.45562,0.95819 0.10778,1.36338 -0.34606,0.40693 -0.95645,0.45561 -1.36339,0.10778 -0.98427,-0.83994 -2.0294,-1.26425 -3.10413,-1.26425 -1.07643,0 -2.12159,0.42431 -3.10585,1.26425 -0.1826,0.15651 -0.4052,0.23303 -0.62779,0.23303"
           fill-opacity="1"
           fill-rule="nonzero"
           id="path114-0"
           style="stroke-width:0.445186" />
        <path
           fill="#ffffff"
           d="m 236.16948,99.65812 c -0.2191,0 -0.44171,-0.0747 -0.62257,-0.22782 -1.6851,-1.42075 -3.48324,-2.142457 -5.34919,-2.142457 -1.8677,0 -3.66583,0.721707 -5.35094,2.142457 -0.40692,0.34433 -1.01731,0.2939 -1.36164,-0.11476 -0.34432,-0.40868 -0.29389,-1.01733 0.11477,-1.363389 2.01203,-1.699015 4.29361,-2.598072 6.59779,-2.598072 2.30246,0 4.5823,0.899057 6.59607,2.598072 0.40867,0.346059 0.46085,0.954709 0.11477,1.363389 -0.19129,0.22606 -0.46432,0.34258 -0.73908,0.34258"
           fill-opacity="1"
           fill-rule="nonzero"
           id="path115"
           style="stroke-width:0.445186" />
        <path
           fill="#ffffff"
           d="m 238.40933,96.171404 c -0.2226,0 -0.44694,-0.07655 -0.62953,-0.233023 -2.3807,-2.046816 -4.93183,-3.085 -7.58208,-3.085 -2.652,0 -5.20312,1.038184 -7.58382,3.085 -0.4052,0.347801 -1.01559,0.302581 -1.36339,-0.102641 -0.3478,-0.405183 -0.30257,-1.015586 0.10264,-1.363387 1.32687,-1.140789 2.73547,-2.022466 4.18754,-2.617204 1.51293,-0.620826 3.07979,-0.937333 4.65707,-0.937333 1.57554,0 3.14239,0.316507 4.65533,0.937333 1.45207,0.594738 2.86067,1.476415 4.18754,2.617204 0.40518,0.347801 0.45039,0.958204 0.10264,1.363387 -0.1913,0.2226 -0.46084,0.335628 -0.73387,0.335628"
           fill-opacity="1"
           fill-rule="nonzero"
           id="path116"
           style="stroke-width:0.445186" />
        <path
           fill="#ffc043"
           d="m 232.40104,105.16035 c 0,1.17731 -0.95298,2.13203 -2.13029,2.13203 -1.1773,0 -2.13202,-0.95472 -2.13202,-2.13203 0,-1.17732 0.95472,-2.13029 2.13202,-2.13029 1.17731,0 2.13029,0.95297 2.13029,2.13029"
           fill-opacity="1"
           fill-rule="nonzero"
           id="path117"
           style="stroke-width:0.445186" />
        <path
           fill="#ffc043"
           d="m 226.46406,102.51705 c -0.27302,0 -0.54605,-0.11476 -0.7356,-0.33909 -0.34779,-0.40693 -0.2991,-1.01733 0.10779,-1.3634 1.32512,-1.1321 2.8311,-1.72857 4.36143,-1.72857 1.52685,0 3.03457,0.59647 4.3597,1.72857 0.40694,0.34607 0.45562,0.95647 0.10778,1.3634 -0.34606,0.40517 -0.95645,0.45388 -1.36339,0.10778 -0.98427,-0.83994 -2.0294,-1.26599 -3.10413,-1.26599 -1.07643,0 -2.12159,0.42605 -3.10585,1.26599 -0.1826,0.15478 -0.4052,0.23129 -0.62779,0.23129"
           fill-opacity="1"
           fill-rule="nonzero"
           id="path118"
           style="stroke-width:0.445186" />
        <path
           fill="#ffc043"
           d="m 236.16948,99.03034 c -0.2191,0 -0.44171,-0.0747 -0.62257,-0.22781 -1.6851,-1.422519 -3.48324,-2.144197 -5.34919,-2.144197 -1.8677,0 -3.66583,0.721678 -5.35094,2.144197 -0.40692,0.34433 -1.01731,0.29215 -1.36164,-0.11476 -0.34432,-0.40866 -0.29389,-1.019068 0.11477,-1.363391 2.01203,-1.700753 4.29361,-2.599811 6.59779,-2.599811 2.30246,0 4.5823,0.899058 6.59607,2.599811 0.40867,0.344323 0.46085,0.954731 0.11477,1.363391 -0.19129,0.22608 -0.46432,0.34258 -0.73908,0.34258"
           fill-opacity="1"
           fill-rule="nonzero"
           id="path119"
           style="stroke-width:0.445186" />
        <path
           fill="#ffc043"
           d="m 238.40933,95.543621 c -0.2226,0 -0.44694,-0.07655 -0.62953,-0.234763 -2.3807,-2.046815 -4.93183,-3.085 -7.58208,-3.085 -2.652,0 -5.20312,1.038185 -7.58382,3.085 -0.4052,0.347801 -1.01559,0.302581 -1.36339,-0.10264 -0.3478,-0.403445 -0.30257,-1.015586 0.10264,-1.363388 1.32687,-1.140789 2.73547,-2.020726 4.18754,-2.617204 1.51293,-0.620826 3.07979,-0.935593 4.65707,-0.935593 1.57554,0 3.14239,0.314767 4.65533,0.935593 1.45207,0.596478 2.86067,1.476415 4.18754,2.617204 0.40518,0.347802 0.45039,0.959943 0.10264,1.363388 -0.1913,0.2226 -0.46084,0.337365 -0.73387,0.337365"
           fill-opacity="1"
           fill-rule="nonzero"
           id="path120"
           style="stroke-width:0.445186" />
        <g
           clip-path="url(#f6713354b4)"
           id="g121"
           transform="matrix(0.4451865,0,0,0.4451865,-7.59447,-28.308655)">
          <path
             fill="#ff5574"
             d="M 694.89844,162.87109 690.75,151.46484 c -0.004,-0.0117 -0.0156,-0.0195 -0.0195,-0.0312 -0.004,-0.0117 0,-0.0195 -0.004,-0.0312 l -0.96875,-2.66406 -51.10547,18.45703 7.30078,4.17188 16.34766,-5.94532 c 0.17188,-0.0625 0.35156,-0.0937 0.53125,-0.0937 0.30078,0 0.60156,0.0898 0.85938,0.26172 l 8.625,5.75 z m 31.3789,48.87891 h -9.28515 v -37.13672 h 9.28515 z m -86.73828,-38.23047 4.23828,11.63281 -2.85937,1.03907 -4.23438,-11.63282 z m 5.50391,0.89063 c 0.39453,0.22265 0.86719,0.26562 1.29687,0.10937 l 16.28516,-5.92187 8.63281,5.7539 c 0.25781,0.17188 0.5586,0.26172 0.85938,0.26172 0.18359,0 0.36718,-0.0312 0.54297,-0.0977 l 24.75781,-9.28515 c 0.79687,-0.29688 1.20312,-1.17969 0.91015,-1.98047 l -4.15234,-11.42188 2.625,-0.95312 c 0.88281,-0.32031 1.85547,0.14844 2.15234,1.03516 l 4.96485,14.77734 c 0.41015,1.21875 -0.22656,2.53906 -1.4375,2.98047 l -19.80078,7.20703 1.04687,2.88672 c 0.36328,0.98828 0.36719,2.03515 0.0274,2.98828 l -0.0352,0.21484 -0.32813,0.5586 c -0.10937,0.1875 -0.23437,0.35547 -0.36718,0.51953 l 4.61328,6.14844 h 18.52344 v -4.37891 c 0,-1.05469 0.85937,-1.91406 1.91406,-1.91406 h 5.82422 v 18.5664 h -5.82422 c -1.05469,0 -1.91406,-0.85547 -1.91406,-1.91406 v -4.375 h -20.11719 c -0.97656,0 -1.86719,-0.46094 -2.42578,-1.23828 l -6.09375,-8.23828 c -0.27735,0.0547 -0.55469,0.0898 -0.84766,0.0898 -1.86719,0 -3.55469,-1.17578 -4.19922,-2.92969 l -1.05078,-2.88671 -20.96484,7.6289 c -1.25391,0.45703 -2.64063,-0.21094 -3.0586,-1.47656 l -4.66797,-14.03516 z m 0,0"
             fill-opacity="1"
             fill-rule="nonzero"
             id="path121" />
        </g>
      </g>
    </g>
  </g>
  <metadata
     id="metadata228">
    <rdf:RDF>
      <cc:Work
         rdf:about="">
        <dc:title>header-illustration</dc:title>
      </cc:Work>
    </rdf:RDF>
  </metadata>
</svg>
