<?xml version="1.0" encoding="UTF-8"?>
<svg id="Layer_2" data-name="Layer 2" xmlns="http://www.w3.org/2000/svg" viewBox="0 0 570 398">
  <defs>
    <style>
      .cls-1 {
        fill: #ffc043;
      }

      .cls-2 {
        fill: #fdfdfe;
      }

      .cls-3 {
        fill: #e9c2a7;
      }

      .cls-4 {
        fill: #eac1a4;
      }

      .cls-5 {
        fill: #315399;
      }

      .cls-6 {
        fill: #ff5754;
      }

      .cls-7 {
        fill: #a0c8e4;
      }

      .cls-8 {
        fill: #f6f6f6;
      }

      .cls-9 {
        fill: #141c2a;
      }

      .cls-10 {
        fill: #6168ff;
      }

      .cls-11 {
        fill: #e9c1a5;
      }

      .cls-12 {
        fill: #e9c0a4;
      }

      .cls-13 {
        fill: #9ac5e3;
      }

      .cls-14 {
        fill: #414960;
      }

      .cls-15 {
        fill: #accfe8;
      }

      .cls-16 {
        fill: #5562e0;
      }

      .cls-17 {
        fill: #161d2a;
      }

      .cls-18 {
        fill: #2834a5;
      }

      .cls-19 {
        fill: #161c28;
      }

      .cls-20 {
        fill: #f8f9fa;
      }

      .cls-21 {
        fill: #fefefe;
      }

      .cls-22 {
        fill: #98c4e2;
      }

      .cls-23 {
        fill: #3a4559;
      }

      .cls-24 {
        fill: #a9cde7;
      }

      .cls-25 {
        fill: #7cb3db;
      }

      .cls-26 {
        fill: #f3f3f3;
      }

      .cls-27 {
        fill: #e9c1a4;
      }

      .cls-28 {
        fill: #fcfcfc;
      }

      .cls-29 {
        fill: #181f2d;
      }

      .cls-30 {
        fill: #ebc2a4;
      }

      .cls-31 {
        fill: #9cc6e3;
      }

      .cls-32 {
        fill: #171f2d;
      }

      .cls-33 {
        fill: #97c3e2;
      }

      .cls-34 {
        fill: #96c2e2;
      }

      .cls-35 {
        fill: #2f5198;
      }

      .cls-36 {
        fill: #9fc8e4;
      }

      .cls-37 {
        fill: #161d29;
      }
    </style>
  </defs>
  <g id="Layer_1-2" data-name="Layer 1">
    <g>
      <path class="cls-21" d="M344,0h226v361c-3.1-.25-6.25-1.68-9.45-4.3-23.92-8.98-53.57-11.94-78.55-9.7l-2.37-.75c-5.15-12.54-9.94-25.22-14.37-38.03l1.74-1.71c-.77-.1-1.92-.32-2-.88-.21-1.49-.34-15.95,0-16.72s1.21-1.11,2-1.41l-2.17-.02c-.66-.6-1.64-14.98-1.38-16.5l1.55-1.98c.85-25.71.19-51.47-1.97-77.26-1.22-7.54-3.61-14.37-12.71-12.83l-1.32-1.91c-5.26-1.35.14-9.16,4-6-.29-1.21.33-2.42,1.01-3.41,22.11-17.87-15.86-33.32-27.02-17.3l7.01,8.71,2.01,1c-.14,3.81.38,7.48,1.57,11.03,5.66,2.7,6.8,5.03,3.42,6.98l-1.67,1.38c-2.94-1.2-5.58.19-8.08,1.73l-19.81,20.25-2.44-.37c-2.97.12-6.27-.69-9.91-2.41-11.2-2.31-53.39-.26-62.69,4.8-5.94,3.23-8.52,9.18-10.06,15.49l-2.33,1.12-.59,5.24c1.67,1.47.7,2.06-1.3,2.77l-21.68-.04c-2.13-.28-3.6-.52-3.44-2.97-2.63-.98-3.84-7.99-2-10-3.32-5.54-5.18-11.37-5.58-17.5,5.56-3.99,11.78-7.24,18.66-9.74,8.68-4.08,12.5-15.33,6.11-23.18l-14.34-26.23,1.16-2.35c-2.84-1.41-2.69-3.55,0-5l1.03-2.09c4.17.41,8.25.3,12.27-.33l1.7,1.42,1.7-4.55c8.64-8.72,17.16-17.64,24.28-27.67l.02-92.66,2-4.12c-.87-.28-.86-.62,0-1Z"/>
      <path class="cls-21" d="M244,0c-.03.89-.11,1.77-.32,2.61-.47,1.9-19.69,24.83-23.6,27.86-.96.74-1.93,1.19-3.09,1.53l1.75,1.95c.26,31.29.18,62.98-.24,95.06h72.61s1.87,1.99,1.87,1.99c3.39-.77,4.5,7.08,2,9,1.17,1.05,1.76,2.8,1.77,5.26l7.61,24.77c.48,1.62.96,3.62-.22,5.1-1.03,1.28-25.25,8.66-28.97,7.14l-1.19-2.26c-2.61-2.15,2.13-8.56,5-7l.15-2.26c9.8-10.91,3.5-24.2-11.2-23.82-10.76.28-19.75,11.83-7.32,18.57l-.62,2.51c4.07.52,7.95,9.2,7,13l-.43,2.13c-11.21,1.9-15.09,7.6-19.77,17.22l-3.8,1.65c-2.62,2.93-7.34,2.84-10,0-4.19-.56-7.14-2.36-8.83-5.41l-2.17-.59-1.5,1.91c-6.19-.62-8.71,2.8-8.5,8.64l-2,1.44.21,2.18c-3.55,4.49-4.88,10.28-6.06,15.79l-2.15,1.03c-.17.76-.5,1.89-1.07,1.91-1.88.07-18.59-1.34-19.69-1.79l-1.24-2.12-1.98-2c.2-9.58-3.79-18.29-12.99-22.05,0-1.26-.68-2.25-2.03-2.95-1.5.5-3.39.15-5.64-1.05-3.2,1.23-5.32.92-6.36-.95-4.44,3.25-15.93,1.62-20-2l-3.06-1.41c-1.31-1.2-6.77-11-5.94-12.59,1.84-2.08,1.66-4.91-.52-8.52-.33-11.29-3.15-24.06-17.04-24.32-7.45-.14-14.68,6.29-15.1,13.76.76,11.39-1.99,21.32-7.34,31.08,1.24,2.12.77,4.89-1.41,8.32l-13.48,23.69c4.49,8.57,8.45,17.34,11.87,26.32l-.32,3.47c-5.69,10.72-7.12,21.45-7.18,33.57,6.38,2.34,12.87,4.31,19.49,5.91,1.98.97,2.52,1.97,1.03,3.72,1.29,1.47,2.21,3.13,2.75,5,1.55,14.13,2.85,28.33,3.72,42.52.05.88-.17,1.78-.41,2.7s-.64,1.87-1.05,2.77c-.4.85-1.19,1.76-1.97,1.51-15.63-5.12-30.82-8.26-47.61-8.72-16.26-.44-35.41,1.18-45.1,15.63l-2.32-.42V0h244Z"/>
      <path class="cls-8" d="M245,339c3.55,4.49,5.09,15.09,2,20-2.86,6.46-1.38,6.77,4.94,3l2.06,1c.74-2.63.4-4.57-1.02-5.8l2.81-16.14,2.21-1.05c1.25-6.26,15.61-5.48,18-1,4.39,2.83,6.68,14.4,5,18,1.09,1.34,1.8,2.89,2.13,4.63,7.26,4.47,9.32,4.37,6.18-.3l.69-2.32c.45-4.34.12-6.34-1-6-3.13-1.97-2.2-10.44,1-12,1.08-3.5,1.54-4.21,5.12-5.03,13.48-3.08,46.57-1.18,61.47.12,17.56,1.52,35.11,3.06,52.48,5.95,7.51-1.4,11.82.25,12.93,4.96,2.63.89,2.78,3.09,1,5-.48,2.01-1.77,4-3.85,5.96,5.5.24,11.49.27,12.85-5.96.34-1.42.68-2.75,1-4l1.38-4.12c2.7-2.83,25.78-2.3,30.6-1.76l3.01,1.87c3.6.34,6.4,4.6,5,8,1.37,1.71,1.08,4.23-.88,7.58.34.69,12.37-3.87,8.35-7.79l1.53-1.79c-2.67-1.18-2.67-1.98,0-3,1.3-3.16,3.55-3.07,6.51-3.09,14.46-.09,35.37,1.93,49.7,4.38,11.26,1.93,23.4,4.43,31.79,12.71v37h-96c-63.5-5.58-129.07-7.99-193.56-6.11-70.68,2.56-141.06,4.3-211.13,5.22-19.86.47-43.37.73-60.12-11.31-4.4-3.16-8.43-6.08-9.18-11.79v-16c4.4-4.69,5.05-7.17,10.98-10.52,21.1-11.91,57.29-5.57,80.09-.06,2.13.51,3.74,2.23,5.93,2.58,3.44,1.14,4.8,11.75,1,13-2.07,5.47.62,6.01,4.92,2.71-.12-1.56.37-2.28,2.08-2.71-2.45-2.67-1.1-10.17,2-12-.71-5.21,17.44-2.85,16.54-1.72-1.43,1.8-2.53-.11.46-1.28.78-.11,1.86-.13,2.14.47,1.55,3.35,1.12,6.63.49,9.67-.13.61.12,1.3.37,1.86.68-.44,1.52-.75,2.28-.37,4.82,2.4,7.59.87,3.72-3.63-3.03-.63-2.79-6.15,0-7,.8-1.11,1.76-2.11,3.06-2.58,30.84-3.28,61.72-6.65,92.65-10.11,6.35-.92,11.78-.02,16.29,2.68Z"/>
      <path class="cls-16" d="M344,0v1c-2.62,5.39-6.43,10.27-11.41,14.65-4.81,6.86-10.34,12.31-16.59,16.35l-.69,2h-97.08l-1.22-2c.51-3.2,12.49-14.57,15.51-17.99,3.97-4.49,7.87-9.23,11.49-14.01h100Z"/>
      <path class="cls-28" d="M474,398H0v-24c16.49,23.08,51.7,22.69,77.54,22.04,65.57-1.66,131.36-4.2,197-6,66.41-1.82,127.73-.6,193.84,6.07,1.78.18,4.27.63,5.62,1.89Z"/>
      <path class="cls-10" d="M316,32c.78,0,1.99.2,2,.69.65,27.17.53,56,0,83.33.73,5.2.07,9.86-2,13.98-4.2,2.25-10.21.45-15,1-7.09-5.94-9.32-6.59-6.7-1.97l-1.3,1.97h-76.01c-.06-17.5.08-35.04.07-52.55,0-2.99-.01-4.89,0-7.89.05-10.9-1.64-28.69-.06-38.55h99Z"/>
      <path class="cls-26" d="M441,178c2.67-.93,2.99-.02,1,2,.75,2.02,2.41,1.69,5-1,.06-1.31.46-2,2-2,6.72-.51,10.31-.43,13.56,5.94,5.66,11.1,4.26,49.53,4.4,63.6.07,7.49,1.55,12.67.02,20.97-.47,2.55-.13.51-1.98,1.48l-3.26,1.05c-14.22-3.92-29.56-2.93-43.9-1.57l-1.83-1.49c-5.56,4.59-5.77-4.93-3-8l-.47-2.55c3.87-5.08,4.84-11.58,4.61-17.82-3.84.91-6.55.37-8.13-1.62-2.76-1.23-4.13-6.28-1-8-1.77-.93-1.62-1.9-.08-3.02l8.23-2.76c.22-7.19-2.2-14.49-7.3-19.67l.16-2.56,21.04-21.46c3.32-2.21,7.17-3.75,10.96-1.54Z"/>
      <path class="cls-10" d="M455,47c.53,1.83,1.02,3.68,1.37,5.55s.65,3.7.67,5.55c.18,15.95.26,32.88-.06,48.15l-.98,1.75c-.66.39-1.18,1.33-2.39,1.06l-61.61-.05.52-61.98c.24-.62,1.37-.81,1.48-1.03l3.09-1.95c18.83.31,37.91.62,56.75.93l1.17,2.02Z"/>
      <path class="cls-10" d="M233,202c3.32-.1,6.68.04,10,0,6.81-3.45,18.84-3.16,26.78-2.37,10.73,1.06,22.33,3.41,25.22,15.37,1.49,2.82,2.05,6.8,2,10,.53.64.97,1.63.48,2.08-1.88,1.73-18.14,2.68-15.48-3.08-1.82-.08-3.52-1.69-5.1-4.83-14.03-2.3-28.33-2.8-42.88-1.5l-5.01-1.67-.36,1.36c-7.28.44-16.26,10.54-3.88,9.45,11.18,3.11,8.43,26.07-5.91,20.75-.09,3.57,1.43,6.69,4.78,8.13l.38,2.31c4.31.69,8.73.73,13.06.4.74-1.63,1.4-2.13,2.44-.4-.05-.47-.06-.93.08-1.33.57-1.71,32.05-1.07,35.75-.67l1.17,2c.58-2.42,2.8-7.15,5.5-7,.93-3.3.84-6.24-.29-8.82.04-1.62,15.19-1.82,16.46-.33.84.99.73,7.03.56,8.93-.43,4.64-3.42,15.9-8.72,15.22.59,5.88-10.92,7.87-15.97,8.67-8.35,1.32-22.17,1.42-30.58.37l-1.45-2.04c-3.01,3.15-12.84,2.54-17.5,1.81-11.05-1.73-18.38-6.41-22.25-17.18-1.29-3.59-3.55-11.39-.24-13.63-3.42-2.47-3.55-14.64,0-17,.36-4.16,4.01-17.6,8-19,.04-1.64,1.35-2.36,3.92-2.15,1.92-2.73,5.4-7.53,8.08-3.85,2.75-2.8,6.41-2.8,11,0Z"/>
      <path class="cls-14" d="M465,269c1.59,5.2.62,10.36.96,15.54.09,1.29,1.04,2.62,1.04,2.96v19c0,3.83,12.89,33.9,15,40.5.24.76-.21,2.15,0,3,1.58,3.78-7.81,5.26-9,2-1.58-2.66-3.47-5.32-5-8-.93-.59-1.83-1.21-2.63-1.94s-1.54-1.43-2.03-2.28c-10.12-17.65-18.09-33.85-23.51-52.38-2.47,18.94-4.28,37.94-5.41,56.98l-1.42,3.61c-.35.86.68,3.34-1,4-.94,0-.24-2.81-.26-2.66-.83,6.45-4.63,6.01-8.74,2.66-1.11-1.55-.93-3.23-1-5-1.08-2.83-2.17-5.73-2.43-8.77-1.82-20.68-3.52-41.47-4.95-62.18-.1-1.48.11-2.98.34-4.5s.61-3.04,1.03-4.54c.45,0,2.06-.96,3.45-1,15.63-.39,30.22-2.33,45.55,3Z"/>
      <path class="cls-18" d="M316,130V32c8.97-10.59,17.83-21.58,28-31l-.02,97.48c-8.07,11.4-18.1,21.62-27.98,31.52Z"/>
      <path class="cls-1" d="M301,136c2.61,6.76,18.94,32.32,18.93,37.5,0,1.23-4.37,11.54-5.38,12.55-3.81,3.8-18.26,8.42-23.47,12.05l3.93,16.91c-9.31-17.58-35-13.21-52-13,3.32-3.25,7.35-13.25,10.27-15.72,1.87-1.57,10.87-4.82,13.73-5.28,2.43.26,4.76-.07,7-1,9.3,2.26,19.57-4.79,28.98-6.04.91-1.27-7.74-25.54-8.58-29.97-.42-2.21.64-3.79.6-3.99-.35-3.02,3.43-6.05,6-4Z"/>
      <path class="cls-10" d="M409,201c6.42,5.38,9.82,15.04,9.04,23.34-.27,1.13-6.65,2.31-8.36,2.89-1.1.37-1.57,1.74-1.69,1.77-.88,2.5-2.61,1.95-4,0l-1.96-1.12c.54-5.15-.74-15.84-7.62-15.8-16.4.1-34.92.93-50.93,3.71-1.68,2.56-3.5,4.29-5.49,5.21-.34,2.09-.25,4.15.27,6.17-.38,1.56-16.17,1.38-15.84-.82.92-1.8,1.44-3.92,1.57-6.36,2.37-10.11,5.87-17.51,16.96-20.54,7.96-2.18,27.5-3.04,36.55-3.45,10-.45,23.53-1.68,31.49,4.99Z"/>
      <path class="cls-10" d="M324,220v6.01c1.93-.36,12.56.48,13,0,.17-.19.19-2.92,1-5,1.72-.25,2.5.69,2.34,2.81,9.23.58,10.59,13.91,4.87,19.48-2.1,2.04-4.25,3.36-6.22.72-1.24,3.24-12.61,3.11-14,0l-.48,1.28c-7.56,0-15.45-.34-23.67-1.04,2.65,3.95,2.73,13.07,2.24,18.42.91,9.95-5.74,14.05-10.09,5.34-1.91,2.08-3.54.44-3-2,5.43-5.58,7.6-15.45,7-23h-14.01c.56,3.29-.18,5.23-1,8-1.95-.5-2.61-2.33-2-5.51-19.15,1.33-17.88-25.55,2-21.49,1.86,3.4,8.69,1.96,12.57,2.03,1.27.02,2.3-1.03,2.43-1.03.76.01,2.55,1.04,4.43,1.04l21.57-.03c-.79-2.5.58-4.23,1-6.01Z"/>
      <path class="cls-16" d="M472,28c-.61,3.95-11.59,17.62-14.54,19.25l-2.46-.25-61-1c1.58-2.97,14.13-18.03,16.7-18.8,18.98.86,40.16-1.85,58.88-.25,1.54.13,1.41.13,2.41,1.05Z"/>
      <path class="cls-18" d="M456,108c-1.66-1.04-1-3.8-1.02-5.49-.19-18.5.18-37.03.02-55.51l17-19c1.12,1.02-.08,3.6-.05,5.45.24,18.27-.72,36.72.87,54.85-.19,1.28-1.12,2.21-1.82,3.21-1.6,2.25-13.36,15.53-14.99,16.5Z"/>
      <path class="cls-23" d="M453,171c-2.72.32-3.35-2.63-1.9-8.86-5.15-1.2-10.44-1.55-15.87-1.07l-1.22-2.08c-4.16-.49-10.07-5.95-8.86-10.29.66-2.38,12.51-7.71,15.35-7.72,5.07-.02,18.19,4.56,20.71,9.31,4.97,9.39-1.55,15.18-8.2,20.7Z"/>
      <path class="cls-12" d="M434,159c3.79.44,16.83-1.08,18.82,2.17,1.59,2.59-1.92,7.45.18,9.83-1.22,1.02-3.71,2-3.84,2.18-.6.85-.02,2.7-.16,3.82-.07.56.31,1.38-.17,1.83-.41.39-1.29.08-1.83.17-.73,2.5-3.39,2.91-5,1-.02-.97-.85-1.53-1-2-.23-.72.29-2-.47-2.99-1.01-1.3-3.55-.68-4.8-3.24-1.53-3.14-1.69-9.19-1.73-12.77Z"/>
      <path class="cls-30" d="M293,131c-.58-1.63-4.34-7.06,1.5-7.03.5,0,6.06,3.96,6.28,4.28.59.87.11,1.9.22,2.76.2,1.62-.14,3.36,0,5l-6,4c-.35-2.03-1.45-7.44-2-9Z"/>
      <rect class="cls-34" x="359.01" y="67.01" width="5.99" height="1.99"/>
      <path class="cls-13" d="M354.99,67.01v1.99s-5.99,0-5.99,0c.77-2.54,3.8-2.03,5.99-1.98Z"/>
      <path class="cls-33" d="M375,68.99h-5.99s0-1.98,0-1.98c2.19-.05,5.22-.55,5.99,1.98Z"/>
      <path class="cls-22" d="M383.99,67.01v1.99s-5.99,0-5.99,0c.77-2.54,3.8-2.03,5.99-1.98Z"/>
      <path class="cls-10" d="M146,49l2,.92c.04,22.18.01,44.36-.07,66.56l-1.93,3.51c-.57.28-1.22,1.38-2.39,1.06l-69.61-.05-.05-70.61c-.32-1.18.78-1.82,1.06-2.39l3.08-1.96c22.25.31,44.5.63,66.75.94l1.17,2.02Z"/>
      <path class="cls-6" d="M122,180c2.46,1.51,7.27,11.04,9,14l-2.15,1.81-20.1-1.52c-13.61.38-17.89,7.93-20.37,20.74l-2.38,1.97c-1.7,1.7-2.94,3.59-3.71,5.68l.71,15.32c3.16.41,5.04,9.88,3,12l.24,2.25c-4.05,2.36-4.04,5.13-1.35,8.6-.24-5.13,1.13-7.42,4.11-6.85,2.13-.48,4.61.69,7.44,3.5,15.29,4.58,31.11,7.05,47.46,7.41l1.1,2.09,1.97.7c1.39,2.22,7.12,20.66,6.22,22.31-1.55,2.84-18.18,6.1-21.8,5.86l-1.4-1.87-2.02,2.09c-5-.66-9.66-.36-13.98.91-1.25,1.16-2.25.49-3-2l-1.43,1.91c-4.7.84-13.34,1.57-17.57.09-.37,0-.91-1.7-1.79-1.91-6.93-1.64-13.86-3.35-20.25-6.75-.13-8.38-.33-15.75,2.01-23.87,1.07-3.71,5.1-10.17,5.09-12.97-.02-6.72-10.61-20.34-11.84-27.83,3.77-8.24,9.07-15.67,13.3-23.65.8-1.52,3.05-7.97,3.48-8.02,1.67-7.24,5.1-8.7,13.84-10.99,1.66-2.58,3.37-4.58,5.16-6.01l1.98-1.1c3.45,2.17,7.82,3.16,10.78-.28l2.24.38c1.24,2.2,3,3.38,5.27,3.56l.73,2.44Z"/>
      <path class="cls-10" d="M131,194c6.46.57,13.65,2.03,20,2,.09,2.79,2.27,3.87,6.55,3.25,3.32,2.3,5.14,1.88,5.45-1.25,12.98,4.53,17.37,13.66,17,27,3.19,3.49,1.77,14.22-2,17,2.87,2.11.54,8.71-.7,11.9-3.7,9.56-10.44,14.17-20.39,15.87-2.91.5-11.15.34-11.91-2.77-11.64-.87-42.35-2.81-50.94-8.56-.93-.62-4.34-3.62-5.06-4.44-2.39,1.79-5.07-1.89-3-4-1.55-3.22-2.18-8.43-3-12-1.58-8.09-.58-15.09,3-21,4.89-30.22,20.28-25.16,45-23Z"/>
      <path class="cls-16" d="M166,27c-2.33,5.79-12.5,18.76-17.53,22.26l-2.47-.26-71-1c1.41-2.89,11.62-14.03,14.49-17.01,1.2-1.25,3.85-4.38,5.22-4.78l68.85-.25,2.45,1.04Z"/>
      <path class="cls-18" d="M166,73c1.94.92,1.94,2.09,0,3-.06,5.27,1,18.29-.2,22.3-.54,1.8-17.69,20.68-19.8,21.7V49l20-22c-.09,15.32.12,30.68,0,46Z"/>
      <path class="cls-5" d="M111,295c.98,14.7.32,29.58-2,44.66l.09,9.65-2.09,1.7c-.36,3.96-1.17,8.34-2,12-1.02,2.48-6.02,2.6-7,0,.69-4.56-.54-8.74-1-13-1.89-17.62-2.21-35.47-5-53,.13,0,.88-1.03,2.41-1.04,5.35-.02,12-1.45,16.59-.96Z"/>
      <path class="cls-23" d="M82,192c-.02-5.88,3.88-12.57,4.76-17.74,1.6-9.37-2.41-17.61,6.88-25.12,7.71-6.24,16.15-4.67,23.32,1.4,5.87,4.97,5.2,13.77,6.47,20.53.95,5.03,5.86,7.44-1.43,8.93-2.58-1.58-7.16.16-6-6-.87-1.75-.67-3.88.6-6.39.72-3.74-.89-15.39-4.59-9.43-7.72.54-10.7,5.82-8.94,15.85l-2.08.97c-1.11,10.92-9.94,8.21-14.96,11.54-1.91,1.26-2.67,6.13-3.05,6.46-.67.59-.92-1.01-.99-1Z"/>
      <path class="cls-23" d="M279,173c-2.64-.72-3.62-3.46-2.94-8.24-.5-3.39-12.67.25-13.9,3.1l-2.16.14c-2.59-4.23-9.75-6.48-7.52-12.97,5.12-5.03,4.86-9.04,13.11-9.95,16.21-1.79,26.22,11.65,16.4,25.45-.87,1.22-2.48,1.81-3,2.47Z"/>
      <path class="cls-10" d="M202,227c-.43,4.94-.28,11.98,0,17-.27.76-.68,1.88-1.3,1.9-2.45.08-19.92-1.22-21.46-1.79l-1.25-2.11c.9-5.26,1.85-11.7,2-17l22,2Z"/>
      <path class="cls-11" d="M279,173c-2.14,2.75-3.3,3.92-5,7-.47.84-.73,2.84-1.65,3.05-2.58.6-4.01-.04-5.35-2.05-2.89-4.34-4.64-9.15-7-13,.87-4.98,16.16-9.39,17.84-4.34.81,2.42-.37,6.57,1.16,9.34Z"/>
      <path class="cls-4" d="M222,196c5.22.55,5.22,4.98,0,6-5,.82-5.23,4.4-7.01,5.5s-3.92.12-4.99.5c-.19-9.48,2.85-12.75,12-12Z"/>
      <path class="cls-27" d="M163,198c.63.69,1.05,1.89,1.98,2.5-3.62,4.57-5.47,1.06-7.79.71-2.89-.44-10.86.91-6.19-5.21,4.62-.02,7.06-3.37,12,2Z"/>
      <path class="cls-1" d="M233,202c-3.38.1-7.93-.5-11,0,1.79-2.07,3.4-4.64,0-6,.1,0,.56-1.06,1.88-.53,2.53,1.01,6.62,4.86,9.12,6.53Z"/>
      <path class="cls-24" d="M186.57,73.07c4.02-1.21,7.07,1.9,3.86,2.86-4.02,1.21-7.07-1.9-3.86-2.86Z"/>
      <path class="cls-15" d="M166,73h6.01c.94,5.47-2.66,1.49-6.01,3,.01-1,0-2,0-3Z"/>
      <path class="cls-7" d="M205,75.99v-2.99c7.67-.72,7.67,3.71,0,2.99Z"/>
      <path class="cls-36" d="M176,75.99v-2.99c7.67-.72,7.67,3.71,0,2.99Z"/>
      <rect class="cls-31" x="195.01" y="73.01" width="5.99" height="1.99"/>
      <path class="cls-8" d="M243.29,369.69c3.81,3.11,12.68-1.58,14.59-5.32,1.71-3.35,2.53-23.21,3.7-23.39,1.93.39,10.79-.5,11.38.07.79.77,2.57,18.66,3.8,21.7s8.76,8.09,11.84,8.27c3.41.2,9.66-7.52,7.92-10.05-.42-.62-2.26-.57-2.54-1.66-.36-1.42-.92-18.1.6-18.36,18.95.64,38.02-.63,56.96.02,19.26.66,37.22,3.45,56.09,5.91,2.82.37,11.58-1.17,11.25,2.48-.3,3.26-6.26,5.4-5.75,8.92,1.3,8.91,21.52,7.54,22.85.21.49-2.71-.98-9.08,2.69-10.31,3.01-1.01,13.63-.07,17.82-.17,3.33-.08,5.39-2.29,9.08-.06,6.03,3.65.38,7.64.87,12.1,1.27,11.68,17.73,3.78,20.12-3.98.6-1.96.04-7.93,1.01-8.08,19.23.41,39.86.92,58.61,5.33,20.8,4.9,27.74,11.02,8.29,26.67-7.34,5.91-18.03,9.9-27.28,11.72-37.6,7.41-71.38-.86-108.71-3.69-71.48-5.42-145.46-.74-217.03.95-41.93.99-84.01,3.04-125.92,4.08-16.82.42-62.67-.06-70.73-18.36s7.79-27.03,22.79-29.58c23.18-3.94,42.8,2.11,65.21,6.06,4.73,7.66-6.47,15.03,1.24,21.26,3.19,2.58,7.09,1.31,10.29-.58,6.23-3.69,6.83-12.39,5.65-18.85,2.02.39,10.09-.61,10.91.1.49.42,1.12,8.76,4.13,11.36,4.45,3.85,14.36,3.68,15.78-3.19,1.08-5.25-3.61-5.35-2.82-10.26l101.5-10c4.09.59,1.27,4.22,1.45,7.46.13,2.44,2.01,5.13,1.82,6.9-.26,2.43-4.16,4.71-3.8,8.11.08.74,3.74,5.75,4.32,6.23Z"/>
      <path class="cls-28" d="M325,244l1.92,1.56c-.19,10.23,8.09,20.2,18.2,21.87,11.37,1.87,48.71-.39,59.22-4.75,3.17-2.55,6.06-3.77,8.67-3.67l.77.58c-.76,2.99-2,7.35,2.23,7.42,1.69,26.7,4.91,53.34,6,80-2.86-4.81-9-2.4-13.49-3.01-18.4-2.53-36.24-5.34-54.97-6.03-15.45-.56-43.69-1.91-58.09-.02-2.78.37-3.43,1.62-5.45,3.06l-1.07-5.01c.68-22.48,1.58-44.58,2.7-66.32l1.38-1.67c1.08.6,6.5,3.34,6.99,3,2.08-9.1.96-18.77,0-28,6.85.04,13.72-.04,20.57-.04,1.85,0,3.75,1.04,4.43,1.04Z"/>
      <path class="cls-21" d="M202,244c.57,10.21,2.56,19.91,12.07,25.43,8.8,5.11,18.19,3.39,27.93,3.57l1.39,1.87c.6,20.44,1.51,40.98,2.74,61.6l-1.13,2.53c-26.27-2.96-53.36,4.05-79.62,6.88-10.8,1.16-21.72.99-32.38,3.12-2.98-.42-4.52-15.03-3.97-17.11l1.97-1.39c-.78-.21-1.94-.53-2-1.12-.44-4.26-.43-14.21,0-18.47l2-1.41c-5,.62-3.82-12.87-1-15.5,3.62-.29,19.89-2.58,21.58-4.95,1.4-1.97-7.18-17.91-6.58-22.05,7.37.55,10.77,2.17,18.39-1.11,11.11-4.79,12.8-13.25,14.61-23.89l24,2Z"/>
      <path class="cls-23" d="M293,268c-.22,6.15.28,12.39.04,18.54-.7,18.08-2.15,36.37-3.04,54.46-.19,3.9-1.02,7.52-1,12,1.54,1.96,1.51,4.02,0,6-1.96,1.24-1.6-2.86-1.15-4.51.1-.35.61,7.18-.62,6.24-4.04.93-5.72.84-6.23-3.73-.47.05-.79-.03-.98-.51-.15-5.96-2.85-11.98-4.02-17.49-1.32-1.22-2.3-2.67-2.91-4.35l-7.21-38.04c-2.25,12.6-4.23,25.27-5.45,38.02l-2.42,5.37-4,23c-1.53-1.73-3.45-2.44-5.75-2.13l-1.25-1.87c-.17-6.66-1.47-13.39-2-20-1.03-12.82-2.47-26.76-3.04-39.46-.4-8.8.38-17.74.04-26.54,13.38.25,38.35,2.91,48-7,1.31.18,2.14,1.52,3,2Z"/>
      <path class="cls-21" d="M468,344c-8.37.54-17.08-.65-25.48.01-3.13.25-8.26.87-9.52,3.99.51-23.13,2.17-46.22,6.01-68.99l11.81,33.67c6.01,10.26,11.28,21.02,17.18,31.32Z"/>
      <path class="cls-5" d="M130,294c.2,4.15-.27,8.38-.04,12.54.07,1.3,1.04,2.61,1.04,2.96v21c0,4.98,1.44,13.37,2,18.5.25,2.25-.17,4.72,0,7l-.79,1.95c-2.07-.16-3.62.89-5.21,2.05-1.04-1.44-2.43-9.37-3-12-6.58-15.47-9.64-34.19-10-51-.12-3.5-.62-2.76,2.45-3,4.44-.35,9.12.36,13.55,0Z"/>
      <path class="cls-2" d="M111,295c.59.06,1.23-.22,1.77.23l1.23,1.77c3.7,16.89,6.36,34.11,10,51,0,3.99,1.35,2.41-1.75,2.26-4.9-.23-10.64-1.13-15.25.74.34-3.75-.31-7.71.01-11.49,1.26-14.83,2.85-29.68,3.99-44.51Z"/>
      <path class="cls-28" d="M276,339c-.76,1.38-2.45-.9-4.44-1.06-4.16-.33-10.33-.73-13.56,2.06,1.26-19.43,5.27-38.71,8.01-57.99l2.1,16.38c3.44,13.33,5.06,27.28,7.88,40.62Z"/>
      <path class="cls-32" d="M432,352c.04,2.33-.02,4.68,0,7-4.29-.64-9.26,2.1-13.35.84-4.36-1.35,1.84-7.31,4.35-7.84,5.48-1.16,8.55,3.25,8.5-5.01.92,0,.48,3.87.5,5.01Z"/>
      <path class="cls-9" d="M482,350c.9,3.56,3.07,3.91-1.45,8.05-2.26,2.07-6.18,3.24-9.22,3.79-2.18.39-1.49-1.15-1.27-2.28.16-.86,2.61-7.34,2.95-7.56.62-.38,7.31-.06,9-2Z"/>
      <path class="cls-29" d="M289,359c.29-.86.62-.85,1,0,2.46,2.97,4.56,5.67.03,8.53-2.58,1.63-1.68-.89-2.73-1.53-4.44-2.72-7.49-1.45-6.3-9,.15-.02.52-.89.98-1.02-.73,4.31,1.46,2.95,5.02,3.03l.99-6c.06,2.47-.68,4.15,1.01,6Z"/>
      <path class="cls-19" d="M254,363c-.18.42-6.95,4.07-7.97,3.57-4.3-2.11-2.83-6.66.97-7.57,1.93-.46,4.8.63,6.99-1-.26,1.33.41,4.08,0,5Z"/>
      <path class="cls-17" d="M105,363c-.32,1.42.58,2.91-.97,4.52-2.64,2.72-8.14,3.03-9.99-1.02,1.11-1.04,2.53-3.09,3.96-3.5.99-.28,5.74-.54,7,0Z"/>
      <path class="cls-37" d="M133,356c9.54,1.03-.02,12.23-6,4-1.38-3.32,3.44-4.28,6-4Z"/>
      <path class="cls-28" d="M290,359c-.14-.17-.85.16-1,0,0-2,0-4,0-6l1.99-1c-.23,2.19.92,5.59-.99,7Z"/>
      <path class="cls-21" d="M286,74c.26.24,4-.2,4,0v34.5c0,3.39-6.28,6.26-9.45,6.55-6.51.59-23.88.85-29.99-.11-2.24-.35-6.56-3.35-6.56-5.44v-35.5c0-.25,5,.25,5,0v-18.5c0-3.03,5.92-9.15,8.96-10.04,3.32-.98,14.68-.87,18.07.01,3.69.96,9.97,7.32,9.97,11.03,0,2.47-.64,16.9,0,17.5Z"/>
      <path class="cls-10" d="M409,237c3.58.04,6.52-.29,9.99-1,.61,8.21-.28,16.68-5.99,23-3.5,3.86-10.39,7.28-15.61,7.89-12.92,1.52-37.07,3.44-49.62,2.85s-23.94-12.75-22.76-25.74c4,0,10.23.12,14,0l2.08,1.24c1.54,7.14,7.74,9.73,18.59,7.76,4.32-.22,35.7-1.88,38.56-3.35,2.57-1.32,3.77-4.91,4.47-7.55l2.3-1.11c-2.62-5.47,1-10.09,4-4Z"/>
      <path class="cls-35" d="M447,179c.11,2.91-2.64,4.99-3.09,6.45-3.08,10.02-3.51,22.52-6.13,32.84-.9,2.18-6.04,3.41-8.33,3.68-1.36.16-1.9.09-1.43-1.44,1.98-6.57,5.75-14.24,8-21.01,1.5-4.52,6.05-15.57,5.98-19.52,1.55-1.23,3.39-.73,5-1Z"/>
      <path class="cls-3" d="M408,229l1,8c-.55,0-1.75-1.59-3.03-.57-1.54,1.23-.69,3.21-.97,4.57-2.39,1.24-2.89-.13-2.96-2.46-5.98.72-11.63-3.28-6.3-8.55,1.2-1.18,7.6-3.65,8.26-1,2.67-.88,3.79.05,4,0Z"/>
      <path class="cls-1" d="M282,224c.53,3.69-6.12,1.59-8.48,2.03-4.94.92-4.98,6.57-4.58,10.54.82,8.25,6.39,6.36,13.06,6.43v8.01c-.67,2.28-2.8,7-5.5,7h-37c-.43,0-2.19,1.01-3.93,1.07-4.21.14-7.7.3-11.57-1.07l1.09-2c3.61.21,7.04.07,10.27-.4l4.64-29.25-11.01-7.9.02-2.44c10.73-.77,34.24-1.33,44.41.09,6.69.94,6.13,3.42,8.59,7.91Z"/>
      <path class="cls-2" d="M229,216l12.88,9.16.11,1.22-4.99,31.63h-13c-5.96-2.13-7.74-6.8-6.99-13,2.8.8,8.5,2.01,10.76-.24,1.9-1.89,2.28-13.77-.77-15.26-4.67-2.28-11.49,1.62-9.94-5.94,1.26-6.15,6.79-7.19,11.94-7.56Z"/>
      <rect class="cls-25" x="330.01" y="67.01" width="5.99" height="1.99"/>
      <path class="cls-21" d="M404,229c-1.33.44-6.62,2.16-7.01,2.49-1.11.92-1.39,4.12-.99,4.51.26.26,5.8.04,7.36.95,1.35.79.1,3.29,1.65,4.06-3.19,15.59-11.65,10.96-24.49,12.01-6.92.56-15.14,1.85-21.97,2.03-9.53.25-19.13,1.47-19.54-11.04,10.29-.34,10.07-20.44-.41-17.98l-.59-5.02c1.35-3.45,2.39-6.78,6.71-7.79,14.57-3.41,34.51-.88,49.7-3.11,9.48,1.12,9.9,11.2,9.59,18.9Z"/>
      <path class="cls-12" d="M116,174c-3.96,5.56-9.91,4.47-15,1,.5-4.9-1.03-10.89,2.12-15.38,2.34-3.33,5.31-1.82,7.88-3.13,2.26-1.15,2.27-7.79,5.9.11,2.63,5.73,2.82,12.18-.9,17.4Z"/>
      <path class="cls-4" d="M89,254l-1.99,2.99c.73,4.62-.74,10-4.46,3.96-3.24-5.26-1.28-7.88,3.45-10.95.24.5,2.45,3.37,3,4Z"/>
      <path class="cls-20" d="M86,217c-1.13,6.98-1.76,14.04-3,21-1.51-6.56-6.83-20.25,3-21Z"/>
      <path class="cls-6" d="M158,212c1.25.69,1.75,1.14,2.07,2.37,1.19,4.6-13.5,19.71-19.55,15.73l2.31,20.23-1.82,1.67c-9.92-1.02-27.44-1.58-36.25-4.25-2.84-.86-5.86-3.53-6.53-6.46-.89-3.91,1.63-25.59,3.28-29.3,1.75-3.94,4.69-5.97,9-6.09,8.89-.24,39.01,3.76,47.5,6.09Z"/>
      <path class="cls-21" d="M158,212c6.24,1.72,8.61,5.12,7.99,12-10.76-3.95-14.94,2.11-12.96,12.48.92,4.82,7.17,3.37,10.97,4.53-2.32,16.33-11.2,12.2-23.01,10.99l-2.99-26c3.39,2.22,4.21,3.94,8.33,1.86,5.48-2.77,12.75-9.01,11.66-15.86Z"/>
      <path class="cls-10" d="M281,74h-28v-16.5c0-11.98,28-10.41,28-2v18.5Z"/>
      <path class="cls-10" d="M268.21,95.2c-.97,1.64.23,6.56-.22,8.8h-2.99c-.27-2.61.53-5.83-.2-8.31-.84-2.82-5.38-3-3.6-8.98,2.23-7.51,15.7-2.7,10.69,5.68-1.11,1.86-3.4,2.34-3.68,2.81Z"/>
    </g>
  </g>
</svg>